<ttFont>
    <TTGlyph name=".notdef" xMin="47" yMin="0" xMax="978" yMax="1415">
      <contour>
        <pt x="262" y="1134" on="1"/>
        <pt x="283" y="1154" on="0"/>
        <pt x="334" y="1190" on="0"/>
        <pt x="394" y="1218" on="0"/>
        <pt x="465" y="1235" on="0"/>
        <pt x="507" y="1235" on="1"/>
        <pt x="561" y="1235" on="0"/>
        <pt x="654" y="1204" on="0"/>
        <pt x="723" y="1145" on="0"/>
        <pt x="762" y="1062" on="0"/>
        <pt x="762" y="1010" on="1"/>
        <pt x="762" y="955" on="0"/>
        <pt x="729" y="876" on="0"/>
        <pt x="680" y="817" on="0"/>
        <pt x="622" y="772" on="0"/>
        <pt x="571" y="732" on="0"/>
        <pt x="534" y="693" on="0"/>
        <pt x="532" y="668" on="1"/>
        <pt x="522" y="554" on="1"/>
        <pt x="457" y="554" on="1"/>
        <pt x="451" y="676" on="1"/>
        <pt x="449" y="707" on="0"/>
        <pt x="481" y="754" on="0"/>
        <pt x="530" y="796" on="0"/>
        <pt x="589" y="838" on="0"/>
        <pt x="639" y="891" on="0"/>
        <pt x="673" y="958" on="0"/>
        <pt x="673" y="1005" on="1"/>
        <pt x="673" y="1041" on="0"/>
        <pt x="645" y="1097" on="0"/>
        <pt x="598" y="1136" on="0"/>
        <pt x="535" y="1157" on="0"/>
        <pt x="500" y="1157" on="1"/>
        <pt x="454" y="1157" on="0"/>
        <pt x="388" y="1134" on="0"/>
        <pt x="342" y="1105" on="0"/>
        <pt x="315" y="1082" on="0"/>
        <pt x="308" y="1082" on="1"/>
        <pt x="294" y="1082" on="0"/>
        <pt x="287" y="1093" on="1"/>
      </contour>
      <contour>
        <pt x="410" y="265" on="1"/>
        <pt x="410" y="297" on="0"/>
        <pt x="454" y="343" on="0"/>
        <pt x="487" y="343" on="1"/>
        <pt x="519" y="343" on="0"/>
        <pt x="563" y="297" on="0"/>
        <pt x="563" y="265" on="1"/>
        <pt x="563" y="233" on="0"/>
        <pt x="519" y="187" on="0"/>
        <pt x="487" y="187" on="1"/>
        <pt x="454" y="187" on="0"/>
        <pt x="410" y="233" on="0"/>
      </contour>
      <contour>
        <pt x="47" y="1415" on="1"/>
        <pt x="978" y="1415" on="1"/>
        <pt x="978" y="0" on="1"/>
        <pt x="47" y="0" on="1"/>
      </contour>
      <contour>
        <pt x="82" y="36" on="1"/>
        <pt x="941" y="36" on="1"/>
        <pt x="941" y="1379" on="1"/>
        <pt x="82" y="1379" on="1"/>
      </contour>
    </TTGlyph>
    <TTGlyph name="A" xMin="15" yMin="0" xMax="1275" yMax="1415">
      <contour>
        <pt x="1275" y="0" on="1"/>
        <pt x="1196" y="0" on="1"/>
        <pt x="1182" y="0" on="0"/>
        <pt x="1164" y="15" on="0"/>
        <pt x="1159" y="27" on="1"/>
        <pt x="992" y="438" on="1"/>
        <pt x="297" y="438" on="1"/>
        <pt x="131" y="27" on="1"/>
        <pt x="127" y="16" on="0"/>
        <pt x="107" y="0" on="0"/>
        <pt x="93" y="0" on="1"/>
        <pt x="15" y="0" on="1"/>
        <pt x="594" y="1415" on="1"/>
        <pt x="696" y="1415" on="1"/>
      </contour>
      <contour>
        <pt x="328" y="514" on="1"/>
        <pt x="962" y="514" on="1"/>
        <pt x="673" y="1229" on="1"/>
        <pt x="666" y="1246" on="0"/>
        <pt x="652" y="1289" on="0"/>
        <pt x="645" y="1313" on="1"/>
        <pt x="638" y="1289" on="0"/>
        <pt x="624" y="1246" on="0"/>
        <pt x="617" y="1228" on="1"/>
      </contour>
    </TTGlyph>
    <TTGlyph name="AE" xMin="-19" yMin="0" xMax="1723" yMax="1415">
      <contour>
        <pt x="763" y="1415" on="1"/>
        <pt x="1723" y="1415" on="1"/>
        <pt x="1723" y="1330" on="1"/>
        <pt x="908" y="1330" on="1"/>
        <pt x="980" y="758" on="1"/>
        <pt x="1598" y="758" on="1"/>
        <pt x="1598" y="675" on="1"/>
        <pt x="991" y="675" on="1"/>
        <pt x="1066" y="85" on="1"/>
        <pt x="1723" y="85" on="1"/>
        <pt x="1723" y="0" on="1"/>
        <pt x="981" y="0" on="1"/>
        <pt x="925" y="438" on="1"/>
        <pt x="329" y="438" on="1"/>
        <pt x="102" y="25" on="1"/>
        <pt x="89" y="0" on="0"/>
        <pt x="60" y="0" on="1"/>
        <pt x="-19" y="0" on="1"/>
      </contour>
      <contour>
        <pt x="371" y="514" on="1"/>
        <pt x="915" y="514" on="1"/>
        <pt x="810" y="1337" on="1"/>
        <pt x="802" y="1311" on="0"/>
        <pt x="782" y="1265" on="0"/>
        <pt x="771" y="1242" on="1"/>
      </contour>
    </TTGlyph>
    <TTGlyph name="Aacute" xMin="15" yMin="0" xMax="1275" yMax="1770">
      <component glyphName="A" x="0" y="0" flags="0x204"/>
      <component glyphName="acute.case" x="347" y="0" flags="0x4"/>
    </TTGlyph>
    <TTGlyph name="Acircumflex" xMin="15" yMin="0" xMax="1275" yMax="1741">
      <component glyphName="A" x="0" y="0" flags="0x204"/>
      <component glyphName="circumflex.case" x="352" y="0" flags="0x4"/>
    </TTGlyph>
    <TTGlyph name="Adieresis" xMin="15" yMin="0" xMax="1275" yMax="1747">
      <component glyphName="A" x="0" y="0" flags="0x204"/>
      <component glyphName="dieresis.case" x="352" y="0" flags="0x4"/>
    </TTGlyph>
    <TTGlyph name="Agrave" xMin="15" yMin="0" xMax="1275" yMax="1770">
      <component glyphName="A" x="0" y="0" flags="0x204"/>
      <component glyphName="grave.case" x="347" y="0" flags="0x4"/>
    </TTGlyph>
    <TTGlyph name="Aogonek" xMin="15" yMin="-338" xMax="1379" yMax="1415">
      <contour>
        <pt x="1350" y="-243" on="1"/>
        <pt x="1360" y="-243" on="0"/>
        <pt x="1363" y="-251" on="1"/>
        <pt x="1379" y="-285" on="1"/>
        <pt x="1351" y="-309" on="0"/>
        <pt x="1267" y="-338" on="0"/>
        <pt x="1220" y="-338" on="1"/>
        <pt x="1144" y="-338" on="0"/>
        <pt x="1050" y="-263" on="0"/>
        <pt x="1050" y="-197" on="1"/>
        <pt x="1050" y="-166" on="0"/>
        <pt x="1073" y="-109" on="0"/>
        <pt x="1112" y="-59" on="0"/>
        <pt x="1161" y="-17" on="0"/>
        <pt x="1187" y="0" on="1"/>
        <pt x="1167" y="4" on="0"/>
        <pt x="1159" y="27" on="1"/>
        <pt x="992" y="438" on="1"/>
        <pt x="297" y="438" on="1"/>
        <pt x="131" y="27" on="1"/>
        <pt x="127" y="16" on="0"/>
        <pt x="107" y="0" on="0"/>
        <pt x="93" y="0" on="1"/>
        <pt x="15" y="0" on="1"/>
        <pt x="594" y="1415" on="1"/>
        <pt x="696" y="1415" on="1"/>
        <pt x="1275" y="0" on="1"/>
        <pt x="1263" y="0" on="0"/>
        <pt x="1213" y="-25" on="0"/>
        <pt x="1162" y="-72" on="0"/>
        <pt x="1124" y="-137" on="0"/>
        <pt x="1124" y="-176" on="1"/>
        <pt x="1124" y="-224" on="0"/>
        <pt x="1188" y="-277" on="0"/>
        <pt x="1238" y="-277" on="1"/>
        <pt x="1266" y="-277" on="0"/>
        <pt x="1304" y="-266" on="0"/>
        <pt x="1330" y="-254" on="0"/>
        <pt x="1345" y="-243" on="0"/>
      </contour>
      <contour>
        <pt x="328" y="514" on="1"/>
        <pt x="962" y="514" on="1"/>
        <pt x="673" y="1229" on="1"/>
        <pt x="666" y="1246" on="0"/>
        <pt x="652" y="1289" on="0"/>
        <pt x="645" y="1313" on="1"/>
        <pt x="638" y="1289" on="0"/>
        <pt x="624" y="1246" on="0"/>
        <pt x="617" y="1228" on="1"/>
      </contour>
    </TTGlyph>
    <TTGlyph name="Aring" xMin="15" yMin="0" xMax="1275" yMax="1789">
      <component glyphName="A" x="0" y="0" flags="0x204"/>
      <component glyphName="ring.case" x="352" y="0" flags="0x4"/>
    </TTGlyph>
    <TTGlyph name="Atilde" xMin="15" yMin="0" xMax="1275" yMax="1717">
      <component glyphName="A" x="0" y="0" flags="0x204"/>
      <component glyphName="tilde.case" x="352" y="0" flags="0x4"/>
    </TTGlyph>
    <TTGlyph name="B" xMin="210" yMin="0" xMax="1146" yMax="1415">
      <contour>
        <pt x="210" y="0" on="1"/>
        <pt x="210" y="1415" on="1"/>
        <pt x="617" y="1415" on="1"/>
        <pt x="738" y="1415" on="0"/>
        <pt x="915" y="1367" on="0"/>
        <pt x="1031" y="1274" on="0"/>
        <pt x="1088" y="1140" on="0"/>
        <pt x="1088" y="1055" on="1"/>
        <pt x="1088" y="999" on="0"/>
        <pt x="1049" y="895" on="0"/>
        <pt x="975" y="807" on="0"/>
        <pt x="868" y="742" on="0"/>
        <pt x="799" y="725" on="1"/>
        <pt x="966" y="700" on="0"/>
        <pt x="1146" y="528" on="0"/>
        <pt x="1146" y="387" on="1"/>
        <pt x="1146" y="297" on="0"/>
        <pt x="1082" y="153" on="0"/>
        <pt x="960" y="53" on="0"/>
        <pt x="782" y="0" on="0"/>
        <pt x="669" y="0" on="1"/>
      </contour>
      <contour>
        <pt x="312" y="678" on="1"/>
        <pt x="312" y="82" on="1"/>
        <pt x="667" y="82" on="1"/>
        <pt x="854" y="82" on="0"/>
        <pt x="1044" y="243" on="0"/>
        <pt x="1044" y="389" on="1"/>
        <pt x="1044" y="456" on="0"/>
        <pt x="993" y="563" on="0"/>
        <pt x="897" y="638" on="0"/>
        <pt x="757" y="678" on="0"/>
        <pt x="668" y="678" on="1"/>
      </contour>
      <contour>
        <pt x="312" y="753" on="1"/>
        <pt x="619" y="753" on="1"/>
        <pt x="717" y="753" on="0"/>
        <pt x="856" y="803" on="0"/>
        <pt x="945" y="885" on="0"/>
        <pt x="987" y="989" on="0"/>
        <pt x="987" y="1044" on="1"/>
        <pt x="987" y="1187" on="0"/>
        <pt x="806" y="1334" on="0"/>
        <pt x="617" y="1334" on="1"/>
        <pt x="312" y="1334" on="1"/>
      </contour>
    </TTGlyph>
    <TTGlyph name="C" xMin="124" yMin="-16" xMax="1295" yMax="1431">
      <contour>
        <pt x="1238" y="238" on="1"/>
        <pt x="1248" y="238" on="0"/>
        <pt x="1255" y="231" on="1"/>
        <pt x="1295" y="188" on="1"/>
        <pt x="1251" y="141" on="0"/>
        <pt x="1147" y="66" on="0"/>
        <pt x="1024" y="13" on="0"/>
        <pt x="877" y="-16" on="0"/>
        <pt x="789" y="-16" on="1"/>
        <pt x="642" y="-16" on="0"/>
        <pt x="397" y="87" on="0"/>
        <pt x="222" y="276" on="0"/>
        <pt x="124" y="544" on="0"/>
        <pt x="124" y="708" on="1"/>
        <pt x="124" y="869" on="0"/>
        <pt x="225" y="1135" on="0"/>
        <pt x="408" y="1326" on="0"/>
        <pt x="663" y="1431" on="0"/>
        <pt x="817" y="1431" on="1"/>
        <pt x="894" y="1431" on="0"/>
        <pt x="1022" y="1408" on="0"/>
        <pt x="1133" y="1365" on="0"/>
        <pt x="1231" y="1301" on="0"/>
        <pt x="1278" y="1259" on="1"/>
        <pt x="1247" y="1214" on="1"/>
        <pt x="1239" y="1202" on="0"/>
        <pt x="1222" y="1202" on="1"/>
        <pt x="1213" y="1202" on="0"/>
        <pt x="1185" y="1223" on="0"/>
        <pt x="1142" y="1254" on="0"/>
        <pt x="1081" y="1291" on="0"/>
        <pt x="997" y="1322" on="0"/>
        <pt x="887" y="1343" on="0"/>
        <pt x="817" y="1343" on="1"/>
        <pt x="688" y="1343" on="0"/>
        <pt x="472" y="1254" on="0"/>
        <pt x="316" y="1089" on="0"/>
        <pt x="229" y="854" on="0"/>
        <pt x="229" y="708" on="1"/>
        <pt x="229" y="558" on="0"/>
        <pt x="315" y="322" on="0"/>
        <pt x="467" y="159" on="0"/>
        <pt x="674" y="72" on="0"/>
        <pt x="795" y="72" on="1"/>
        <pt x="871" y="72" on="0"/>
        <pt x="990" y="92" on="0"/>
        <pt x="1090" y="132" on="0"/>
        <pt x="1176" y="190" on="0"/>
        <pt x="1218" y="229" on="1"/>
        <pt x="1223" y="233" on="0"/>
        <pt x="1232" y="238" on="0"/>
      </contour>
    </TTGlyph>
    <TTGlyph name="Cacute" xMin="124" yMin="-16" xMax="1295" yMax="1770">
      <component glyphName="C" x="0" y="0" flags="0x204"/>
      <component glyphName="acute.case" x="523" y="0" flags="0x4"/>
    </TTGlyph>
    <TTGlyph name="Ccedilla" xMin="124" yMin="-355" xMax="1295" yMax="1431">
      <contour>
        <pt x="656" y="-273" on="1"/>
        <pt x="661" y="-273" on="0"/>
        <pt x="678" y="-284" on="0"/>
        <pt x="705" y="-297" on="0"/>
        <pt x="745" y="-308" on="0"/>
        <pt x="774" y="-308" on="1"/>
        <pt x="825" y="-308" on="0"/>
        <pt x="882" y="-264" on="0"/>
        <pt x="882" y="-226" on="1"/>
        <pt x="882" y="-201" on="0"/>
        <pt x="856" y="-168" on="0"/>
        <pt x="808" y="-146" on="0"/>
        <pt x="743" y="-134" on="0"/>
        <pt x="704" y="-129" on="1"/>
        <pt x="740" y="-14" on="1"/>
        <pt x="603" y="-6" on="0"/>
        <pt x="376" y="104" on="0"/>
        <pt x="214" y="292" on="0"/>
        <pt x="124" y="550" on="0"/>
        <pt x="124" y="708" on="1"/>
        <pt x="124" y="869" on="0"/>
        <pt x="225" y="1135" on="0"/>
        <pt x="408" y="1326" on="0"/>
        <pt x="663" y="1431" on="0"/>
        <pt x="817" y="1431" on="1"/>
        <pt x="894" y="1431" on="0"/>
        <pt x="1022" y="1408" on="0"/>
        <pt x="1133" y="1365" on="0"/>
        <pt x="1231" y="1301" on="0"/>
        <pt x="1278" y="1259" on="1"/>
        <pt x="1247" y="1214" on="1"/>
        <pt x="1239" y="1202" on="0"/>
        <pt x="1222" y="1202" on="1"/>
        <pt x="1213" y="1202" on="0"/>
        <pt x="1185" y="1223" on="0"/>
        <pt x="1142" y="1254" on="0"/>
        <pt x="1081" y="1291" on="0"/>
        <pt x="997" y="1322" on="0"/>
        <pt x="887" y="1343" on="0"/>
        <pt x="817" y="1343" on="1"/>
        <pt x="688" y="1343" on="0"/>
        <pt x="472" y="1254" on="0"/>
        <pt x="316" y="1089" on="0"/>
        <pt x="229" y="854" on="0"/>
        <pt x="229" y="708" on="1"/>
        <pt x="229" y="558" on="0"/>
        <pt x="315" y="322" on="0"/>
        <pt x="467" y="159" on="0"/>
        <pt x="674" y="72" on="0"/>
        <pt x="795" y="72" on="1"/>
        <pt x="871" y="72" on="0"/>
        <pt x="990" y="92" on="0"/>
        <pt x="1090" y="132" on="0"/>
        <pt x="1176" y="190" on="0"/>
        <pt x="1218" y="229" on="1"/>
        <pt x="1223" y="233" on="0"/>
        <pt x="1232" y="238" on="0"/>
        <pt x="1238" y="238" on="1"/>
        <pt x="1248" y="238" on="0"/>
        <pt x="1255" y="231" on="1"/>
        <pt x="1295" y="188" on="1"/>
        <pt x="1251" y="142" on="0"/>
        <pt x="1150" y="68" on="0"/>
        <pt x="1029" y="15" on="0"/>
        <pt x="885" y="-15" on="0"/>
        <pt x="800" y="-16" on="1"/>
        <pt x="777" y="-91" on="1"/>
        <pt x="866" y="-107" on="0"/>
        <pt x="959" y="-167" on="0"/>
        <pt x="959" y="-226" on="1"/>
        <pt x="959" y="-256" on="0"/>
        <pt x="932" y="-304" on="0"/>
        <pt x="883" y="-337" on="0"/>
        <pt x="815" y="-355" on="0"/>
        <pt x="775" y="-355" on="1"/>
        <pt x="734" y="-355" on="0"/>
        <pt x="656" y="-332" on="0"/>
        <pt x="630" y="-313" on="1"/>
        <pt x="640" y="-285" on="1"/>
        <pt x="646" y="-273" on="0"/>
      </contour>
    </TTGlyph>
    <TTGlyph name="D" xMin="210" yMin="0" xMax="1401" yMax="1415">
      <contour>
        <pt x="1401" y="708" on="1"/>
        <pt x="1401" y="544" on="0"/>
        <pt x="1303" y="282" on="0"/>
        <pt x="1125" y="98" on="0"/>
        <pt x="877" y="0" on="0"/>
        <pt x="726" y="0" on="1"/>
        <pt x="210" y="0" on="1"/>
        <pt x="210" y="1415" on="1"/>
        <pt x="726" y="1415" on="1"/>
        <pt x="877" y="1415" on="0"/>
        <pt x="1125" y="1317" on="0"/>
        <pt x="1303" y="1133" on="0"/>
        <pt x="1401" y="871" on="0"/>
      </contour>
      <contour>
        <pt x="1295" y="708" on="1"/>
        <pt x="1295" y="856" on="0"/>
        <pt x="1213" y="1088" on="0"/>
        <pt x="1064" y="1248" on="0"/>
        <pt x="854" y="1332" on="0"/>
        <pt x="726" y="1332" on="1"/>
        <pt x="313" y="1332" on="1"/>
        <pt x="313" y="83" on="1"/>
        <pt x="726" y="83" on="1"/>
        <pt x="854" y="83" on="0"/>
        <pt x="1064" y="167" on="0"/>
        <pt x="1213" y="327" on="0"/>
        <pt x="1295" y="559" on="0"/>
      </contour>
    </TTGlyph>
    <TTGlyph name="Delta" xMin="17" yMin="0" xMax="1287" yMax="1415">
      <contour>
        <pt x="606" y="1415" on="1"/>
        <pt x="698" y="1415" on="1"/>
        <pt x="1287" y="0" on="1"/>
        <pt x="17" y="0" on="1"/>
      </contour>
      <contour>
        <pt x="156" y="83" on="1"/>
        <pt x="1148" y="83" on="1"/>
        <pt x="678" y="1229" on="1"/>
        <pt x="664" y="1262" on="0"/>
        <pt x="652" y="1305" on="1"/>
        <pt x="646" y="1283" on="0"/>
        <pt x="633" y="1245" on="0"/>
        <pt x="626" y="1228" on="1"/>
      </contour>
    </TTGlyph>
    <TTGlyph name="E" xMin="210" yMin="0" xMax="1058" yMax="1415">
      <contour>
        <pt x="1058" y="1415" on="1"/>
        <pt x="1058" y="1330" on="1"/>
        <pt x="313" y="1330" on="1"/>
        <pt x="313" y="758" on="1"/>
        <pt x="933" y="758" on="1"/>
        <pt x="933" y="675" on="1"/>
        <pt x="313" y="675" on="1"/>
        <pt x="313" y="85" on="1"/>
        <pt x="1058" y="85" on="1"/>
        <pt x="1058" y="0" on="1"/>
        <pt x="210" y="0" on="1"/>
        <pt x="210" y="1415" on="1"/>
      </contour>
    </TTGlyph>
    <TTGlyph name="Eacute" xMin="210" yMin="0" xMax="1058" yMax="1770">
      <component glyphName="E" x="0" y="0" flags="0x204"/>
      <component glyphName="acute.case" x="346" y="0" flags="0x4"/>
    </TTGlyph>
    <TTGlyph name="Ecircumflex" xMin="210" yMin="0" xMax="1058" yMax="1741">
      <component glyphName="E" x="0" y="0" flags="0x204"/>
      <component glyphName="circumflex.case" x="351" y="0" flags="0x4"/>
    </TTGlyph>
    <TTGlyph name="Edieresis" xMin="210" yMin="0" xMax="1058" yMax="1747">
      <component glyphName="E" x="0" y="0" flags="0x204"/>
      <component glyphName="dieresis.case" x="351" y="0" flags="0x4"/>
    </TTGlyph>
    <TTGlyph name="Egrave" xMin="210" yMin="0" xMax="1058" yMax="1770">
      <component glyphName="E" x="0" y="0" flags="0x204"/>
      <component glyphName="grave.case" x="346" y="0" flags="0x4"/>
    </TTGlyph>
    <TTGlyph name="Eogonek" xMin="210" yMin="-338" xMax="1089" yMax="1415">
      <contour>
        <pt x="1060" y="-243" on="1"/>
        <pt x="1070" y="-243" on="0"/>
        <pt x="1073" y="-251" on="1"/>
        <pt x="1089" y="-285" on="1"/>
        <pt x="1061" y="-309" on="0"/>
        <pt x="977" y="-338" on="0"/>
        <pt x="930" y="-338" on="1"/>
        <pt x="854" y="-338" on="0"/>
        <pt x="760" y="-263" on="0"/>
        <pt x="760" y="-197" on="1"/>
        <pt x="760" y="-166" on="0"/>
        <pt x="783" y="-110" on="0"/>
        <pt x="821" y="-60" on="0"/>
        <pt x="870" y="-17" on="0"/>
        <pt x="896" y="0" on="1"/>
        <pt x="210" y="0" on="1"/>
        <pt x="210" y="1415" on="1"/>
        <pt x="1058" y="1415" on="1"/>
        <pt x="1058" y="1330" on="1"/>
        <pt x="313" y="1330" on="1"/>
        <pt x="313" y="758" on="1"/>
        <pt x="933" y="758" on="1"/>
        <pt x="933" y="675" on="1"/>
        <pt x="313" y="675" on="1"/>
        <pt x="313" y="85" on="1"/>
        <pt x="1058" y="85" on="1"/>
        <pt x="1058" y="0" on="1"/>
        <pt x="967" y="0" on="1"/>
        <pt x="947" y="-11" on="0"/>
        <pt x="901" y="-45" on="0"/>
        <pt x="861" y="-90" on="0"/>
        <pt x="834" y="-145" on="0"/>
        <pt x="834" y="-176" on="1"/>
        <pt x="834" y="-224" on="0"/>
        <pt x="898" y="-277" on="0"/>
        <pt x="948" y="-277" on="1"/>
        <pt x="976" y="-277" on="0"/>
        <pt x="1014" y="-266" on="0"/>
        <pt x="1040" y="-254" on="0"/>
        <pt x="1055" y="-243" on="0"/>
      </contour>
    </TTGlyph>
    <TTGlyph name="Eth" xMin="49" yMin="0" xMax="1456" yMax="1415">
      <contour>
        <pt x="49" y="749" on="1"/>
        <pt x="265" y="749" on="1"/>
        <pt x="265" y="1415" on="1"/>
        <pt x="781" y="1415" on="1"/>
        <pt x="932" y="1415" on="0"/>
        <pt x="1180" y="1317" on="0"/>
        <pt x="1358" y="1133" on="0"/>
        <pt x="1456" y="871" on="0"/>
        <pt x="1456" y="708" on="1"/>
        <pt x="1456" y="544" on="0"/>
        <pt x="1358" y="282" on="0"/>
        <pt x="1180" y="98" on="0"/>
        <pt x="932" y="0" on="0"/>
        <pt x="781" y="0" on="1"/>
        <pt x="265" y="0" on="1"/>
        <pt x="265" y="685" on="1"/>
        <pt x="49" y="685" on="1"/>
      </contour>
      <contour>
        <pt x="1350" y="708" on="1"/>
        <pt x="1350" y="856" on="0"/>
        <pt x="1268" y="1088" on="0"/>
        <pt x="1119" y="1248" on="0"/>
        <pt x="909" y="1332" on="0"/>
        <pt x="781" y="1332" on="1"/>
        <pt x="368" y="1332" on="1"/>
        <pt x="368" y="749" on="1"/>
        <pt x="772" y="749" on="1"/>
        <pt x="772" y="685" on="1"/>
        <pt x="368" y="685" on="1"/>
        <pt x="368" y="83" on="1"/>
        <pt x="781" y="83" on="1"/>
        <pt x="909" y="83" on="0"/>
        <pt x="1119" y="167" on="0"/>
        <pt x="1268" y="327" on="0"/>
        <pt x="1350" y="559" on="0"/>
      </contour>
    </TTGlyph>
    <TTGlyph name="Euro" xMin="31" yMin="-15" xMax="1135" yMax="1429">
      <contour>
        <pt x="31" y="863" on="1"/>
        <pt x="195" y="863" on="1"/>
        <pt x="211" y="995" on="0"/>
        <pt x="301" y="1205" on="0"/>
        <pt x="439" y="1351" on="0"/>
        <pt x="621" y="1429" on="0"/>
        <pt x="731" y="1429" on="1"/>
        <pt x="795" y="1429" on="0"/>
        <pt x="904" y="1406" on="0"/>
        <pt x="997" y="1362" on="0"/>
        <pt x="1078" y="1297" on="0"/>
        <pt x="1115" y="1254" on="1"/>
        <pt x="1084" y="1219" on="1"/>
        <pt x="1080" y="1214" on="0"/>
        <pt x="1070" y="1207" on="0"/>
        <pt x="1062" y="1207" on="1"/>
        <pt x="1054" y="1207" on="0"/>
        <pt x="1032" y="1228" on="0"/>
        <pt x="998" y="1258" on="0"/>
        <pt x="949" y="1295" on="0"/>
        <pt x="882" y="1325" on="0"/>
        <pt x="793" y="1346" on="0"/>
        <pt x="735" y="1346" on="1"/>
        <pt x="645" y="1346" on="0"/>
        <pt x="495" y="1283" on="0"/>
        <pt x="382" y="1161" on="0"/>
        <pt x="308" y="981" on="0"/>
        <pt x="293" y="863" on="1"/>
        <pt x="895" y="863" on="1"/>
        <pt x="895" y="833" on="1"/>
        <pt x="895" y="822" on="0"/>
        <pt x="880" y="805" on="0"/>
        <pt x="863" y="805" on="1"/>
        <pt x="287" y="805" on="1"/>
        <pt x="284" y="758" on="0"/>
        <pt x="284" y="708" on="1"/>
        <pt x="284" y="687" on="0"/>
        <pt x="285" y="648" on="0"/>
        <pt x="286" y="628" on="1"/>
        <pt x="803" y="628" on="1"/>
        <pt x="803" y="598" on="1"/>
        <pt x="803" y="586" on="0"/>
        <pt x="787" y="569" on="0"/>
        <pt x="772" y="569" on="1"/>
        <pt x="291" y="569" on="1"/>
        <pt x="304" y="445" on="0"/>
        <pt x="376" y="257" on="0"/>
        <pt x="488" y="131" on="0"/>
        <pt x="638" y="67" on="0"/>
        <pt x="728" y="67" on="1"/>
        <pt x="790" y="67" on="0"/>
        <pt x="885" y="91" on="0"/>
        <pt x="957" y="128" on="0"/>
        <pt x="1009" y="171" on="0"/>
        <pt x="1045" y="208" on="0"/>
        <pt x="1070" y="232" on="0"/>
        <pt x="1079" y="232" on="1"/>
        <pt x="1089" y="232" on="0"/>
        <pt x="1098" y="223" on="1"/>
        <pt x="1135" y="188" on="1"/>
        <pt x="1099" y="142" on="0"/>
        <pt x="1015" y="67" on="0"/>
        <pt x="913" y="14" on="0"/>
        <pt x="793" y="-15" on="0"/>
        <pt x="723" y="-15" on="1"/>
        <pt x="610" y="-15" on="0"/>
        <pt x="426" y="63" on="0"/>
        <pt x="291" y="213" on="0"/>
        <pt x="207" y="430" on="0"/>
        <pt x="193" y="569" on="1"/>
        <pt x="31" y="569" on="1"/>
        <pt x="31" y="628" on="1"/>
        <pt x="188" y="628" on="1"/>
        <pt x="187" y="648" on="0"/>
        <pt x="186" y="687" on="0"/>
        <pt x="186" y="708" on="1"/>
        <pt x="186" y="757" on="0"/>
        <pt x="189" y="805" on="1"/>
        <pt x="31" y="805" on="1"/>
      </contour>
    </TTGlyph>
    <TTGlyph name="F" xMin="210" yMin="0" xMax="1058" yMax="1415">
      <contour>
        <pt x="1058" y="1415" on="1"/>
        <pt x="1058" y="1330" on="1"/>
        <pt x="313" y="1330" on="1"/>
        <pt x="313" y="735" on="1"/>
        <pt x="958" y="735" on="1"/>
        <pt x="958" y="650" on="1"/>
        <pt x="313" y="650" on="1"/>
        <pt x="313" y="0" on="1"/>
        <pt x="210" y="0" on="1"/>
        <pt x="210" y="1415" on="1"/>
      </contour>
    </TTGlyph>
    <TTGlyph name="G" xMin="124" yMin="-16" xMax="1347" yMax="1431">
      <contour>
        <pt x="818" y="67" on="1"/>
        <pt x="891" y="67" on="0"/>
        <pt x="1011" y="82" on="0"/>
        <pt x="1114" y="112" on="0"/>
        <pt x="1207" y="155" on="0"/>
        <pt x="1254" y="182" on="1"/>
        <pt x="1254" y="563" on="1"/>
        <pt x="982" y="563" on="1"/>
        <pt x="971" y="563" on="0"/>
        <pt x="956" y="577" on="0"/>
        <pt x="956" y="586" on="1"/>
        <pt x="956" y="642" on="1"/>
        <pt x="1347" y="642" on="1"/>
        <pt x="1347" y="139" on="1"/>
        <pt x="1294" y="102" on="0"/>
        <pt x="1180" y="44" on="0"/>
        <pt x="1050" y="5" on="0"/>
        <pt x="900" y="-16" on="0"/>
        <pt x="811" y="-16" on="1"/>
        <pt x="658" y="-16" on="0"/>
        <pt x="405" y="87" on="0"/>
        <pt x="224" y="276" on="0"/>
        <pt x="124" y="544" on="0"/>
        <pt x="124" y="708" on="1"/>
        <pt x="124" y="872" on="0"/>
        <pt x="224" y="1139" on="0"/>
        <pt x="408" y="1328" on="0"/>
        <pt x="671" y="1431" on="0"/>
        <pt x="834" y="1431" on="1"/>
        <pt x="915" y="1431" on="0"/>
        <pt x="1052" y="1409" on="0"/>
        <pt x="1170" y="1366" on="0"/>
        <pt x="1272" y="1303" on="0"/>
        <pt x="1319" y="1262" on="1"/>
        <pt x="1292" y="1218" on="1"/>
        <pt x="1283" y="1203" on="0"/>
        <pt x="1267" y="1203" on="1"/>
        <pt x="1258" y="1203" on="0"/>
        <pt x="1250" y="1207" on="1"/>
        <pt x="1235" y="1213" on="0"/>
        <pt x="1178" y="1257" on="0"/>
        <pt x="1081" y="1305" on="0"/>
        <pt x="935" y="1343" on="0"/>
        <pt x="831" y="1343" on="1"/>
        <pt x="693" y="1343" on="0"/>
        <pt x="471" y="1255" on="0"/>
        <pt x="314" y="1091" on="0"/>
        <pt x="229" y="855" on="0"/>
        <pt x="229" y="708" on="1"/>
        <pt x="229" y="558" on="0"/>
        <pt x="315" y="320" on="0"/>
        <pt x="470" y="155" on="0"/>
        <pt x="687" y="67" on="0"/>
      </contour>
    </TTGlyph>
    <TTGlyph name="H" xMin="210" yMin="0" xMax="1302" yMax="1415">
      <contour>
        <pt x="1302" y="0" on="1"/>
        <pt x="1199" y="0" on="1"/>
        <pt x="1199" y="678" on="1"/>
        <pt x="313" y="678" on="1"/>
        <pt x="313" y="0" on="1"/>
        <pt x="210" y="0" on="1"/>
        <pt x="210" y="1415" on="1"/>
        <pt x="313" y="1415" on="1"/>
        <pt x="313" y="755" on="1"/>
        <pt x="1199" y="755" on="1"/>
        <pt x="1199" y="1415" on="1"/>
        <pt x="1302" y="1415" on="1"/>
      </contour>
    </TTGlyph>
    <TTGlyph name="I" xMin="247" yMin="0" xMax="350" yMax="1415">
      <contour>
        <pt x="350" y="0" on="1"/>
        <pt x="247" y="0" on="1"/>
        <pt x="247" y="1415" on="1"/>
        <pt x="350" y="1415" on="1"/>
      </contour>
    </TTGlyph>
    <TTGlyph name="Iacute" xMin="189" yMin="0" xMax="590" yMax="1770">
      <component glyphName="I" x="0" y="0" flags="0x204"/>
      <component glyphName="acute.case" x="4" y="0" flags="0x4"/>
    </TTGlyph>
    <TTGlyph name="Icircumflex" xMin="21" yMin="0" xMax="581" yMax="1741">
      <component glyphName="I" x="0" y="0" flags="0x204"/>
      <component glyphName="circumflex.case" x="9" y="0" flags="0x4"/>
    </TTGlyph>
    <TTGlyph name="Idieresis" xMin="12" yMin="0" xMax="590" yMax="1747">
      <component glyphName="I" x="0" y="0" flags="0x204"/>
      <component glyphName="dieresis.case" x="9" y="0" flags="0x4"/>
    </TTGlyph>
    <TTGlyph name="Igrave" xMin="7" yMin="0" xMax="409" yMax="1770">
      <component glyphName="I" x="0" y="0" flags="0x204"/>
      <component glyphName="grave.case" x="4" y="0" flags="0x4"/>
    </TTGlyph>
    <TTGlyph name="J" xMin="89" yMin="-16" xMax="698" yMax="1415">
      <contour>
        <pt x="698" y="472" on="1"/>
        <pt x="698" y="353" on="0"/>
        <pt x="639" y="171" on="0"/>
        <pt x="530" y="47" on="0"/>
        <pt x="373" y="-16" on="0"/>
        <pt x="275" y="-16" on="1"/>
        <pt x="230" y="-16" on="0"/>
        <pt x="138" y="-2" on="0"/>
        <pt x="89" y="13" on="1"/>
        <pt x="91" y="27" on="0"/>
        <pt x="94" y="55" on="0"/>
        <pt x="95" y="69" on="1"/>
        <pt x="97" y="78" on="0"/>
        <pt x="108" y="92" on="0"/>
        <pt x="122" y="92" on="1"/>
        <pt x="131" y="92" on="0"/>
        <pt x="156" y="85" on="0"/>
        <pt x="191" y="77" on="0"/>
        <pt x="236" y="70" on="0"/>
        <pt x="266" y="70" on="1"/>
        <pt x="342" y="70" on="0"/>
        <pt x="464" y="118" on="0"/>
        <pt x="550" y="217" on="0"/>
        <pt x="595" y="368" on="0"/>
        <pt x="595" y="470" on="1"/>
        <pt x="595" y="1415" on="1"/>
        <pt x="698" y="1415" on="1"/>
      </contour>
    </TTGlyph>
    <TTGlyph name="K" xMin="240" yMin="0" xMax="1283" yMax="1417">
      <contour>
        <pt x="342" y="762" on="1"/>
        <pt x="426" y="762" on="1"/>
        <pt x="445" y="762" on="0"/>
        <pt x="473" y="765" on="0"/>
        <pt x="496" y="774" on="0"/>
        <pt x="516" y="788" on="0"/>
        <pt x="527" y="799" on="1"/>
        <pt x="1098" y="1386" on="1"/>
        <pt x="1114" y="1402" on="0"/>
        <pt x="1141" y="1415" on="0"/>
        <pt x="1161" y="1415" on="1"/>
        <pt x="1244" y="1415" on="1"/>
        <pt x="626" y="780" on="1"/>
        <pt x="607" y="760" on="0"/>
        <pt x="578" y="738" on="0"/>
        <pt x="560" y="731" on="1"/>
        <pt x="581" y="725" on="0"/>
        <pt x="614" y="700" on="0"/>
        <pt x="631" y="680" on="1"/>
        <pt x="1283" y="0" on="1"/>
        <pt x="1200" y="0" on="1"/>
        <pt x="1174" y="0" on="0"/>
        <pt x="1152" y="15" on="0"/>
        <pt x="1140" y="27" on="1"/>
        <pt x="541" y="639" on="1"/>
        <pt x="530" y="650" on="0"/>
        <pt x="512" y="666" on="0"/>
        <pt x="489" y="677" on="0"/>
        <pt x="457" y="682" on="0"/>
        <pt x="433" y="682" on="1"/>
        <pt x="342" y="682" on="1"/>
        <pt x="342" y="0" on="1"/>
        <pt x="240" y="0" on="1"/>
        <pt x="240" y="1417" on="1"/>
        <pt x="342" y="1417" on="1"/>
      </contour>
    </TTGlyph>
    <TTGlyph name="L" xMin="210" yMin="0" xMax="983" yMax="1415">
      <contour>
        <pt x="312" y="87" on="1"/>
        <pt x="983" y="87" on="1"/>
        <pt x="983" y="0" on="1"/>
        <pt x="210" y="0" on="1"/>
        <pt x="210" y="1415" on="1"/>
        <pt x="312" y="1415" on="1"/>
      </contour>
    </TTGlyph>
    <TTGlyph name="Lslash" xMin="58" yMin="0" xMax="1026" yMax="1415">
      <contour>
        <pt x="355" y="722" on="1"/>
        <pt x="772" y="939" on="1"/>
        <pt x="772" y="876" on="1"/>
        <pt x="772" y="865" on="0"/>
        <pt x="764" y="851" on="0"/>
        <pt x="753" y="845" on="1"/>
        <pt x="355" y="633" on="1"/>
        <pt x="355" y="87" on="1"/>
        <pt x="1026" y="87" on="1"/>
        <pt x="1026" y="0" on="1"/>
        <pt x="253" y="0" on="1"/>
        <pt x="253" y="587" on="1"/>
        <pt x="58" y="486" on="1"/>
        <pt x="58" y="552" on="1"/>
        <pt x="58" y="571" on="0"/>
        <pt x="76" y="581" on="1"/>
        <pt x="253" y="674" on="1"/>
        <pt x="253" y="1415" on="1"/>
        <pt x="355" y="1415" on="1"/>
      </contour>
    </TTGlyph>
    <TTGlyph name="M" xMin="210" yMin="0" xMax="1608" yMax="1415">
      <contour>
        <pt x="890" y="412" on="1"/>
        <pt x="905" y="384" on="0"/>
        <pt x="916" y="352" on="1"/>
        <pt x="922" y="368" on="0"/>
        <pt x="935" y="399" on="0"/>
        <pt x="943" y="413" on="1"/>
        <pt x="1499" y="1396" on="1"/>
        <pt x="1507" y="1409" on="0"/>
        <pt x="1523" y="1415" on="0"/>
        <pt x="1537" y="1415" on="1"/>
        <pt x="1608" y="1415" on="1"/>
        <pt x="1608" y="0" on="1"/>
        <pt x="1518" y="0" on="1"/>
        <pt x="1518" y="1206" on="1"/>
        <pt x="1518" y="1232" on="0"/>
        <pt x="1521" y="1261" on="1"/>
        <pt x="964" y="272" on="1"/>
        <pt x="950" y="246" on="0"/>
        <pt x="924" y="246" on="1"/>
        <pt x="908" y="246" on="1"/>
        <pt x="883" y="246" on="0"/>
        <pt x="868" y="272" on="1"/>
        <pt x="296" y="1262" on="1"/>
        <pt x="299" y="1233" on="0"/>
        <pt x="299" y="1206" on="1"/>
        <pt x="299" y="0" on="1"/>
        <pt x="210" y="0" on="1"/>
        <pt x="210" y="1415" on="1"/>
        <pt x="280" y="1415" on="1"/>
        <pt x="294" y="1415" on="0"/>
        <pt x="311" y="1409" on="0"/>
        <pt x="319" y="1396" on="1"/>
        <pt x="890" y="412" on="1"/>
      </contour>
    </TTGlyph>
    <TTGlyph name="N" xMin="210" yMin="0" xMax="1302" yMax="1415">
      <contour>
        <pt x="260" y="1415" on="1"/>
        <pt x="274" y="1415" on="0"/>
        <pt x="290" y="1408" on="0"/>
        <pt x="299" y="1396" on="1"/>
        <pt x="1215" y="170" on="1"/>
        <pt x="1212" y="200" on="0"/>
        <pt x="1212" y="228" on="1"/>
        <pt x="1212" y="1415" on="1"/>
        <pt x="1302" y="1415" on="1"/>
        <pt x="1302" y="0" on="1"/>
        <pt x="1253" y="0" on="1"/>
        <pt x="1230" y="0" on="0"/>
        <pt x="1216" y="20" on="1"/>
        <pt x="296" y="1248" on="1"/>
        <pt x="299" y="1218" on="0"/>
        <pt x="299" y="1191" on="1"/>
        <pt x="299" y="0" on="1"/>
        <pt x="210" y="0" on="1"/>
        <pt x="210" y="1415" on="1"/>
        <pt x="260" y="1415" on="1"/>
      </contour>
    </TTGlyph>
    <TTGlyph name="Nacute" xMin="210" yMin="0" xMax="1302" yMax="1770">
      <component glyphName="N" x="0" y="0" flags="0x204"/>
      <component glyphName="acute.case" x="495" y="0" flags="0x4"/>
    </TTGlyph>
    <TTGlyph name="Ntilde" xMin="210" yMin="0" xMax="1302" yMax="1717">
      <component glyphName="N" x="0" y="0" flags="0x204"/>
      <component glyphName="tilde.case" x="500" y="0" flags="0x4"/>
    </TTGlyph>
    <TTGlyph name="O" xMin="123" yMin="-15" xMax="1472" yMax="1431">
      <contour>
        <pt x="1472" y="708" on="1"/>
        <pt x="1472" y="544" on="0"/>
        <pt x="1374" y="277" on="0"/>
        <pt x="1196" y="88" on="0"/>
        <pt x="948" y="-15" on="0"/>
        <pt x="797" y="-15" on="1"/>
        <pt x="648" y="-15" on="0"/>
        <pt x="400" y="88" on="0"/>
        <pt x="222" y="277" on="0"/>
        <pt x="123" y="544" on="0"/>
        <pt x="123" y="708" on="1"/>
        <pt x="123" y="871" on="0"/>
        <pt x="222" y="1138" on="0"/>
        <pt x="400" y="1327" on="0"/>
        <pt x="648" y="1431" on="0"/>
        <pt x="797" y="1431" on="1"/>
        <pt x="948" y="1431" on="0"/>
        <pt x="1196" y="1328" on="0"/>
        <pt x="1374" y="1138" on="0"/>
        <pt x="1472" y="871" on="0"/>
      </contour>
      <contour>
        <pt x="1366" y="708" on="1"/>
        <pt x="1366" y="856" on="0"/>
        <pt x="1284" y="1092" on="0"/>
        <pt x="1135" y="1256" on="0"/>
        <pt x="925" y="1343" on="0"/>
        <pt x="797" y="1343" on="1"/>
        <pt x="671" y="1343" on="0"/>
        <pt x="462" y="1256" on="0"/>
        <pt x="311" y="1092" on="0"/>
        <pt x="228" y="856" on="0"/>
        <pt x="228" y="708" on="1"/>
        <pt x="228" y="559" on="0"/>
        <pt x="311" y="324" on="0"/>
        <pt x="462" y="160" on="0"/>
        <pt x="671" y="74" on="0"/>
        <pt x="797" y="74" on="1"/>
        <pt x="925" y="74" on="0"/>
        <pt x="1135" y="160" on="0"/>
        <pt x="1284" y="324" on="0"/>
        <pt x="1366" y="559" on="0"/>
      </contour>
    </TTGlyph>
    <TTGlyph name="OE" xMin="123" yMin="-13" xMax="2103" yMax="1431">
      <contour>
        <pt x="2103" y="1330" on="1"/>
        <pt x="1358" y="1330" on="1"/>
        <pt x="1358" y="758" on="1"/>
        <pt x="1978" y="758" on="1"/>
        <pt x="1978" y="675" on="1"/>
        <pt x="1358" y="675" on="1"/>
        <pt x="1358" y="85" on="1"/>
        <pt x="2103" y="85" on="1"/>
        <pt x="2103" y="0" on="1"/>
        <pt x="1266" y="0" on="1"/>
        <pt x="1266" y="334" on="1"/>
        <pt x="1229" y="252" on="0"/>
        <pt x="1122" y="123" on="0"/>
        <pt x="986" y="34" on="0"/>
        <pt x="823" y="-13" on="0"/>
        <pt x="730" y="-13" on="1"/>
        <pt x="595" y="-13" on="0"/>
        <pt x="372" y="89" on="0"/>
        <pt x="212" y="278" on="0"/>
        <pt x="123" y="544" on="0"/>
        <pt x="123" y="708" on="1"/>
        <pt x="123" y="871" on="0"/>
        <pt x="212" y="1138" on="0"/>
        <pt x="372" y="1327" on="0"/>
        <pt x="595" y="1431" on="0"/>
        <pt x="730" y="1431" on="1"/>
        <pt x="823" y="1431" on="0"/>
        <pt x="986" y="1383" on="0"/>
        <pt x="1122" y="1293" on="0"/>
        <pt x="1229" y="1164" on="0"/>
        <pt x="1266" y="1082" on="1"/>
        <pt x="1266" y="1415" on="1"/>
        <pt x="2103" y="1415" on="1"/>
      </contour>
      <contour>
        <pt x="1255" y="708" on="1"/>
        <pt x="1255" y="856" on="0"/>
        <pt x="1181" y="1092" on="0"/>
        <pt x="1046" y="1257" on="0"/>
        <pt x="857" y="1345" on="0"/>
        <pt x="742" y="1345" on="1"/>
        <pt x="628" y="1345" on="0"/>
        <pt x="438" y="1257" on="0"/>
        <pt x="303" y="1092" on="0"/>
        <pt x="228" y="856" on="0"/>
        <pt x="228" y="708" on="1"/>
        <pt x="228" y="559" on="0"/>
        <pt x="303" y="323" on="0"/>
        <pt x="438" y="160" on="0"/>
        <pt x="628" y="73" on="0"/>
        <pt x="742" y="73" on="1"/>
        <pt x="857" y="73" on="0"/>
        <pt x="1046" y="160" on="0"/>
        <pt x="1181" y="323" on="0"/>
        <pt x="1255" y="559" on="0"/>
      </contour>
    </TTGlyph>
    <TTGlyph name="Oacute" xMin="123" yMin="-15" xMax="1472" yMax="1770">
      <component glyphName="O" x="0" y="0" flags="0x204"/>
      <component glyphName="acute.case" x="502" y="0" flags="0x4"/>
    </TTGlyph>
    <TTGlyph name="Ocircumflex" xMin="123" yMin="-15" xMax="1472" yMax="1741">
      <component glyphName="O" x="0" y="0" flags="0x204"/>
      <component glyphName="circumflex.case" x="507" y="0" flags="0x4"/>
    </TTGlyph>
    <TTGlyph name="Odieresis" xMin="123" yMin="-15" xMax="1472" yMax="1747">
      <component glyphName="O" x="0" y="0" flags="0x204"/>
      <component glyphName="dieresis.case" x="507" y="0" flags="0x4"/>
    </TTGlyph>
    <TTGlyph name="Ograve" xMin="123" yMin="-15" xMax="1472" yMax="1770">
      <component glyphName="O" x="0" y="0" flags="0x204"/>
      <component glyphName="grave.case" x="502" y="0" flags="0x4"/>
    </TTGlyph>
    <TTGlyph name="Omega" xMin="104" yMin="0" xMax="1405" yMax="1431">
      <contour>
        <pt x="867" y="0" on="1"/>
        <pt x="867" y="363" on="1"/>
        <pt x="963" y="383" on="0"/>
        <pt x="1121" y="462" on="0"/>
        <pt x="1235" y="581" on="0"/>
        <pt x="1297" y="742" on="0"/>
        <pt x="1297" y="845" on="1"/>
        <pt x="1297" y="971" on="0"/>
        <pt x="1211" y="1159" on="0"/>
        <pt x="1063" y="1285" on="0"/>
        <pt x="866" y="1348" on="0"/>
        <pt x="755" y="1348" on="1"/>
        <pt x="644" y="1348" on="0"/>
        <pt x="447" y="1285" on="0"/>
        <pt x="299" y="1159" on="0"/>
        <pt x="213" y="971" on="0"/>
        <pt x="213" y="845" on="1"/>
        <pt x="213" y="742" on="0"/>
        <pt x="275" y="581" on="0"/>
        <pt x="388" y="462" on="0"/>
        <pt x="546" y="383" on="0"/>
        <pt x="642" y="363" on="1"/>
        <pt x="642" y="0" on="1"/>
        <pt x="141" y="0" on="1"/>
        <pt x="124" y="0" on="0"/>
        <pt x="104" y="20" on="0"/>
        <pt x="104" y="36" on="1"/>
        <pt x="104" y="88" on="1"/>
        <pt x="561" y="88" on="1"/>
        <pt x="561" y="310" on="1"/>
        <pt x="463" y="332" on="0"/>
        <pt x="297" y="424" on="0"/>
        <pt x="176" y="560" on="0"/>
        <pt x="108" y="740" on="0"/>
        <pt x="108" y="849" on="1"/>
        <pt x="108" y="986" on="0"/>
        <pt x="209" y="1202" on="0"/>
        <pt x="385" y="1352" on="0"/>
        <pt x="620" y="1431" on="0"/>
        <pt x="755" y="1431" on="1"/>
        <pt x="890" y="1431" on="0"/>
        <pt x="1125" y="1352" on="0"/>
        <pt x="1300" y="1202" on="0"/>
        <pt x="1401" y="986" on="0"/>
        <pt x="1401" y="849" on="1"/>
        <pt x="1401" y="740" on="0"/>
        <pt x="1333" y="560" on="0"/>
        <pt x="1213" y="424" on="0"/>
        <pt x="1047" y="332" on="0"/>
        <pt x="949" y="310" on="1"/>
        <pt x="949" y="88" on="1"/>
        <pt x="1405" y="88" on="1"/>
        <pt x="1405" y="36" on="1"/>
        <pt x="1405" y="20" on="0"/>
        <pt x="1385" y="0" on="0"/>
        <pt x="1368" y="0" on="1"/>
      </contour>
    </TTGlyph>
    <TTGlyph name="Oslash" xMin="123" yMin="-105" xMax="1472" yMax="1480">
      <contour>
        <pt x="1472" y="708" on="1"/>
        <pt x="1472" y="544" on="0"/>
        <pt x="1374" y="277" on="0"/>
        <pt x="1196" y="88" on="0"/>
        <pt x="948" y="-15" on="0"/>
        <pt x="797" y="-15" on="1"/>
        <pt x="682" y="-15" on="0"/>
        <pt x="483" y="46" on="0"/>
        <pt x="402" y="103" on="1"/>
        <pt x="271" y="-73" on="1"/>
        <pt x="258" y="-90" on="0"/>
        <pt x="226" y="-105" on="0"/>
        <pt x="209" y="-105" on="1"/>
        <pt x="165" y="-105" on="1"/>
        <pt x="350" y="144" on="1"/>
        <pt x="242" y="240" on="0"/>
        <pt x="123" y="525" on="0"/>
        <pt x="123" y="708" on="1"/>
        <pt x="123" y="871" on="0"/>
        <pt x="222" y="1138" on="0"/>
        <pt x="400" y="1327" on="0"/>
        <pt x="648" y="1431" on="0"/>
        <pt x="797" y="1431" on="1"/>
        <pt x="918" y="1431" on="0"/>
        <pt x="1126" y="1364" on="0"/>
        <pt x="1209" y="1301" on="1"/>
        <pt x="1320" y="1450" on="1"/>
        <pt x="1332" y="1466" on="0"/>
        <pt x="1350" y="1480" on="0"/>
        <pt x="1370" y="1480" on="1"/>
        <pt x="1425" y="1480" on="1"/>
        <pt x="1260" y="1258" on="1"/>
        <pt x="1361" y="1162" on="0"/>
        <pt x="1472" y="884" on="0"/>
      </contour>
      <contour>
        <pt x="228" y="708" on="1"/>
        <pt x="228" y="548" on="0"/>
        <pt x="322" y="303" on="0"/>
        <pt x="407" y="221" on="1"/>
        <pt x="1153" y="1226" on="1"/>
        <pt x="1082" y="1283" on="0"/>
        <pt x="903" y="1343" on="0"/>
        <pt x="797" y="1343" on="1"/>
        <pt x="671" y="1343" on="0"/>
        <pt x="462" y="1256" on="0"/>
        <pt x="311" y="1092" on="0"/>
        <pt x="228" y="856" on="0"/>
      </contour>
      <contour>
        <pt x="1366" y="708" on="1"/>
        <pt x="1366" y="860" on="0"/>
        <pt x="1280" y="1098" on="0"/>
        <pt x="1202" y="1180" on="1"/>
        <pt x="457" y="178" on="1"/>
        <pt x="526" y="127" on="0"/>
        <pt x="697" y="74" on="0"/>
        <pt x="797" y="74" on="1"/>
        <pt x="925" y="74" on="0"/>
        <pt x="1135" y="160" on="0"/>
        <pt x="1284" y="324" on="0"/>
        <pt x="1366" y="559" on="0"/>
      </contour>
    </TTGlyph>
    <TTGlyph name="Otilde" xMin="123" yMin="-15" xMax="1472" yMax="1717">
      <component glyphName="O" x="0" y="0" flags="0x204"/>
      <component glyphName="tilde.case" x="507" y="0" flags="0x4"/>
    </TTGlyph>
    <TTGlyph name="P" xMin="240" yMin="0" xMax="1107" yMax="1415">
      <contour>
        <pt x="342" y="570" on="1"/>
        <pt x="342" y="0" on="1"/>
        <pt x="240" y="0" on="1"/>
        <pt x="240" y="1415" on="1"/>
        <pt x="605" y="1415" on="1"/>
        <pt x="854" y="1415" on="0"/>
        <pt x="1107" y="1197" on="0"/>
        <pt x="1107" y="995" on="1"/>
        <pt x="1107" y="902" on="0"/>
        <pt x="1038" y="746" on="0"/>
        <pt x="908" y="633" on="0"/>
        <pt x="722" y="570" on="0"/>
        <pt x="605" y="570" on="1"/>
      </contour>
      <contour>
        <pt x="342" y="652" on="1"/>
        <pt x="605" y="652" on="1"/>
        <pt x="699" y="652" on="0"/>
        <pt x="847" y="704" on="0"/>
        <pt x="950" y="796" on="0"/>
        <pt x="1005" y="921" on="0"/>
        <pt x="1005" y="995" on="1"/>
        <pt x="1005" y="1158" on="0"/>
        <pt x="804" y="1334" on="0"/>
        <pt x="605" y="1334" on="1"/>
        <pt x="342" y="1334" on="1"/>
      </contour>
    </TTGlyph>
    <TTGlyph name="Q" xMin="123" yMin="-312" xMax="1530" yMax="1431">
      <contour>
        <pt x="1472" y="708" on="1"/>
        <pt x="1472" y="601" on="0"/>
        <pt x="1429" y="412" on="0"/>
        <pt x="1349" y="253" on="0"/>
        <pt x="1234" y="127" on="0"/>
        <pt x="1162" y="82" on="1"/>
        <pt x="1530" y="-312" on="1"/>
        <pt x="1444" y="-312" on="1"/>
        <pt x="1424" y="-312" on="0"/>
        <pt x="1392" y="-301" on="0"/>
        <pt x="1380" y="-287" on="1"/>
        <pt x="1078" y="39" on="1"/>
        <pt x="1015" y="13" on="0"/>
        <pt x="875" y="-15" on="0"/>
        <pt x="797" y="-15" on="1"/>
        <pt x="648" y="-15" on="0"/>
        <pt x="400" y="88" on="0"/>
        <pt x="222" y="277" on="0"/>
        <pt x="123" y="544" on="0"/>
        <pt x="123" y="708" on="1"/>
        <pt x="123" y="871" on="0"/>
        <pt x="222" y="1138" on="0"/>
        <pt x="400" y="1327" on="0"/>
        <pt x="648" y="1431" on="0"/>
        <pt x="797" y="1431" on="1"/>
        <pt x="948" y="1431" on="0"/>
        <pt x="1196" y="1328" on="0"/>
        <pt x="1374" y="1138" on="0"/>
        <pt x="1472" y="871" on="0"/>
      </contour>
      <contour>
        <pt x="1366" y="708" on="1"/>
        <pt x="1366" y="856" on="0"/>
        <pt x="1284" y="1092" on="0"/>
        <pt x="1135" y="1256" on="0"/>
        <pt x="925" y="1343" on="0"/>
        <pt x="797" y="1343" on="1"/>
        <pt x="671" y="1343" on="0"/>
        <pt x="462" y="1256" on="0"/>
        <pt x="311" y="1092" on="0"/>
        <pt x="228" y="856" on="0"/>
        <pt x="228" y="708" on="1"/>
        <pt x="228" y="559" on="0"/>
        <pt x="311" y="324" on="0"/>
        <pt x="462" y="160" on="0"/>
        <pt x="671" y="74" on="0"/>
        <pt x="797" y="74" on="1"/>
        <pt x="925" y="74" on="0"/>
        <pt x="1135" y="160" on="0"/>
        <pt x="1284" y="324" on="0"/>
        <pt x="1366" y="559" on="0"/>
      </contour>
    </TTGlyph>
    <TTGlyph name="R" xMin="240" yMin="0" xMax="1216" yMax="1415">
      <contour>
        <pt x="342" y="640" on="1"/>
        <pt x="342" y="0" on="1"/>
        <pt x="240" y="0" on="1"/>
        <pt x="240" y="1415" on="1"/>
        <pt x="601" y="1415" on="1"/>
        <pt x="846" y="1415" on="0"/>
        <pt x="1088" y="1226" on="0"/>
        <pt x="1088" y="1043" on="1"/>
        <pt x="1088" y="962" on="0"/>
        <pt x="1032" y="828" on="0"/>
        <pt x="927" y="727" on="0"/>
        <pt x="779" y="662" on="0"/>
        <pt x="686" y="652" on="1"/>
        <pt x="710" y="637" on="0"/>
        <pt x="729" y="612" on="1"/>
        <pt x="1216" y="0" on="1"/>
        <pt x="1127" y="0" on="1"/>
        <pt x="1111" y="0" on="0"/>
        <pt x="1088" y="12" on="0"/>
        <pt x="1077" y="26" on="1"/>
        <pt x="624" y="600" on="1"/>
        <pt x="607" y="622" on="0"/>
        <pt x="568" y="640" on="0"/>
        <pt x="527" y="640" on="1"/>
      </contour>
      <contour>
        <pt x="342" y="716" on="1"/>
        <pt x="588" y="716" on="1"/>
        <pt x="682" y="716" on="0"/>
        <pt x="831" y="761" on="0"/>
        <pt x="934" y="845" on="0"/>
        <pt x="988" y="963" on="0"/>
        <pt x="988" y="1037" on="1"/>
        <pt x="988" y="1188" on="0"/>
        <pt x="790" y="1334" on="0"/>
        <pt x="601" y="1334" on="1"/>
        <pt x="342" y="1334" on="1"/>
      </contour>
    </TTGlyph>
    <TTGlyph name="S" xMin="87" yMin="-16" xMax="958" yMax="1431">
      <contour>
        <pt x="894" y="1243" on="1"/>
        <pt x="885" y="1226" on="0"/>
        <pt x="868" y="1226" on="1"/>
        <pt x="855" y="1226" on="0"/>
        <pt x="814" y="1263" on="0"/>
        <pt x="744" y="1308" on="0"/>
        <pt x="639" y="1346" on="0"/>
        <pt x="562" y="1346" on="1"/>
        <pt x="485" y="1346" on="0"/>
        <pt x="368" y="1302" on="0"/>
        <pt x="289" y="1226" on="0"/>
        <pt x="248" y="1126" on="0"/>
        <pt x="248" y="1071" on="1"/>
        <pt x="248" y="999" on="0"/>
        <pt x="309" y="905" on="0"/>
        <pt x="409" y="839" on="0"/>
        <pt x="536" y="794" on="0"/>
        <pt x="670" y="750" on="0"/>
        <pt x="797" y="697" on="0"/>
        <pt x="897" y="617" on="0"/>
        <pt x="958" y="500" on="0"/>
        <pt x="958" y="413" on="1"/>
        <pt x="958" y="324" on="0"/>
        <pt x="897" y="167" on="0"/>
        <pt x="781" y="51" on="0"/>
        <pt x="613" y="-16" on="0"/>
        <pt x="505" y="-16" on="1"/>
        <pt x="365" y="-16" on="0"/>
        <pt x="163" y="83" on="0"/>
        <pt x="87" y="169" on="1"/>
        <pt x="115" y="213" on="1"/>
        <pt x="127" y="228" on="0"/>
        <pt x="143" y="228" on="1"/>
        <pt x="152" y="228" on="0"/>
        <pt x="180" y="204" on="0"/>
        <pt x="220" y="169" on="0"/>
        <pt x="276" y="128" on="0"/>
        <pt x="350" y="93" on="0"/>
        <pt x="446" y="69" on="0"/>
        <pt x="507" y="69" on="1"/>
        <pt x="591" y="69" on="0"/>
        <pt x="723" y="120" on="0"/>
        <pt x="814" y="208" on="0"/>
        <pt x="862" y="329" on="0"/>
        <pt x="862" y="398" on="1"/>
        <pt x="862" y="473" on="0"/>
        <pt x="801" y="570" on="0"/>
        <pt x="701" y="635" on="0"/>
        <pt x="574" y="679" on="0"/>
        <pt x="440" y="721" on="0"/>
        <pt x="313" y="773" on="0"/>
        <pt x="213" y="854" on="0"/>
        <pt x="152" y="975" on="0"/>
        <pt x="152" y="1066" on="1"/>
        <pt x="152" y="1137" on="0"/>
        <pt x="206" y="1269" on="0"/>
        <pt x="310" y="1370" on="0"/>
        <pt x="463" y="1431" on="0"/>
        <pt x="561" y="1431" on="1"/>
        <pt x="671" y="1431" on="0"/>
        <pt x="846" y="1361" on="0"/>
        <pt x="918" y="1289" on="1"/>
      </contour>
    </TTGlyph>
    <TTGlyph name="Sacute" xMin="87" yMin="-16" xMax="958" yMax="1770">
      <component glyphName="S" x="0" y="0" flags="0x4"/>
      <component glyphName="acute.case" x="267" y="0" flags="0x4"/>
    </TTGlyph>
    <TTGlyph name="Scaron" xMin="87" yMin="-16" xMax="958" yMax="1741">
      <component glyphName="S" x="0" y="0" flags="0x204"/>
      <component glyphName="caron.case" x="281" y="0" flags="0x4"/>
    </TTGlyph>
    <TTGlyph name="T" xMin="35" yMin="0" xMax="1134" yMax="1415">
      <contour>
        <pt x="1134" y="1415" on="1"/>
        <pt x="1134" y="1328" on="1"/>
        <pt x="637" y="1328" on="1"/>
        <pt x="637" y="0" on="1"/>
        <pt x="535" y="0" on="1"/>
        <pt x="535" y="1328" on="1"/>
        <pt x="35" y="1328" on="1"/>
        <pt x="35" y="1415" on="1"/>
      </contour>
    </TTGlyph>
    <TTGlyph name="Thorn" xMin="240" yMin="0" xMax="1107" yMax="1415">
      <contour>
        <pt x="342" y="286" on="1"/>
        <pt x="342" y="0" on="1"/>
        <pt x="240" y="0" on="1"/>
        <pt x="240" y="1415" on="1"/>
        <pt x="342" y="1415" on="1"/>
        <pt x="342" y="1131" on="1"/>
        <pt x="605" y="1131" on="1"/>
        <pt x="854" y="1131" on="0"/>
        <pt x="1107" y="913" on="0"/>
        <pt x="1107" y="711" on="1"/>
        <pt x="1107" y="618" on="0"/>
        <pt x="1038" y="462" on="0"/>
        <pt x="908" y="349" on="0"/>
        <pt x="722" y="286" on="0"/>
        <pt x="605" y="286" on="1"/>
      </contour>
      <contour>
        <pt x="342" y="368" on="1"/>
        <pt x="605" y="368" on="1"/>
        <pt x="699" y="368" on="0"/>
        <pt x="847" y="420" on="0"/>
        <pt x="950" y="512" on="0"/>
        <pt x="1005" y="637" on="0"/>
        <pt x="1005" y="711" on="1"/>
        <pt x="1005" y="874" on="0"/>
        <pt x="804" y="1049" on="0"/>
        <pt x="605" y="1049" on="1"/>
        <pt x="342" y="1049" on="1"/>
      </contour>
    </TTGlyph>
    <TTGlyph name="U" xMin="197" yMin="-17" xMax="1269" yMax="1415">
      <contour>
        <pt x="733" y="73" on="1"/>
        <pt x="835" y="73" on="0"/>
        <pt x="996" y="144" on="0"/>
        <pt x="1108" y="270" on="0"/>
        <pt x="1167" y="441" on="0"/>
        <pt x="1167" y="540" on="1"/>
        <pt x="1167" y="1415" on="1"/>
        <pt x="1269" y="1415" on="1"/>
        <pt x="1269" y="540" on="1"/>
        <pt x="1269" y="423" on="0"/>
        <pt x="1195" y="220" on="0"/>
        <pt x="1056" y="69" on="0"/>
        <pt x="857" y="-17" on="0"/>
        <pt x="733" y="-17" on="1"/>
        <pt x="609" y="-17" on="0"/>
        <pt x="410" y="69" on="0"/>
        <pt x="271" y="220" on="0"/>
        <pt x="197" y="423" on="0"/>
        <pt x="197" y="540" on="1"/>
        <pt x="197" y="1415" on="1"/>
        <pt x="300" y="1415" on="1"/>
        <pt x="300" y="541" on="1"/>
        <pt x="300" y="442" on="0"/>
        <pt x="359" y="271" on="0"/>
        <pt x="470" y="145" on="0"/>
        <pt x="631" y="73" on="0"/>
      </contour>
    </TTGlyph>
    <TTGlyph name="Uacute" xMin="197" yMin="-17" xMax="1269" yMax="1770">
      <component glyphName="U" x="0" y="0" flags="0x204"/>
      <component glyphName="acute.case" x="436" y="0" flags="0x4"/>
    </TTGlyph>
    <TTGlyph name="Ucircumflex" xMin="197" yMin="-17" xMax="1269" yMax="1741">
      <component glyphName="U" x="0" y="0" flags="0x204"/>
      <component glyphName="circumflex.case" x="441" y="0" flags="0x4"/>
    </TTGlyph>
    <TTGlyph name="Udieresis" xMin="197" yMin="-17" xMax="1269" yMax="1747">
      <component glyphName="U" x="0" y="0" flags="0x204"/>
      <component glyphName="dieresis.case" x="441" y="0" flags="0x4"/>
    </TTGlyph>
    <TTGlyph name="Ugrave" xMin="197" yMin="-17" xMax="1269" yMax="1770">
      <component glyphName="U" x="0" y="0" flags="0x204"/>
      <component glyphName="grave.case" x="436" y="0" flags="0x4"/>
    </TTGlyph>
    <TTGlyph name="V" xMin="15" yMin="0" xMax="1274" yMax="1415">
      <contour>
        <pt x="15" y="1415" on="1"/>
        <pt x="96" y="1415" on="1"/>
        <pt x="110" y="1415" on="0"/>
        <pt x="128" y="1400" on="0"/>
        <pt x="133" y="1388" on="1"/>
        <pt x="615" y="214" on="1"/>
        <pt x="634" y="168" on="0"/>
        <pt x="646" y="116" on="1"/>
        <pt x="657" y="170" on="0"/>
        <pt x="675" y="214" on="1"/>
        <pt x="1156" y="1388" on="1"/>
        <pt x="1161" y="1399" on="0"/>
        <pt x="1180" y="1415" on="0"/>
        <pt x="1194" y="1415" on="1"/>
        <pt x="1274" y="1415" on="1"/>
        <pt x="690" y="0" on="1"/>
        <pt x="599" y="0" on="1"/>
      </contour>
    </TTGlyph>
    <TTGlyph name="W" xMin="17" yMin="0" xMax="1956" yMax="1415">
      <contour>
        <pt x="17" y="1415" on="1"/>
        <pt x="102" y="1415" on="1"/>
        <pt x="131" y="1415" on="0"/>
        <pt x="139" y="1388" on="1"/>
        <pt x="496" y="225" on="1"/>
        <pt x="502" y="205" on="0"/>
        <pt x="511" y="159" on="0"/>
        <pt x="516" y="134" on="1"/>
        <pt x="521" y="159" on="0"/>
        <pt x="531" y="205" on="0"/>
        <pt x="538" y="225" on="1"/>
        <pt x="938" y="1388" on="1"/>
        <pt x="942" y="1399" on="0"/>
        <pt x="962" y="1415" on="0"/>
        <pt x="976" y="1415" on="1"/>
        <pt x="1004" y="1415" on="1"/>
        <pt x="1018" y="1415" on="0"/>
        <pt x="1036" y="1400" on="0"/>
        <pt x="1041" y="1388" on="1"/>
        <pt x="1441" y="225" on="1"/>
        <pt x="1448" y="205" on="0"/>
        <pt x="1459" y="161" on="0"/>
        <pt x="1464" y="136" on="1"/>
        <pt x="1469" y="160" on="0"/>
        <pt x="1477" y="205" on="0"/>
        <pt x="1483" y="225" on="1"/>
        <pt x="1840" y="1388" on="1"/>
        <pt x="1843" y="1399" on="0"/>
        <pt x="1864" y="1415" on="0"/>
        <pt x="1878" y="1415" on="1"/>
        <pt x="1956" y="1415" on="1"/>
        <pt x="1511" y="0" on="1"/>
        <pt x="1419" y="0" on="1"/>
        <pt x="1001" y="1228" on="1"/>
        <pt x="993" y="1252" on="0"/>
        <pt x="987" y="1279" on="1"/>
        <pt x="981" y="1252" on="0"/>
        <pt x="973" y="1228" on="1"/>
        <pt x="554" y="0" on="1"/>
        <pt x="463" y="0" on="1"/>
      </contour>
    </TTGlyph>
    <TTGlyph name="X" xMin="17" yMin="0" xMax="1181" yMax="1415">
      <contour>
        <pt x="528" y="726" on="1"/>
        <pt x="40" y="1415" on="1"/>
        <pt x="141" y="1415" on="1"/>
        <pt x="155" y="1415" on="0"/>
        <pt x="168" y="1403" on="0"/>
        <pt x="173" y="1395" on="1"/>
        <pt x="603" y="775" on="1"/>
        <pt x="606" y="783" on="0"/>
        <pt x="613" y="798" on="0"/>
        <pt x="618" y="806" on="1"/>
        <pt x="1033" y="1394" on="1"/>
        <pt x="1039" y="1402" on="0"/>
        <pt x="1053" y="1415" on="0"/>
        <pt x="1063" y="1415" on="1"/>
        <pt x="1161" y="1415" on="1"/>
        <pt x="672" y="731" on="1"/>
        <pt x="1181" y="0" on="1"/>
        <pt x="1080" y="0" on="1"/>
        <pt x="1066" y="0" on="0"/>
        <pt x="1050" y="17" on="0"/>
        <pt x="1045" y="25" on="1"/>
        <pt x="599" y="677" on="1"/>
        <pt x="595" y="662" on="0"/>
        <pt x="585" y="648" on="1"/>
        <pt x="147" y="25" on="1"/>
        <pt x="140" y="16" on="0"/>
        <pt x="122" y="0" on="0"/>
        <pt x="110" y="0" on="1"/>
        <pt x="17" y="0" on="1"/>
      </contour>
    </TTGlyph>
    <TTGlyph name="Y" xMin="25" yMin="0" xMax="1174" yMax="1415">
      <contour>
        <pt x="651" y="584" on="1"/>
        <pt x="651" y="0" on="1"/>
        <pt x="548" y="0" on="1"/>
        <pt x="548" y="584" on="1"/>
        <pt x="25" y="1415" on="1"/>
        <pt x="114" y="1415" on="1"/>
        <pt x="128" y="1415" on="0"/>
        <pt x="145" y="1402" on="0"/>
        <pt x="153" y="1390" on="1"/>
        <pt x="558" y="740" on="1"/>
        <pt x="572" y="717" on="0"/>
        <pt x="592" y="674" on="0"/>
        <pt x="600" y="652" on="1"/>
        <pt x="608" y="674" on="0"/>
        <pt x="628" y="717" on="0"/>
        <pt x="642" y="740" on="1"/>
        <pt x="1046" y="1390" on="1"/>
        <pt x="1052" y="1401" on="0"/>
        <pt x="1070" y="1415" on="0"/>
        <pt x="1084" y="1415" on="1"/>
        <pt x="1174" y="1415" on="1"/>
      </contour>
    </TTGlyph>
    <TTGlyph name="Yacute" xMin="25" yMin="0" xMax="1174" yMax="1770">
      <component glyphName="Y" x="0" y="0" flags="0x204"/>
      <component glyphName="acute.case" x="303" y="0" flags="0x4"/>
    </TTGlyph>
    <TTGlyph name="Ydieresis" xMin="25" yMin="0" xMax="1174" yMax="1747">
      <component glyphName="Y" x="0" y="0" flags="0x204"/>
      <component glyphName="dieresis.case" x="308" y="0" flags="0x4"/>
    </TTGlyph>
    <TTGlyph name="Z" xMin="115" yMin="0" xMax="1163" yMax="1415">
      <contour>
        <pt x="1163" y="1415" on="1"/>
        <pt x="1163" y="1380" on="1"/>
        <pt x="1163" y="1359" on="0"/>
        <pt x="1149" y="1339" on="1"/>
        <pt x="251" y="85" on="1"/>
        <pt x="1155" y="85" on="1"/>
        <pt x="1155" y="0" on="1"/>
        <pt x="115" y="0" on="1"/>
        <pt x="115" y="37" on="1"/>
        <pt x="115" y="56" on="0"/>
        <pt x="127" y="73" on="1"/>
        <pt x="1027" y="1330" on="1"/>
        <pt x="141" y="1330" on="1"/>
        <pt x="141" y="1415" on="1"/>
      </contour>
    </TTGlyph>
    <TTGlyph name="Zacute" xMin="115" yMin="0" xMax="1163" yMax="1770">
      <component glyphName="Z" x="0" y="0" flags="0x204"/>
      <component glyphName="acute.case" x="360" y="0" flags="0x4"/>
    </TTGlyph>
    <TTGlyph name="Zcaron" xMin="115" yMin="0" xMax="1163" yMax="1741">
      <component glyphName="Z" x="0" y="0" flags="0x204"/>
      <component glyphName="caron.case" x="363" y="0" flags="0x4"/>
    </TTGlyph>
    <TTGlyph name="Zdotaccent" xMin="115" yMin="0" xMax="1163" yMax="1764">
      <component glyphName="Z" x="0" y="0" flags="0x204"/>
      <component glyphName="dotaccent.case" x="363" y="0" flags="0x4"/>
    </TTGlyph>
    <TTGlyph name="a" xMin="107" yMin="-16" xMax="835" yMax="1012">
      <contour>
        <pt x="797" y="0" on="1"/>
        <pt x="767" y="0" on="0"/>
        <pt x="760" y="28" on="1"/>
        <pt x="746" y="155" on="1"/>
        <pt x="705" y="115" on="0"/>
        <pt x="624" y="51" on="0"/>
        <pt x="536" y="7" on="0"/>
        <pt x="434" y="-16" on="0"/>
        <pt x="373" y="-16" on="1"/>
        <pt x="322" y="-16" on="0"/>
        <pt x="226" y="14" on="0"/>
        <pt x="152" y="76" on="0"/>
        <pt x="107" y="173" on="0"/>
        <pt x="107" y="241" on="1"/>
        <pt x="107" y="304" on="0"/>
        <pt x="179" y="412" on="0"/>
        <pt x="332" y="492" on="0"/>
        <pt x="573" y="540" on="0"/>
        <pt x="742" y="544" on="1"/>
        <pt x="742" y="648" on="1"/>
        <pt x="742" y="786" on="0"/>
        <pt x="623" y="935" on="0"/>
        <pt x="506" y="935" on="1"/>
        <pt x="434" y="935" on="0"/>
        <pt x="333" y="895" on="0"/>
        <pt x="263" y="847" on="0"/>
        <pt x="219" y="807" on="0"/>
        <pt x="204" y="807" on="1"/>
        <pt x="184" y="807" on="0"/>
        <pt x="174" y="825" on="1"/>
        <pt x="157" y="854" on="1"/>
        <pt x="235" y="932" on="0"/>
        <pt x="407" y="1012" on="0"/>
        <pt x="516" y="1012" on="1"/>
        <pt x="596" y="1012" on="0"/>
        <pt x="716" y="961" on="0"/>
        <pt x="795" y="866" on="0"/>
        <pt x="835" y="731" on="0"/>
        <pt x="835" y="648" on="1"/>
        <pt x="835" y="0" on="1"/>
      </contour>
      <contour>
        <pt x="397" y="53" on="1"/>
        <pt x="455" y="53" on="0"/>
        <pt x="552" y="78" on="0"/>
        <pt x="635" y="123" on="0"/>
        <pt x="707" y="185" on="0"/>
        <pt x="742" y="221" on="1"/>
        <pt x="742" y="480" on="1"/>
        <pt x="600" y="476" on="0"/>
        <pt x="395" y="441" on="0"/>
        <pt x="262" y="381" on="0"/>
        <pt x="199" y="298" on="0"/>
        <pt x="199" y="245" on="1"/>
        <pt x="199" y="195" on="0"/>
        <pt x="232" y="122" on="0"/>
        <pt x="286" y="75" on="0"/>
        <pt x="358" y="53" on="0"/>
      </contour>
    </TTGlyph>
    <TTGlyph name="aacute" xMin="107" yMin="-16" xMax="835" yMax="1431">
      <component glyphName="a" x="0" y="0" flags="0x204"/>
      <component glyphName="acute" x="214" y="0" flags="0x4"/>
    </TTGlyph>
    <TTGlyph name="acircumflex" xMin="107" yMin="-16" xMax="835" yMax="1415">
      <component glyphName="a" x="0" y="0" flags="0x204"/>
      <component glyphName="circumflex" x="214" y="0" flags="0x4"/>
    </TTGlyph>
    <TTGlyph name="acute" xMin="207" yMin="1161" xMax="517" yMax="1431">
      <contour>
        <pt x="517" y="1431" on="1"/>
        <pt x="301" y="1178" on="1"/>
        <pt x="293" y="1168" on="0"/>
        <pt x="276" y="1161" on="0"/>
        <pt x="264" y="1161" on="1"/>
        <pt x="207" y="1161" on="1"/>
        <pt x="364" y="1399" on="1"/>
        <pt x="375" y="1417" on="0"/>
        <pt x="399" y="1431" on="0"/>
        <pt x="423" y="1431" on="1"/>
      </contour>
    </TTGlyph>
    <TTGlyph name="acute.case" xMin="185" yMin="1542" xMax="586" yMax="1770">
      <contour>
        <pt x="586" y="1770" on="1"/>
        <pt x="294" y="1554" on="1"/>
        <pt x="284" y="1547" on="0"/>
        <pt x="267" y="1542" on="0"/>
        <pt x="255" y="1542" on="1"/>
        <pt x="185" y="1542" on="1"/>
        <pt x="412" y="1748" on="1"/>
        <pt x="426" y="1761" on="0"/>
        <pt x="450" y="1770" on="0"/>
        <pt x="474" y="1770" on="1"/>
      </contour>
    </TTGlyph>
    <TTGlyph name="adieresis" xMin="107" yMin="-16" xMax="835" yMax="1367">
      <component glyphName="a" x="0" y="0" flags="0x204"/>
      <component glyphName="dieresis" x="214" y="0" flags="0x4"/>
    </TTGlyph>
    <TTGlyph name="ae" xMin="107" yMin="-16" xMax="1515" yMax="1012">
      <contour>
        <pt x="1159" y="1011" on="1"/>
        <pt x="1234" y="1011" on="0"/>
        <pt x="1364" y="951" on="0"/>
        <pt x="1460" y="836" on="0"/>
        <pt x="1515" y="666" on="0"/>
        <pt x="1515" y="555" on="1"/>
        <pt x="1515" y="533" on="0"/>
        <pt x="1505" y="517" on="0"/>
        <pt x="1491" y="517" on="1"/>
        <pt x="831" y="517" on="1"/>
        <pt x="831" y="405" on="0"/>
        <pt x="879" y="235" on="0"/>
        <pt x="967" y="121" on="0"/>
        <pt x="1091" y="63" on="0"/>
        <pt x="1167" y="63" on="1"/>
        <pt x="1238" y="63" on="0"/>
        <pt x="1338" y="96" on="0"/>
        <pt x="1406" y="135" on="0"/>
        <pt x="1444" y="168" on="0"/>
        <pt x="1454" y="168" on="1"/>
        <pt x="1468" y="168" on="0"/>
        <pt x="1476" y="158" on="1"/>
        <pt x="1500" y="128" on="1"/>
        <pt x="1477" y="98" on="0"/>
        <pt x="1403" y="46" on="0"/>
        <pt x="1313" y="9" on="0"/>
        <pt x="1212" y="-13" on="0"/>
        <pt x="1160" y="-13" on="1"/>
        <pt x="1029" y="-13" on="0"/>
        <pt x="840" y="125" on="0"/>
        <pt x="793" y="262" on="1"/>
        <pt x="773" y="185" on="0"/>
        <pt x="688" y="79" on="0"/>
        <pt x="580" y="13" on="0"/>
        <pt x="459" y="-16" on="0"/>
        <pt x="404" y="-16" on="1"/>
        <pt x="341" y="-16" on="0"/>
        <pt x="233" y="15" on="0"/>
        <pt x="153" y="81" on="0"/>
        <pt x="107" y="185" on="0"/>
        <pt x="107" y="258" on="1"/>
        <pt x="107" y="322" on="0"/>
        <pt x="179" y="435" on="0"/>
        <pt x="332" y="521" on="0"/>
        <pt x="573" y="575" on="0"/>
        <pt x="742" y="579" on="1"/>
        <pt x="742" y="648" on="1"/>
        <pt x="742" y="786" on="0"/>
        <pt x="623" y="937" on="0"/>
        <pt x="506" y="937" on="1"/>
        <pt x="434" y="937" on="0"/>
        <pt x="333" y="896" on="0"/>
        <pt x="263" y="848" on="0"/>
        <pt x="219" y="807" on="0"/>
        <pt x="204" y="807" on="1"/>
        <pt x="193" y="807" on="0"/>
        <pt x="179" y="817" on="0"/>
        <pt x="174" y="825" on="1"/>
        <pt x="157" y="854" on="1"/>
        <pt x="234" y="932" on="0"/>
        <pt x="401" y="1012" on="0"/>
        <pt x="508" y="1012" on="1"/>
        <pt x="634" y="1012" on="0"/>
        <pt x="778" y="883" on="0"/>
        <pt x="801" y="771" on="1"/>
        <pt x="848" y="882" on="0"/>
        <pt x="1028" y="1011" on="0"/>
      </contour>
      <contour>
        <pt x="742" y="515" on="1"/>
        <pt x="600" y="510" on="0"/>
        <pt x="395" y="470" on="0"/>
        <pt x="262" y="404" on="0"/>
        <pt x="199" y="315" on="0"/>
        <pt x="199" y="262" on="1"/>
        <pt x="199" y="206" on="0"/>
        <pt x="232" y="127" on="0"/>
        <pt x="292" y="77" on="0"/>
        <pt x="374" y="53" on="0"/>
        <pt x="423" y="53" on="1"/>
        <pt x="489" y="53" on="0"/>
        <pt x="605" y="97" on="0"/>
        <pt x="692" y="182" on="0"/>
        <pt x="742" y="306" on="0"/>
        <pt x="742" y="385" on="1"/>
      </contour>
      <contour>
        <pt x="1157" y="940" on="1"/>
        <pt x="1085" y="940" on="0"/>
        <pt x="970" y="888" on="0"/>
        <pt x="888" y="794" on="0"/>
        <pt x="839" y="660" on="0"/>
        <pt x="833" y="578" on="1"/>
        <pt x="1431" y="578" on="1"/>
        <pt x="1431" y="663" on="0"/>
        <pt x="1391" y="798" on="0"/>
        <pt x="1319" y="891" on="0"/>
        <pt x="1218" y="940" on="0"/>
      </contour>
    </TTGlyph>
    <TTGlyph name="agrave" xMin="107" yMin="-16" xMax="835" yMax="1431">
      <component glyphName="a" x="0" y="0" flags="0x204"/>
      <component glyphName="grave" x="214" y="0" flags="0x4"/>
    </TTGlyph>
    <TTGlyph name="ampersand" xMin="106" yMin="-16" xMax="1364" yMax="1431">
      <contour>
        <pt x="659" y="1431" on="1"/>
        <pt x="726" y="1431" on="0"/>
        <pt x="846" y="1385" on="0"/>
        <pt x="935" y="1307" on="0"/>
        <pt x="988" y="1204" on="0"/>
        <pt x="990" y="1148" on="1"/>
        <pt x="976" y="1145" on="0"/>
        <pt x="965" y="1142" on="1"/>
        <pt x="942" y="1137" on="0"/>
        <pt x="929" y="1137" on="1"/>
        <pt x="921" y="1137" on="0"/>
        <pt x="907" y="1149" on="0"/>
        <pt x="904" y="1160" on="1"/>
        <pt x="897" y="1186" on="0"/>
        <pt x="863" y="1254" on="0"/>
        <pt x="805" y="1314" on="0"/>
        <pt x="718" y="1356" on="0"/>
        <pt x="659" y="1356" on="1"/>
        <pt x="599" y="1356" on="0"/>
        <pt x="501" y="1319" on="0"/>
        <pt x="431" y="1252" on="0"/>
        <pt x="392" y="1160" on="0"/>
        <pt x="392" y="1105" on="1"/>
        <pt x="392" y="1023" on="0"/>
        <pt x="476" y="873" on="0"/>
        <pt x="564" y="787" on="1"/>
        <pt x="1010" y="347" on="1"/>
        <pt x="1055" y="419" on="0"/>
        <pt x="1108" y="575" on="0"/>
        <pt x="1116" y="648" on="1"/>
        <pt x="1118" y="661" on="0"/>
        <pt x="1130" y="676" on="0"/>
        <pt x="1142" y="676" on="1"/>
        <pt x="1197" y="676" on="1"/>
        <pt x="1195" y="582" on="0"/>
        <pt x="1128" y="383" on="0"/>
        <pt x="1066" y="292" on="1"/>
        <pt x="1364" y="0" on="1"/>
        <pt x="1275" y="0" on="1"/>
        <pt x="1257" y="0" on="0"/>
        <pt x="1234" y="8" on="0"/>
        <pt x="1219" y="22" on="1"/>
        <pt x="1014" y="223" on="1"/>
        <pt x="969" y="171" on="0"/>
        <pt x="861" y="83" on="0"/>
        <pt x="735" y="20" on="0"/>
        <pt x="592" y="-16" on="0"/>
        <pt x="513" y="-16" on="1"/>
        <pt x="438" y="-16" on="0"/>
        <pt x="292" y="34" on="0"/>
        <pt x="177" y="131" on="0"/>
        <pt x="106" y="272" on="0"/>
        <pt x="106" y="362" on="1"/>
        <pt x="106" y="434" on="0"/>
        <pt x="158" y="565" on="0"/>
        <pt x="248" y="674" on="0"/>
        <pt x="372" y="760" on="0"/>
        <pt x="444" y="787" on="1"/>
        <pt x="373" y="867" on="0"/>
        <pt x="302" y="1018" on="0"/>
        <pt x="302" y="1104" on="1"/>
        <pt x="302" y="1174" on="0"/>
        <pt x="353" y="1293" on="0"/>
        <pt x="447" y="1381" on="0"/>
        <pt x="578" y="1431" on="0"/>
      </contour>
      <contour>
        <pt x="203" y="368" on="1"/>
        <pt x="203" y="291" on="0"/>
        <pt x="262" y="177" on="0"/>
        <pt x="356" y="100" on="0"/>
        <pt x="471" y="62" on="0"/>
        <pt x="527" y="62" on="1"/>
        <pt x="597" y="62" on="0"/>
        <pt x="722" y="94" on="0"/>
        <pt x="831" y="151" on="0"/>
        <pt x="922" y="229" on="0"/>
        <pt x="960" y="276" on="1"/>
        <pt x="501" y="727" on="1"/>
        <pt x="495" y="732" on="0"/>
        <pt x="490" y="738" on="1"/>
        <pt x="424" y="710" on="0"/>
        <pt x="317" y="632" on="0"/>
        <pt x="243" y="537" on="0"/>
        <pt x="203" y="427" on="0"/>
      </contour>
    </TTGlyph>
    <TTGlyph name="aogonek" xMin="107" yMin="-338" xMax="957" yMax="1012">
      <contour>
        <pt x="928" y="-243" on="1"/>
        <pt x="938" y="-243" on="0"/>
        <pt x="941" y="-251" on="1"/>
        <pt x="957" y="-285" on="1"/>
        <pt x="929" y="-309" on="0"/>
        <pt x="845" y="-338" on="0"/>
        <pt x="798" y="-338" on="1"/>
        <pt x="722" y="-338" on="0"/>
        <pt x="628" y="-263" on="0"/>
        <pt x="628" y="-197" on="1"/>
        <pt x="628" y="-165" on="0"/>
        <pt x="653" y="-106" on="0"/>
        <pt x="694" y="-55" on="0"/>
        <pt x="746" y="-12" on="0"/>
        <pt x="773" y="5" on="1"/>
        <pt x="763" y="14" on="0"/>
        <pt x="760" y="28" on="1"/>
        <pt x="746" y="155" on="1"/>
        <pt x="705" y="115" on="0"/>
        <pt x="624" y="51" on="0"/>
        <pt x="536" y="7" on="0"/>
        <pt x="434" y="-16" on="0"/>
        <pt x="373" y="-16" on="1"/>
        <pt x="322" y="-16" on="0"/>
        <pt x="226" y="14" on="0"/>
        <pt x="152" y="76" on="0"/>
        <pt x="107" y="173" on="0"/>
        <pt x="107" y="241" on="1"/>
        <pt x="107" y="304" on="0"/>
        <pt x="179" y="412" on="0"/>
        <pt x="332" y="492" on="0"/>
        <pt x="573" y="540" on="0"/>
        <pt x="742" y="544" on="1"/>
        <pt x="742" y="648" on="1"/>
        <pt x="742" y="786" on="0"/>
        <pt x="623" y="935" on="0"/>
        <pt x="506" y="935" on="1"/>
        <pt x="434" y="935" on="0"/>
        <pt x="333" y="895" on="0"/>
        <pt x="263" y="847" on="0"/>
        <pt x="219" y="807" on="0"/>
        <pt x="204" y="807" on="1"/>
        <pt x="193" y="807" on="0"/>
        <pt x="179" y="817" on="0"/>
        <pt x="174" y="825" on="1"/>
        <pt x="157" y="854" on="1"/>
        <pt x="235" y="932" on="0"/>
        <pt x="407" y="1012" on="0"/>
        <pt x="516" y="1012" on="1"/>
        <pt x="596" y="1012" on="0"/>
        <pt x="716" y="961" on="0"/>
        <pt x="795" y="866" on="0"/>
        <pt x="835" y="731" on="0"/>
        <pt x="835" y="648" on="1"/>
        <pt x="835" y="0" on="1"/>
        <pt x="815" y="-11" on="0"/>
        <pt x="769" y="-45" on="0"/>
        <pt x="729" y="-90" on="0"/>
        <pt x="702" y="-145" on="0"/>
        <pt x="702" y="-176" on="1"/>
        <pt x="702" y="-224" on="0"/>
        <pt x="766" y="-277" on="0"/>
        <pt x="816" y="-277" on="1"/>
        <pt x="844" y="-277" on="0"/>
        <pt x="882" y="-266" on="0"/>
        <pt x="908" y="-254" on="0"/>
        <pt x="923" y="-243" on="0"/>
      </contour>
      <contour>
        <pt x="397" y="53" on="1"/>
        <pt x="455" y="53" on="0"/>
        <pt x="552" y="78" on="0"/>
        <pt x="635" y="123" on="0"/>
        <pt x="707" y="185" on="0"/>
        <pt x="742" y="221" on="1"/>
        <pt x="742" y="480" on="1"/>
        <pt x="600" y="476" on="0"/>
        <pt x="395" y="441" on="0"/>
        <pt x="262" y="381" on="0"/>
        <pt x="199" y="298" on="0"/>
        <pt x="199" y="245" on="1"/>
        <pt x="199" y="195" on="0"/>
        <pt x="232" y="122" on="0"/>
        <pt x="286" y="75" on="0"/>
        <pt x="358" y="53" on="0"/>
      </contour>
    </TTGlyph>
    <TTGlyph name="approxequal" xMin="198" yMin="420" xMax="961" yMax="926">
      <contour>
        <pt x="781" y="810" on="1"/>
        <pt x="833" y="810" on="0"/>
        <pt x="921" y="855" on="0"/>
        <pt x="942" y="883" on="1"/>
        <pt x="961" y="825" on="1"/>
        <pt x="932" y="782" on="0"/>
        <pt x="832" y="735" on="0"/>
        <pt x="776" y="735" on="1"/>
        <pt x="724" y="735" on="0"/>
        <pt x="623" y="771" on="0"/>
        <pt x="524" y="815" on="0"/>
        <pt x="428" y="851" on="0"/>
        <pt x="382" y="851" on="1"/>
        <pt x="327" y="851" on="0"/>
        <pt x="240" y="806" on="0"/>
        <pt x="219" y="777" on="1"/>
        <pt x="198" y="833" on="1"/>
        <pt x="228" y="878" on="0"/>
        <pt x="327" y="926" on="0"/>
        <pt x="387" y="926" on="1"/>
        <pt x="439" y="926" on="0"/>
        <pt x="541" y="890" on="0"/>
        <pt x="640" y="846" on="0"/>
        <pt x="735" y="810" on="0"/>
      </contour>
      <contour>
        <pt x="781" y="494" on="1"/>
        <pt x="833" y="494" on="0"/>
        <pt x="921" y="539" on="0"/>
        <pt x="942" y="567" on="1"/>
        <pt x="961" y="509" on="1"/>
        <pt x="932" y="466" on="0"/>
        <pt x="832" y="420" on="0"/>
        <pt x="776" y="420" on="1"/>
        <pt x="724" y="420" on="0"/>
        <pt x="623" y="456" on="0"/>
        <pt x="524" y="500" on="0"/>
        <pt x="428" y="536" on="0"/>
        <pt x="382" y="536" on="1"/>
        <pt x="327" y="536" on="0"/>
        <pt x="240" y="491" on="0"/>
        <pt x="219" y="462" on="1"/>
        <pt x="198" y="518" on="1"/>
        <pt x="228" y="563" on="0"/>
        <pt x="327" y="610" on="0"/>
        <pt x="387" y="610" on="1"/>
        <pt x="439" y="610" on="0"/>
        <pt x="541" y="574" on="0"/>
        <pt x="640" y="530" on="0"/>
        <pt x="735" y="494" on="0"/>
      </contour>
    </TTGlyph>
    <TTGlyph name="aring" xMin="107" yMin="-16" xMax="835" yMax="1466">
      <component glyphName="a" x="0" y="0" flags="0x204"/>
      <component glyphName="ring" x="214" y="0" flags="0x4"/>
    </TTGlyph>
    <TTGlyph name="asciicircum" xMin="203" yMin="800" xMax="945" yMax="1415">
      <contour>
        <pt x="544" y="1415" on="1"/>
        <pt x="604" y="1415" on="1"/>
        <pt x="945" y="800" on="1"/>
        <pt x="877" y="800" on="1"/>
        <pt x="866" y="800" on="0"/>
        <pt x="849" y="813" on="0"/>
        <pt x="844" y="823" on="1"/>
        <pt x="603" y="1259" on="1"/>
        <pt x="594" y="1276" on="0"/>
        <pt x="580" y="1306" on="0"/>
        <pt x="575" y="1322" on="1"/>
        <pt x="570" y="1306" on="0"/>
        <pt x="557" y="1275" on="0"/>
        <pt x="548" y="1259" on="1"/>
        <pt x="308" y="823" on="1"/>
        <pt x="303" y="815" on="0"/>
        <pt x="287" y="800" on="0"/>
        <pt x="274" y="800" on="1"/>
        <pt x="203" y="800" on="1"/>
      </contour>
    </TTGlyph>
    <TTGlyph name="asciitilde" xMin="140" yMin="434" xMax="1020" yMax="747">
      <contour>
        <pt x="779" y="567" on="1"/>
        <pt x="816" y="567" on="0"/>
        <pt x="877" y="594" on="0"/>
        <pt x="919" y="642" on="0"/>
        <pt x="942" y="708" on="0"/>
        <pt x="942" y="747" on="1"/>
        <pt x="1020" y="747" on="1"/>
        <pt x="1020" y="692" on="0"/>
        <pt x="988" y="598" on="0"/>
        <pt x="928" y="528" on="0"/>
        <pt x="840" y="488" on="0"/>
        <pt x="784" y="488" on="1"/>
        <pt x="733" y="488" on="0"/>
        <pt x="626" y="527" on="0"/>
        <pt x="521" y="575" on="0"/>
        <pt x="423" y="614" on="0"/>
        <pt x="380" y="614" on="1"/>
        <pt x="342" y="614" on="0"/>
        <pt x="283" y="587" on="0"/>
        <pt x="241" y="539" on="0"/>
        <pt x="218" y="473" on="0"/>
        <pt x="217" y="434" on="1"/>
        <pt x="140" y="434" on="1"/>
        <pt x="140" y="489" on="0"/>
        <pt x="172" y="583" on="0"/>
        <pt x="232" y="653" on="0"/>
        <pt x="319" y="693" on="0"/>
        <pt x="375" y="693" on="1"/>
        <pt x="427" y="693" on="0"/>
        <pt x="534" y="654" on="0"/>
        <pt x="638" y="606" on="0"/>
        <pt x="736" y="567" on="0"/>
      </contour>
    </TTGlyph>
    <TTGlyph name="asterisk" xMin="123" yMin="897" xMax="674" yMax="1493">
      <contour>
        <pt x="372" y="897" on="1"/>
        <pt x="372" y="1110" on="1"/>
        <pt x="372" y="1127" on="0"/>
        <pt x="377" y="1153" on="0"/>
        <pt x="385" y="1170" on="1"/>
        <pt x="374" y="1155" on="0"/>
        <pt x="353" y="1139" on="0"/>
        <pt x="338" y="1130" on="1"/>
        <pt x="150" y="1021" on="1"/>
        <pt x="125" y="1065" on="1"/>
        <pt x="313" y="1175" on="1"/>
        <pt x="327" y="1183" on="0"/>
        <pt x="353" y="1191" on="0"/>
        <pt x="371" y="1194" on="1"/>
        <pt x="352" y="1197" on="0"/>
        <pt x="327" y="1207" on="0"/>
        <pt x="313" y="1215" on="1"/>
        <pt x="123" y="1325" on="1"/>
        <pt x="149" y="1370" on="1"/>
        <pt x="338" y="1260" on="1"/>
        <pt x="354" y="1250" on="0"/>
        <pt x="373" y="1231" on="0"/>
        <pt x="387" y="1214" on="1"/>
        <pt x="379" y="1233" on="0"/>
        <pt x="372" y="1262" on="0"/>
        <pt x="372" y="1279" on="1"/>
        <pt x="372" y="1493" on="1"/>
        <pt x="424" y="1493" on="1"/>
        <pt x="424" y="1280" on="1"/>
        <pt x="424" y="1262" on="0"/>
        <pt x="419" y="1233" on="0"/>
        <pt x="411" y="1215" on="1"/>
        <pt x="423" y="1232" on="0"/>
        <pt x="443" y="1251" on="0"/>
        <pt x="459" y="1260" on="1"/>
        <pt x="647" y="1369" on="1"/>
        <pt x="673" y="1324" on="1"/>
        <pt x="485" y="1215" on="1"/>
        <pt x="470" y="1206" on="0"/>
        <pt x="444" y="1196" on="0"/>
        <pt x="427" y="1194" on="1"/>
        <pt x="445" y="1191" on="0"/>
        <pt x="470" y="1183" on="0"/>
        <pt x="485" y="1175" on="1"/>
        <pt x="674" y="1065" on="1"/>
        <pt x="649" y="1020" on="1"/>
        <pt x="459" y="1130" on="1"/>
        <pt x="444" y="1139" on="0"/>
        <pt x="424" y="1155" on="0"/>
        <pt x="411" y="1172" on="1"/>
        <pt x="417" y="1154" on="0"/>
        <pt x="424" y="1128" on="0"/>
        <pt x="424" y="1111" on="1"/>
        <pt x="424" y="897" on="1"/>
      </contour>
    </TTGlyph>
    <TTGlyph name="at" xMin="108" yMin="-238" xMax="1539" yMax="1331">
      <contour>
        <pt x="1167" y="188" on="1"/>
        <pt x="1079" y="188" on="0"/>
        <pt x="990" y="281" on="0"/>
        <pt x="988" y="368" on="1"/>
        <pt x="932" y="275" on="0"/>
        <pt x="791" y="192" on="0"/>
        <pt x="709" y="192" on="1"/>
        <pt x="653" y="192" on="0"/>
        <pt x="571" y="231" on="0"/>
        <pt x="517" y="299" on="0"/>
        <pt x="490" y="391" on="0"/>
        <pt x="490" y="444" on="1"/>
        <pt x="490" y="529" on="0"/>
        <pt x="555" y="700" on="0"/>
        <pt x="680" y="837" on="0"/>
        <pt x="862" y="923" on="0"/>
        <pt x="978" y="923" on="1"/>
        <pt x="1031" y="923" on="0"/>
        <pt x="1124" y="905" on="0"/>
        <pt x="1161" y="888" on="1"/>
        <pt x="1070" y="541" on="1"/>
        <pt x="1058" y="495" on="0"/>
        <pt x="1047" y="422" on="0"/>
        <pt x="1047" y="393" on="1"/>
        <pt x="1047" y="349" on="0"/>
        <pt x="1069" y="294" on="0"/>
        <pt x="1106" y="262" on="0"/>
        <pt x="1154" y="251" on="0"/>
        <pt x="1180" y="251" on="1"/>
        <pt x="1237" y="251" on="0"/>
        <pt x="1341" y="311" on="0"/>
        <pt x="1421" y="422" on="0"/>
        <pt x="1468" y="580" on="0"/>
        <pt x="1468" y="678" on="1"/>
        <pt x="1468" y="826" on="0"/>
        <pt x="1371" y="1047" on="0"/>
        <pt x="1204" y="1193" on="0"/>
        <pt x="982" y="1265" on="0"/>
        <pt x="857" y="1265" on="1"/>
        <pt x="720" y="1265" on="0"/>
        <pt x="475" y="1159" on="0"/>
        <pt x="290" y="969" on="0"/>
        <pt x="181" y="706" on="0"/>
        <pt x="181" y="549" on="1"/>
        <pt x="181" y="372" on="0"/>
        <pt x="294" y="103" on="0"/>
        <pt x="488" y="-78" on="0"/>
        <pt x="747" y="-171" on="0"/>
        <pt x="893" y="-171" on="1"/>
        <pt x="1041" y="-171" on="0"/>
        <pt x="1286" y="-103" on="0"/>
        <pt x="1386" y="-38" on="1"/>
        <pt x="1393" y="-33" on="0"/>
        <pt x="1403" y="-33" on="1"/>
        <pt x="1417" y="-33" on="0"/>
        <pt x="1423" y="-47" on="1"/>
        <pt x="1438" y="-84" on="1"/>
        <pt x="1326" y="-158" on="0"/>
        <pt x="1057" y="-238" on="0"/>
        <pt x="893" y="-238" on="1"/>
        <pt x="728" y="-238" on="0"/>
        <pt x="442" y="-133" on="0"/>
        <pt x="230" y="68" on="0"/>
        <pt x="108" y="361" on="0"/>
        <pt x="108" y="549" on="1"/>
        <pt x="108" y="716" on="0"/>
        <pt x="226" y="1002" on="0"/>
        <pt x="430" y="1212" on="0"/>
        <pt x="702" y="1331" on="0"/>
        <pt x="857" y="1331" on="1"/>
        <pt x="991" y="1331" on="0"/>
        <pt x="1237" y="1248" on="0"/>
        <pt x="1426" y="1083" on="0"/>
        <pt x="1539" y="839" on="0"/>
        <pt x="1539" y="678" on="1"/>
        <pt x="1539" y="569" on="0"/>
        <pt x="1481" y="389" on="0"/>
        <pt x="1380" y="260" on="0"/>
        <pt x="1244" y="188" on="0"/>
      </contour>
      <contour>
        <pt x="727" y="258" on="1"/>
        <pt x="763" y="258" on="0"/>
        <pt x="840" y="282" on="0"/>
        <pt x="911" y="345" on="0"/>
        <pt x="973" y="452" on="0"/>
        <pt x="994" y="535" on="1"/>
        <pt x="1074" y="845" on="1"/>
        <pt x="1050" y="852" on="0"/>
        <pt x="999" y="859" on="0"/>
        <pt x="965" y="859" on="1"/>
        <pt x="875" y="859" on="0"/>
        <pt x="728" y="786" on="0"/>
        <pt x="625" y="668" on="0"/>
        <pt x="568" y="521" on="0"/>
        <pt x="568" y="446" on="1"/>
        <pt x="568" y="406" on="0"/>
        <pt x="588" y="337" on="0"/>
        <pt x="628" y="287" on="0"/>
        <pt x="687" y="258" on="0"/>
      </contour>
    </TTGlyph>
    <TTGlyph name="atilde" xMin="107" yMin="-16" xMax="835" yMax="1385">
      <component glyphName="a" x="0" y="0" flags="0x204"/>
      <component glyphName="tilde" x="214" y="0" flags="0x4"/>
    </TTGlyph>
    <TTGlyph name="b" xMin="172" yMin="-13" xMax="1005" yMax="1455">
      <contour>
        <pt x="172" y="0" on="1"/>
        <pt x="172" y="1455" on="1"/>
        <pt x="268" y="1455" on="1"/>
        <pt x="268" y="821" on="1"/>
        <pt x="334" y="909" on="0"/>
        <pt x="508" y="1011" on="0"/>
        <pt x="617" y="1011" on="1"/>
        <pt x="800" y="1011" on="0"/>
        <pt x="1005" y="758" on="0"/>
        <pt x="1005" y="504" on="1"/>
        <pt x="1005" y="395" on="0"/>
        <pt x="948" y="206" on="0"/>
        <pt x="837" y="67" on="0"/>
        <pt x="676" y="-13" on="0"/>
        <pt x="571" y="-13" on="1"/>
        <pt x="467" y="-13" on="0"/>
        <pt x="317" y="68" on="0"/>
        <pt x="263" y="147" on="1"/>
        <pt x="257" y="25" on="1"/>
        <pt x="254" y="0" on="0"/>
        <pt x="230" y="0" on="1"/>
      </contour>
      <contour>
        <pt x="590" y="935" on="1"/>
        <pt x="491" y="935" on="0"/>
        <pt x="331" y="833" on="0"/>
        <pt x="268" y="742" on="1"/>
        <pt x="268" y="217" on="1"/>
        <pt x="325" y="131" on="0"/>
        <pt x="463" y="62" on="0"/>
        <pt x="553" y="62" on="1"/>
        <pt x="641" y="62" on="0"/>
        <pt x="773" y="126" on="0"/>
        <pt x="862" y="243" on="0"/>
        <pt x="907" y="406" on="0"/>
        <pt x="907" y="504" on="1"/>
        <pt x="907" y="726" on="0"/>
        <pt x="743" y="935" on="0"/>
      </contour>
    </TTGlyph>
    <TTGlyph name="backslash" xMin="-8" yMin="-84" xMax="709" yMax="1455">
      <contour>
        <pt x="-8" y="1455" on="1"/>
        <pt x="33" y="1455" on="1"/>
        <pt x="72" y="1455" on="0"/>
        <pt x="87" y="1418" on="1"/>
        <pt x="709" y="-84" on="1"/>
        <pt x="670" y="-84" on="1"/>
        <pt x="653" y="-84" on="0"/>
        <pt x="621" y="-65" on="0"/>
        <pt x="613" y="-45" on="1"/>
      </contour>
    </TTGlyph>
    <TTGlyph name="bar" xMin="262" yMin="-352" xMax="337" yMax="1517">
      <contour>
        <pt x="262" y="1517" on="1"/>
        <pt x="337" y="1517" on="1"/>
        <pt x="337" y="-352" on="1"/>
        <pt x="262" y="-352" on="1"/>
      </contour>
    </TTGlyph>
    <TTGlyph name="braceleft" xMin="63" yMin="-264" xMax="495" yMax="1517">
      <contour>
        <pt x="219" y="445" on="1"/>
        <pt x="219" y="478" on="0"/>
        <pt x="197" y="533" on="0"/>
        <pt x="156" y="574" on="0"/>
        <pt x="98" y="596" on="0"/>
        <pt x="63" y="596" on="1"/>
        <pt x="63" y="657" on="1"/>
        <pt x="98" y="657" on="0"/>
        <pt x="156" y="679" on="0"/>
        <pt x="197" y="720" on="0"/>
        <pt x="219" y="775" on="0"/>
        <pt x="219" y="808" on="1"/>
        <pt x="219" y="863" on="0"/>
        <pt x="200" y="967" on="0"/>
        <pt x="178" y="1071" on="0"/>
        <pt x="159" y="1176" on="0"/>
        <pt x="159" y="1232" on="1"/>
        <pt x="159" y="1293" on="0"/>
        <pt x="197" y="1397" on="0"/>
        <pt x="269" y="1474" on="0"/>
        <pt x="374" y="1517" on="0"/>
        <pt x="440" y="1517" on="1"/>
        <pt x="495" y="1517" on="1"/>
        <pt x="495" y="1475" on="1"/>
        <pt x="495" y="1464" on="0"/>
        <pt x="478" y="1452" on="0"/>
        <pt x="470" y="1452" on="1"/>
        <pt x="437" y="1452" on="1"/>
        <pt x="394" y="1452" on="0"/>
        <pt x="323" y="1422" on="0"/>
        <pt x="272" y="1366" on="0"/>
        <pt x="243" y="1286" on="0"/>
        <pt x="243" y="1237" on="1"/>
        <pt x="243" y="1180" on="0"/>
        <pt x="261" y="1072" on="0"/>
        <pt x="283" y="967" on="0"/>
        <pt x="301" y="862" on="0"/>
        <pt x="301" y="809" on="1"/>
        <pt x="301" y="772" on="0"/>
        <pt x="276" y="710" on="0"/>
        <pt x="235" y="664" on="0"/>
        <pt x="182" y="633" on="0"/>
        <pt x="153" y="626" on="1"/>
        <pt x="182" y="620" on="0"/>
        <pt x="235" y="589" on="0"/>
        <pt x="276" y="542" on="0"/>
        <pt x="301" y="481" on="0"/>
        <pt x="301" y="444" on="1"/>
        <pt x="301" y="391" on="0"/>
        <pt x="283" y="286" on="0"/>
        <pt x="261" y="180" on="0"/>
        <pt x="243" y="72" on="0"/>
        <pt x="243" y="16" on="1"/>
        <pt x="243" y="-33" on="0"/>
        <pt x="272" y="-113" on="0"/>
        <pt x="323" y="-169" on="0"/>
        <pt x="394" y="-199" on="0"/>
        <pt x="437" y="-199" on="1"/>
        <pt x="470" y="-199" on="1"/>
        <pt x="478" y="-199" on="0"/>
        <pt x="495" y="-211" on="0"/>
        <pt x="495" y="-222" on="1"/>
        <pt x="495" y="-264" on="1"/>
        <pt x="440" y="-264" on="1"/>
        <pt x="374" y="-264" on="0"/>
        <pt x="269" y="-221" on="0"/>
        <pt x="197" y="-144" on="0"/>
        <pt x="159" y="-40" on="0"/>
        <pt x="159" y="21" on="1"/>
        <pt x="159" y="77" on="0"/>
        <pt x="178" y="182" on="0"/>
        <pt x="200" y="286" on="0"/>
        <pt x="219" y="390" on="0"/>
      </contour>
    </TTGlyph>
    <TTGlyph name="braceright" xMin="105" yMin="-264" xMax="536" yMax="1517">
      <contour>
        <pt x="381" y="445" on="1"/>
        <pt x="381" y="390" on="0"/>
        <pt x="400" y="286" on="0"/>
        <pt x="422" y="182" on="0"/>
        <pt x="441" y="77" on="0"/>
        <pt x="441" y="21" on="1"/>
        <pt x="441" y="-40" on="0"/>
        <pt x="403" y="-144" on="0"/>
        <pt x="331" y="-221" on="0"/>
        <pt x="226" y="-264" on="0"/>
        <pt x="160" y="-264" on="1"/>
        <pt x="105" y="-264" on="1"/>
        <pt x="105" y="-222" on="1"/>
        <pt x="105" y="-211" on="0"/>
        <pt x="121" y="-199" on="0"/>
        <pt x="130" y="-199" on="1"/>
        <pt x="163" y="-199" on="1"/>
        <pt x="206" y="-199" on="0"/>
        <pt x="277" y="-169" on="0"/>
        <pt x="328" y="-113" on="0"/>
        <pt x="357" y="-33" on="0"/>
        <pt x="357" y="16" on="1"/>
        <pt x="357" y="72" on="0"/>
        <pt x="339" y="180" on="0"/>
        <pt x="317" y="286" on="0"/>
        <pt x="299" y="391" on="0"/>
        <pt x="299" y="444" on="1"/>
        <pt x="299" y="481" on="0"/>
        <pt x="323" y="542" on="0"/>
        <pt x="364" y="589" on="0"/>
        <pt x="417" y="620" on="0"/>
        <pt x="446" y="626" on="1"/>
        <pt x="417" y="633" on="0"/>
        <pt x="364" y="664" on="0"/>
        <pt x="323" y="710" on="0"/>
        <pt x="299" y="772" on="0"/>
        <pt x="299" y="809" on="1"/>
        <pt x="299" y="862" on="0"/>
        <pt x="317" y="967" on="0"/>
        <pt x="339" y="1072" on="0"/>
        <pt x="357" y="1180" on="0"/>
        <pt x="357" y="1237" on="1"/>
        <pt x="357" y="1286" on="0"/>
        <pt x="328" y="1366" on="0"/>
        <pt x="277" y="1422" on="0"/>
        <pt x="206" y="1452" on="0"/>
        <pt x="163" y="1452" on="1"/>
        <pt x="130" y="1452" on="1"/>
        <pt x="121" y="1452" on="0"/>
        <pt x="105" y="1464" on="0"/>
        <pt x="105" y="1475" on="1"/>
        <pt x="105" y="1517" on="1"/>
        <pt x="160" y="1517" on="1"/>
        <pt x="226" y="1517" on="0"/>
        <pt x="331" y="1474" on="0"/>
        <pt x="403" y="1397" on="0"/>
        <pt x="441" y="1293" on="0"/>
        <pt x="441" y="1232" on="1"/>
        <pt x="441" y="1176" on="0"/>
        <pt x="422" y="1071" on="0"/>
        <pt x="400" y="967" on="0"/>
        <pt x="381" y="863" on="0"/>
        <pt x="381" y="808" on="1"/>
        <pt x="381" y="775" on="0"/>
        <pt x="403" y="720" on="0"/>
        <pt x="444" y="679" on="0"/>
        <pt x="501" y="657" on="0"/>
        <pt x="536" y="657" on="1"/>
        <pt x="536" y="596" on="1"/>
        <pt x="501" y="596" on="0"/>
        <pt x="444" y="574" on="0"/>
        <pt x="403" y="533" on="0"/>
        <pt x="381" y="478" on="0"/>
      </contour>
    </TTGlyph>
    <TTGlyph name="bracketleft" xMin="175" yMin="-264" xMax="493" yMax="1517">
      <contour>
        <pt x="175" y="-264" on="1"/>
        <pt x="175" y="1517" on="1"/>
        <pt x="493" y="1517" on="1"/>
        <pt x="493" y="1481" on="1"/>
        <pt x="493" y="1468" on="0"/>
        <pt x="476" y="1452" on="0"/>
        <pt x="462" y="1452" on="1"/>
        <pt x="256" y="1452" on="1"/>
        <pt x="256" y="-199" on="1"/>
        <pt x="462" y="-199" on="1"/>
        <pt x="476" y="-199" on="0"/>
        <pt x="493" y="-215" on="0"/>
        <pt x="493" y="-228" on="1"/>
        <pt x="493" y="-264" on="1"/>
      </contour>
    </TTGlyph>
    <TTGlyph name="bracketright" xMin="107" yMin="-264" xMax="424" yMax="1517">
      <contour>
        <pt x="107" y="-228" on="1"/>
        <pt x="107" y="-215" on="0"/>
        <pt x="123" y="-199" on="0"/>
        <pt x="137" y="-199" on="1"/>
        <pt x="343" y="-199" on="1"/>
        <pt x="343" y="1452" on="1"/>
        <pt x="137" y="1452" on="1"/>
        <pt x="123" y="1452" on="0"/>
        <pt x="107" y="1468" on="0"/>
        <pt x="107" y="1481" on="1"/>
        <pt x="107" y="1517" on="1"/>
        <pt x="424" y="1517" on="1"/>
        <pt x="424" y="-264" on="1"/>
        <pt x="107" y="-264" on="1"/>
      </contour>
    </TTGlyph>
    <TTGlyph name="breve" xMin="53" yMin="1168" xMax="532" yMax="1415">
      <contour>
        <pt x="292" y="1168" on="1"/>
        <pt x="226" y="1168" on="0"/>
        <pt x="135" y="1207" on="0"/>
        <pt x="78" y="1275" on="0"/>
        <pt x="53" y="1365" on="0"/>
        <pt x="53" y="1415" on="1"/>
        <pt x="122" y="1415" on="1"/>
        <pt x="122" y="1378" on="0"/>
        <pt x="139" y="1312" on="0"/>
        <pt x="179" y="1262" on="0"/>
        <pt x="244" y="1233" on="0"/>
        <pt x="292" y="1233" on="1"/>
        <pt x="340" y="1233" on="0"/>
        <pt x="405" y="1262" on="0"/>
        <pt x="446" y="1312" on="0"/>
        <pt x="463" y="1378" on="0"/>
        <pt x="463" y="1415" on="1"/>
        <pt x="532" y="1415" on="1"/>
        <pt x="532" y="1365" on="0"/>
        <pt x="506" y="1275" on="0"/>
        <pt x="449" y="1207" on="0"/>
        <pt x="358" y="1168" on="0"/>
      </contour>
    </TTGlyph>
    <TTGlyph name="breve.case" xMin="50" yMin="1527" xMax="534" yMax="1741">
      <contour>
        <pt x="292" y="1527" on="1"/>
        <pt x="168" y="1527" on="0"/>
        <pt x="50" y="1639" on="0"/>
        <pt x="50" y="1741" on="1"/>
        <pt x="114" y="1741" on="1"/>
        <pt x="114" y="1670" on="0"/>
        <pt x="196" y="1589" on="0"/>
        <pt x="292" y="1589" on="1"/>
        <pt x="388" y="1589" on="0"/>
        <pt x="470" y="1670" on="0"/>
        <pt x="470" y="1741" on="1"/>
        <pt x="534" y="1741" on="1"/>
        <pt x="534" y="1643" on="0"/>
        <pt x="416" y="1527" on="0"/>
      </contour>
    </TTGlyph>
    <TTGlyph name="brokenbar" xMin="262" yMin="-352" xMax="337" yMax="1517">
      <contour>
        <pt x="262" y="1517" on="1"/>
        <pt x="337" y="1517" on="1"/>
        <pt x="337" y="739" on="1"/>
        <pt x="262" y="739" on="1"/>
      </contour>
      <contour>
        <pt x="262" y="425" on="1"/>
        <pt x="337" y="425" on="1"/>
        <pt x="337" y="-352" on="1"/>
        <pt x="262" y="-352" on="1"/>
      </contour>
    </TTGlyph>
    <TTGlyph name="bullet" xMin="286" yMin="305" xMax="873" yMax="892">
      <contour>
        <pt x="286" y="596" on="1"/>
        <pt x="286" y="657" on="0"/>
        <pt x="332" y="765" on="0"/>
        <pt x="412" y="846" on="0"/>
        <pt x="518" y="892" on="0"/>
        <pt x="578" y="892" on="1"/>
        <pt x="639" y="892" on="0"/>
        <pt x="747" y="846" on="0"/>
        <pt x="827" y="765" on="0"/>
        <pt x="873" y="657" on="0"/>
        <pt x="873" y="596" on="1"/>
        <pt x="873" y="536" on="0"/>
        <pt x="827" y="431" on="0"/>
        <pt x="747" y="351" on="0"/>
        <pt x="639" y="305" on="0"/>
        <pt x="578" y="305" on="1"/>
        <pt x="518" y="305" on="0"/>
        <pt x="412" y="351" on="0"/>
        <pt x="332" y="431" on="0"/>
        <pt x="286" y="536" on="0"/>
      </contour>
    </TTGlyph>
    <TTGlyph name="c" xMin="88" yMin="-13" xMax="856" yMax="1011">
      <contour>
        <pt x="817" y="862" on="1"/>
        <pt x="812" y="857" on="0"/>
        <pt x="803" y="850" on="0"/>
        <pt x="795" y="850" on="1"/>
        <pt x="785" y="850" on="0"/>
        <pt x="750" y="877" on="0"/>
        <pt x="692" y="909" on="0"/>
        <pt x="605" y="936" on="0"/>
        <pt x="543" y="936" on="1"/>
        <pt x="457" y="936" on="0"/>
        <pt x="324" y="875" on="0"/>
        <pt x="233" y="761" on="0"/>
        <pt x="185" y="599" on="0"/>
        <pt x="185" y="498" on="1"/>
        <pt x="185" y="393" on="0"/>
        <pt x="234" y="231" on="0"/>
        <pt x="324" y="120" on="0"/>
        <pt x="452" y="62" on="0"/>
        <pt x="530" y="62" on="1"/>
        <pt x="602" y="62" on="0"/>
        <pt x="699" y="96" on="0"/>
        <pt x="762" y="136" on="0"/>
        <pt x="799" y="170" on="0"/>
        <pt x="810" y="170" on="1"/>
        <pt x="823" y="170" on="0"/>
        <pt x="830" y="160" on="1"/>
        <pt x="856" y="128" on="1"/>
        <pt x="833" y="98" on="0"/>
        <pt x="763" y="46" on="0"/>
        <pt x="675" y="8" on="0"/>
        <pt x="572" y="-13" on="0"/>
        <pt x="516" y="-13" on="1"/>
        <pt x="421" y="-13" on="0"/>
        <pt x="264" y="56" on="0"/>
        <pt x="151" y="187" on="0"/>
        <pt x="88" y="377" on="0"/>
        <pt x="88" y="498" on="1"/>
        <pt x="88" y="612" on="0"/>
        <pt x="148" y="800" on="0"/>
        <pt x="263" y="936" on="0"/>
        <pt x="430" y="1011" on="0"/>
        <pt x="538" y="1011" on="1"/>
        <pt x="635" y="1011" on="0"/>
        <pt x="786" y="949" on="0"/>
        <pt x="842" y="896" on="1"/>
      </contour>
    </TTGlyph>
    <TTGlyph name="cacute" xMin="88" yMin="-13" xMax="856" yMax="1431">
      <component glyphName="c" x="0" y="0" flags="0x204"/>
      <component glyphName="acute" x="248" y="0" flags="0x4"/>
    </TTGlyph>
    <TTGlyph name="caron" xMin="32" yMin="1169" xMax="552" yMax="1415">
      <contour>
        <pt x="32" y="1415" on="1"/>
        <pt x="99" y="1415" on="1"/>
        <pt x="115" y="1415" on="0"/>
        <pt x="126" y="1404" on="1"/>
        <pt x="282" y="1241" on="1"/>
        <pt x="293" y="1228" on="1"/>
        <pt x="304" y="1241" on="1"/>
        <pt x="460" y="1404" on="1"/>
        <pt x="465" y="1410" on="0"/>
        <pt x="480" y="1415" on="0"/>
        <pt x="487" y="1415" on="1"/>
        <pt x="552" y="1415" on="1"/>
        <pt x="335" y="1169" on="1"/>
        <pt x="250" y="1169" on="1"/>
      </contour>
    </TTGlyph>
    <TTGlyph name="caron.case" xMin="12" yMin="1542" xMax="572" yMax="1741">
      <contour>
        <pt x="12" y="1741" on="1"/>
        <pt x="86" y="1741" on="1"/>
        <pt x="94" y="1741" on="0"/>
        <pt x="112" y="1736" on="0"/>
        <pt x="119" y="1731" on="1"/>
        <pt x="276" y="1608" on="1"/>
        <pt x="284" y="1602" on="0"/>
        <pt x="290" y="1596" on="0"/>
        <pt x="292" y="1594" on="1"/>
        <pt x="294" y="1596" on="0"/>
        <pt x="300" y="1601" on="0"/>
        <pt x="309" y="1608" on="1"/>
        <pt x="465" y="1731" on="1"/>
        <pt x="472" y="1736" on="0"/>
        <pt x="491" y="1741" on="0"/>
        <pt x="499" y="1741" on="1"/>
        <pt x="572" y="1741" on="1"/>
        <pt x="337" y="1542" on="1"/>
        <pt x="247" y="1542" on="1"/>
      </contour>
    </TTGlyph>
    <TTGlyph name="caron.salt" xMin="230" yMin="1155" xMax="365" yMax="1457">
      <contour>
        <pt x="341" y="1457" on="1"/>
        <pt x="356" y="1457" on="0"/>
        <pt x="365" y="1442" on="0"/>
        <pt x="365" y="1430" on="1"/>
        <pt x="365" y="1419" on="0"/>
        <pt x="358" y="1384" on="0"/>
        <pt x="343" y="1325" on="0"/>
        <pt x="317" y="1240" on="0"/>
        <pt x="299" y="1180" on="1"/>
        <pt x="294" y="1166" on="0"/>
        <pt x="278" y="1155" on="0"/>
        <pt x="262" y="1155" on="1"/>
        <pt x="230" y="1155" on="1"/>
        <pt x="281" y="1457" on="1"/>
      </contour>
    </TTGlyph>
    <TTGlyph name="ccedilla" xMin="88" yMin="-355" xMax="856" yMax="1011">
      <contour>
        <pt x="393" y="-273" on="1"/>
        <pt x="398" y="-273" on="0"/>
        <pt x="415" y="-284" on="0"/>
        <pt x="442" y="-297" on="0"/>
        <pt x="482" y="-308" on="0"/>
        <pt x="511" y="-308" on="1"/>
        <pt x="562" y="-308" on="0"/>
        <pt x="619" y="-264" on="0"/>
        <pt x="619" y="-226" on="1"/>
        <pt x="619" y="-201" on="0"/>
        <pt x="593" y="-168" on="0"/>
        <pt x="545" y="-146" on="0"/>
        <pt x="480" y="-134" on="0"/>
        <pt x="441" y="-129" on="1"/>
        <pt x="478" y="-11" on="1"/>
        <pt x="391" y="-5" on="0"/>
        <pt x="247" y="70" on="0"/>
        <pt x="144" y="200" on="0"/>
        <pt x="88" y="383" on="0"/>
        <pt x="88" y="498" on="1"/>
        <pt x="88" y="612" on="0"/>
        <pt x="148" y="800" on="0"/>
        <pt x="263" y="936" on="0"/>
        <pt x="430" y="1011" on="0"/>
        <pt x="538" y="1011" on="1"/>
        <pt x="635" y="1011" on="0"/>
        <pt x="786" y="949" on="0"/>
        <pt x="842" y="896" on="1"/>
        <pt x="817" y="862" on="1"/>
        <pt x="812" y="857" on="0"/>
        <pt x="803" y="850" on="0"/>
        <pt x="795" y="850" on="1"/>
        <pt x="785" y="850" on="0"/>
        <pt x="750" y="877" on="0"/>
        <pt x="692" y="909" on="0"/>
        <pt x="605" y="936" on="0"/>
        <pt x="543" y="936" on="1"/>
        <pt x="457" y="936" on="0"/>
        <pt x="324" y="875" on="0"/>
        <pt x="233" y="761" on="0"/>
        <pt x="185" y="599" on="0"/>
        <pt x="185" y="498" on="1"/>
        <pt x="185" y="393" on="0"/>
        <pt x="234" y="231" on="0"/>
        <pt x="324" y="120" on="0"/>
        <pt x="452" y="62" on="0"/>
        <pt x="530" y="62" on="1"/>
        <pt x="602" y="62" on="0"/>
        <pt x="699" y="96" on="0"/>
        <pt x="762" y="136" on="0"/>
        <pt x="799" y="170" on="0"/>
        <pt x="810" y="170" on="1"/>
        <pt x="823" y="170" on="0"/>
        <pt x="830" y="160" on="1"/>
        <pt x="856" y="128" on="1"/>
        <pt x="811" y="70" on="0"/>
        <pt x="644" y="-8" on="0"/>
        <pt x="538" y="-12" on="1"/>
        <pt x="514" y="-91" on="1"/>
        <pt x="603" y="-107" on="0"/>
        <pt x="696" y="-167" on="0"/>
        <pt x="696" y="-226" on="1"/>
        <pt x="696" y="-256" on="0"/>
        <pt x="669" y="-304" on="0"/>
        <pt x="620" y="-337" on="0"/>
        <pt x="552" y="-355" on="0"/>
        <pt x="512" y="-355" on="1"/>
        <pt x="471" y="-355" on="0"/>
        <pt x="393" y="-332" on="0"/>
        <pt x="367" y="-313" on="1"/>
        <pt x="377" y="-285" on="1"/>
        <pt x="383" y="-273" on="0"/>
      </contour>
    </TTGlyph>
    <TTGlyph name="cedilla" xMin="132" yMin="-355" xMax="461" yMax="5">
      <contour>
        <pt x="158" y="-273" on="1"/>
        <pt x="163" y="-273" on="0"/>
        <pt x="180" y="-284" on="0"/>
        <pt x="207" y="-297" on="0"/>
        <pt x="247" y="-308" on="0"/>
        <pt x="276" y="-308" on="1"/>
        <pt x="327" y="-308" on="0"/>
        <pt x="384" y="-264" on="0"/>
        <pt x="384" y="-226" on="1"/>
        <pt x="384" y="-201" on="0"/>
        <pt x="358" y="-168" on="0"/>
        <pt x="310" y="-146" on="0"/>
        <pt x="245" y="-134" on="0"/>
        <pt x="206" y="-129" on="1"/>
        <pt x="248" y="5" on="1"/>
        <pt x="309" y="5" on="1"/>
        <pt x="279" y="-91" on="1"/>
        <pt x="368" y="-107" on="0"/>
        <pt x="461" y="-167" on="0"/>
        <pt x="461" y="-226" on="1"/>
        <pt x="461" y="-256" on="0"/>
        <pt x="434" y="-304" on="0"/>
        <pt x="385" y="-337" on="0"/>
        <pt x="317" y="-355" on="0"/>
        <pt x="277" y="-355" on="1"/>
        <pt x="236" y="-355" on="0"/>
        <pt x="158" y="-332" on="0"/>
        <pt x="132" y="-313" on="1"/>
        <pt x="142" y="-285" on="1"/>
        <pt x="148" y="-273" on="0"/>
      </contour>
    </TTGlyph>
    <TTGlyph name="cent" xMin="159" yMin="-253" xMax="995" yMax="1248">
      <contour>
        <pt x="589" y="-11" on="1"/>
        <pt x="493" y="-5" on="0"/>
        <pt x="335" y="69" on="0"/>
        <pt x="221" y="199" on="0"/>
        <pt x="159" y="382" on="0"/>
        <pt x="159" y="498" on="1"/>
        <pt x="159" y="610" on="0"/>
        <pt x="223" y="797" on="0"/>
        <pt x="346" y="932" on="0"/>
        <pt x="525" y="1009" on="0"/>
        <pt x="640" y="1011" on="1"/>
        <pt x="650" y="1216" on="1"/>
        <pt x="651" y="1229" on="0"/>
        <pt x="666" y="1248" on="0"/>
        <pt x="680" y="1248" on="1"/>
        <pt x="716" y="1248" on="1"/>
        <pt x="704" y="1008" on="1"/>
        <pt x="791" y="1000" on="0"/>
        <pt x="926" y="942" on="0"/>
        <pt x="979" y="896" on="1"/>
        <pt x="955" y="863" on="1"/>
        <pt x="950" y="858" on="0"/>
        <pt x="941" y="851" on="0"/>
        <pt x="933" y="851" on="1"/>
        <pt x="924" y="851" on="0"/>
        <pt x="891" y="874" on="0"/>
        <pt x="836" y="903" on="0"/>
        <pt x="756" y="930" on="0"/>
        <pt x="700" y="935" on="1"/>
        <pt x="657" y="61" on="1"/>
        <pt x="732" y="63" on="0"/>
        <pt x="834" y="97" on="0"/>
        <pt x="901" y="136" on="0"/>
        <pt x="940" y="168" on="0"/>
        <pt x="951" y="168" on="1"/>
        <pt x="959" y="168" on="0"/>
        <pt x="967" y="164" on="0"/>
        <pt x="971" y="159" on="1"/>
        <pt x="995" y="128" on="1"/>
        <pt x="972" y="99" on="0"/>
        <pt x="903" y="50" on="0"/>
        <pt x="815" y="13" on="0"/>
        <pt x="711" y="-10" on="0"/>
        <pt x="653" y="-12" on="1"/>
        <pt x="643" y="-222" on="1"/>
        <pt x="642" y="-235" on="0"/>
        <pt x="627" y="-253" on="0"/>
        <pt x="613" y="-253" on="1"/>
        <pt x="577" y="-253" on="1"/>
      </contour>
      <contour>
        <pt x="253" y="498" on="1"/>
        <pt x="253" y="400" on="0"/>
        <pt x="300" y="245" on="0"/>
        <pt x="389" y="134" on="0"/>
        <pt x="514" y="70" on="0"/>
        <pt x="592" y="63" on="1"/>
        <pt x="636" y="936" on="1"/>
        <pt x="544" y="933" on="0"/>
        <pt x="401" y="870" on="0"/>
        <pt x="304" y="757" on="0"/>
        <pt x="253" y="597" on="0"/>
      </contour>
    </TTGlyph>
    <TTGlyph name="circumflex" xMin="32" yMin="1169" xMax="552" yMax="1415">
      <contour>
        <pt x="552" y="1169" on="1"/>
        <pt x="487" y="1169" on="1"/>
        <pt x="471" y="1169" on="0"/>
        <pt x="460" y="1181" on="1"/>
        <pt x="304" y="1344" on="1"/>
        <pt x="298" y="1348" on="0"/>
        <pt x="293" y="1355" on="1"/>
        <pt x="291" y="1351" on="0"/>
        <pt x="285" y="1346" on="0"/>
        <pt x="283" y="1344" on="1"/>
        <pt x="126" y="1181" on="1"/>
        <pt x="121" y="1176" on="0"/>
        <pt x="107" y="1169" on="0"/>
        <pt x="99" y="1169" on="1"/>
        <pt x="32" y="1169" on="1"/>
        <pt x="250" y="1415" on="1"/>
        <pt x="335" y="1415" on="1"/>
      </contour>
    </TTGlyph>
    <TTGlyph name="circumflex.case" xMin="12" yMin="1542" xMax="572" yMax="1741">
      <contour>
        <pt x="572" y="1542" on="1"/>
        <pt x="499" y="1542" on="1"/>
        <pt x="491" y="1542" on="0"/>
        <pt x="472" y="1547" on="0"/>
        <pt x="465" y="1552" on="1"/>
        <pt x="309" y="1675" on="1"/>
        <pt x="301" y="1681" on="0"/>
        <pt x="295" y="1687" on="0"/>
        <pt x="293" y="1689" on="1"/>
        <pt x="291" y="1687" on="0"/>
        <pt x="284" y="1681" on="0"/>
        <pt x="276" y="1675" on="1"/>
        <pt x="119" y="1552" on="1"/>
        <pt x="112" y="1547" on="0"/>
        <pt x="94" y="1542" on="0"/>
        <pt x="86" y="1542" on="1"/>
        <pt x="12" y="1542" on="1"/>
        <pt x="247" y="1741" on="1"/>
        <pt x="337" y="1741" on="1"/>
      </contour>
    </TTGlyph>
    <TTGlyph name="colon" xMin="145" yMin="-15" xMax="330" yMax="967">
      <contour>
        <pt x="145" y="77" on="1"/>
        <pt x="145" y="96" on="0"/>
        <pt x="159" y="130" on="0"/>
        <pt x="184" y="155" on="0"/>
        <pt x="217" y="170" on="0"/>
        <pt x="237" y="170" on="1"/>
        <pt x="256" y="170" on="0"/>
        <pt x="290" y="155" on="0"/>
        <pt x="315" y="130" on="0"/>
        <pt x="330" y="96" on="0"/>
        <pt x="330" y="77" on="1"/>
        <pt x="330" y="57" on="0"/>
        <pt x="315" y="24" on="0"/>
        <pt x="290" y="-1" on="0"/>
        <pt x="256" y="-15" on="0"/>
        <pt x="237" y="-15" on="1"/>
        <pt x="198" y="-15" on="0"/>
        <pt x="145" y="38" on="0"/>
      </contour>
      <contour>
        <pt x="145" y="874" on="1"/>
        <pt x="145" y="893" on="0"/>
        <pt x="159" y="927" on="0"/>
        <pt x="184" y="952" on="0"/>
        <pt x="217" y="967" on="0"/>
        <pt x="237" y="967" on="1"/>
        <pt x="256" y="967" on="0"/>
        <pt x="290" y="952" on="0"/>
        <pt x="315" y="927" on="0"/>
        <pt x="330" y="893" on="0"/>
        <pt x="330" y="874" on="1"/>
        <pt x="330" y="854" on="0"/>
        <pt x="315" y="821" on="0"/>
        <pt x="290" y="796" on="0"/>
        <pt x="256" y="782" on="0"/>
        <pt x="237" y="782" on="1"/>
        <pt x="198" y="782" on="0"/>
        <pt x="145" y="835" on="0"/>
      </contour>
    </TTGlyph>
    <TTGlyph name="comma" xMin="110" yMin="-253" xMax="287" yMax="170">
      <contour>
        <pt x="110" y="85" on="1"/>
        <pt x="110" y="120" on="0"/>
        <pt x="158" y="170" on="0"/>
        <pt x="197" y="170" on="1"/>
        <pt x="240" y="170" on="0"/>
        <pt x="287" y="111" on="0"/>
        <pt x="287" y="63" on="1"/>
        <pt x="287" y="22" on="0"/>
        <pt x="266" y="-63" on="0"/>
        <pt x="226" y="-145" on="0"/>
        <pt x="170" y="-221" on="0"/>
        <pt x="136" y="-253" on="1"/>
        <pt x="121" y="-238" on="1"/>
        <pt x="113" y="-230" on="0"/>
        <pt x="113" y="-221" on="1"/>
        <pt x="113" y="-216" on="0"/>
        <pt x="119" y="-206" on="0"/>
        <pt x="123" y="-202" on="1"/>
        <pt x="133" y="-192" on="0"/>
        <pt x="164" y="-153" on="0"/>
        <pt x="195" y="-100" on="0"/>
        <pt x="220" y="-36" on="0"/>
        <pt x="224" y="0" on="1"/>
        <pt x="218" y="-2" on="0"/>
        <pt x="203" y="-4" on="0"/>
        <pt x="194" y="-4" on="1"/>
        <pt x="157" y="-4" on="0"/>
        <pt x="110" y="46" on="0"/>
      </contour>
    </TTGlyph>
    <TTGlyph name="copyright" xMin="85" yMin="-14" xMax="1528" yMax="1430">
      <contour>
        <pt x="1080" y="414" on="1"/>
        <pt x="1092" y="424" on="0"/>
        <pt x="1103" y="424" on="1"/>
        <pt x="1108" y="424" on="0"/>
        <pt x="1116" y="420" on="0"/>
        <pt x="1118" y="418" on="1"/>
        <pt x="1149" y="387" on="1"/>
        <pt x="1090" y="328" on="0"/>
        <pt x="930" y="258" on="0"/>
        <pt x="814" y="258" on="1"/>
        <pt x="718" y="258" on="0"/>
        <pt x="557" y="323" on="0"/>
        <pt x="442" y="441" on="0"/>
        <pt x="378" y="607" on="0"/>
        <pt x="378" y="709" on="1"/>
        <pt x="378" y="809" on="0"/>
        <pt x="445" y="975" on="0"/>
        <pt x="565" y="1094" on="0"/>
        <pt x="731" y="1160" on="0"/>
        <pt x="830" y="1160" on="1"/>
        <pt x="882" y="1160" on="0"/>
        <pt x="969" y="1145" on="0"/>
        <pt x="1043" y="1116" on="0"/>
        <pt x="1107" y="1075" on="0"/>
        <pt x="1138" y="1048" on="1"/>
        <pt x="1114" y="1015" on="1"/>
        <pt x="1107" y="1004" on="0"/>
        <pt x="1094" y="1004" on="1"/>
        <pt x="1084" y="1004" on="0"/>
        <pt x="1051" y="1030" on="0"/>
        <pt x="993" y="1061" on="0"/>
        <pt x="902" y="1087" on="0"/>
        <pt x="834" y="1087" on="1"/>
        <pt x="751" y="1087" on="0"/>
        <pt x="615" y="1034" on="0"/>
        <pt x="518" y="936" on="0"/>
        <pt x="465" y="796" on="0"/>
        <pt x="465" y="709" on="1"/>
        <pt x="465" y="619" on="0"/>
        <pt x="518" y="479" on="0"/>
        <pt x="612" y="382" on="0"/>
        <pt x="741" y="331" on="0"/>
        <pt x="818" y="331" on="1"/>
        <pt x="903" y="331" on="0"/>
        <pt x="1026" y="372" on="0"/>
      </contour>
      <contour>
        <pt x="85" y="708" on="1"/>
        <pt x="85" y="807" on="0"/>
        <pt x="137" y="992" on="0"/>
        <pt x="230" y="1152" on="0"/>
        <pt x="362" y="1284" on="0"/>
        <pt x="522" y="1378" on="0"/>
        <pt x="706" y="1430" on="0"/>
        <pt x="806" y="1430" on="1"/>
        <pt x="906" y="1430" on="0"/>
        <pt x="1090" y="1378" on="0"/>
        <pt x="1251" y="1284" on="0"/>
        <pt x="1383" y="1152" on="0"/>
        <pt x="1476" y="992" on="0"/>
        <pt x="1528" y="807" on="0"/>
        <pt x="1528" y="708" on="1"/>
        <pt x="1528" y="608" on="0"/>
        <pt x="1476" y="424" on="0"/>
        <pt x="1383" y="264" on="0"/>
        <pt x="1251" y="132" on="0"/>
        <pt x="1090" y="38" on="0"/>
        <pt x="906" y="-14" on="0"/>
        <pt x="806" y="-14" on="1"/>
        <pt x="707" y="-14" on="0"/>
        <pt x="522" y="38" on="0"/>
        <pt x="362" y="132" on="0"/>
        <pt x="230" y="264" on="0"/>
        <pt x="137" y="424" on="0"/>
        <pt x="85" y="608" on="0"/>
      </contour>
      <contour>
        <pt x="144" y="708" on="1"/>
        <pt x="144" y="569" on="0"/>
        <pt x="247" y="326" on="0"/>
        <pt x="427" y="145" on="0"/>
        <pt x="668" y="41" on="0"/>
        <pt x="806" y="41" on="1"/>
        <pt x="944" y="41" on="0"/>
        <pt x="1187" y="145" on="0"/>
        <pt x="1367" y="326" on="0"/>
        <pt x="1471" y="569" on="0"/>
        <pt x="1471" y="708" on="1"/>
        <pt x="1471" y="847" on="0"/>
        <pt x="1367" y="1090" on="0"/>
        <pt x="1187" y="1272" on="0"/>
        <pt x="944" y="1377" on="0"/>
        <pt x="806" y="1377" on="1"/>
        <pt x="668" y="1377" on="0"/>
        <pt x="427" y="1272" on="0"/>
        <pt x="247" y="1090" on="0"/>
        <pt x="144" y="847" on="0"/>
      </contour>
    </TTGlyph>
    <TTGlyph name="currency" xMin="159" yMin="250" xMax="1001" yMax="1092">
      <contour>
        <pt x="237" y="671" on="1"/>
        <pt x="237" y="733" on="0"/>
        <pt x="277" y="842" on="0"/>
        <pt x="313" y="887" on="1"/>
        <pt x="159" y="1041" on="1"/>
        <pt x="208" y="1091" on="1"/>
        <pt x="362" y="937" on="1"/>
        <pt x="407" y="973" on="0"/>
        <pt x="517" y="1015" on="0"/>
        <pt x="580" y="1015" on="1"/>
        <pt x="642" y="1015" on="0"/>
        <pt x="751" y="974" on="0"/>
        <pt x="796" y="938" on="1"/>
        <pt x="950" y="1092" on="1"/>
        <pt x="999" y="1042" on="1"/>
        <pt x="846" y="889" on="1"/>
        <pt x="882" y="844" on="0"/>
        <pt x="924" y="734" on="0"/>
        <pt x="924" y="671" on="1"/>
        <pt x="924" y="609" on="0"/>
        <pt x="883" y="500" on="0"/>
        <pt x="847" y="455" on="1"/>
        <pt x="1001" y="301" on="1"/>
        <pt x="951" y="251" on="1"/>
        <pt x="797" y="405" on="1"/>
        <pt x="752" y="369" on="0"/>
        <pt x="642" y="328" on="0"/>
        <pt x="580" y="328" on="1"/>
        <pt x="518" y="328" on="0"/>
        <pt x="409" y="368" on="0"/>
        <pt x="364" y="404" on="1"/>
        <pt x="209" y="250" on="1"/>
        <pt x="160" y="300" on="1"/>
        <pt x="314" y="453" on="1"/>
        <pt x="278" y="498" on="0"/>
        <pt x="237" y="608" on="0"/>
      </contour>
      <contour>
        <pt x="309" y="671" on="1"/>
        <pt x="309" y="615" on="0"/>
        <pt x="352" y="517" on="0"/>
        <pt x="425" y="444" on="0"/>
        <pt x="524" y="401" on="0"/>
        <pt x="580" y="401" on="1"/>
        <pt x="636" y="401" on="0"/>
        <pt x="735" y="444" on="0"/>
        <pt x="809" y="517" on="0"/>
        <pt x="852" y="615" on="0"/>
        <pt x="852" y="671" on="1"/>
        <pt x="852" y="727" on="0"/>
        <pt x="809" y="826" on="0"/>
        <pt x="735" y="900" on="0"/>
        <pt x="636" y="943" on="0"/>
        <pt x="580" y="943" on="1"/>
        <pt x="524" y="943" on="0"/>
        <pt x="425" y="900" on="0"/>
        <pt x="352" y="826" on="0"/>
        <pt x="309" y="727" on="0"/>
      </contour>
    </TTGlyph>
    <TTGlyph name="d" xMin="87" yMin="-13" xMax="920" yMax="1455">
      <contour>
        <pt x="867" y="0" on="1"/>
        <pt x="842" y="0" on="0"/>
        <pt x="838" y="26" on="1"/>
        <pt x="828" y="183" on="1"/>
        <pt x="762" y="93" on="0"/>
        <pt x="585" y="-13" on="0"/>
        <pt x="475" y="-13" on="1"/>
        <pt x="292" y="-13" on="0"/>
        <pt x="87" y="241" on="0"/>
        <pt x="87" y="495" on="1"/>
        <pt x="87" y="604" on="0"/>
        <pt x="144" y="793" on="0"/>
        <pt x="255" y="932" on="0"/>
        <pt x="416" y="1012" on="0"/>
        <pt x="521" y="1012" on="1"/>
        <pt x="622" y="1012" on="0"/>
        <pt x="770" y="937" on="0"/>
        <pt x="824" y="865" on="1"/>
        <pt x="824" y="1455" on="1"/>
        <pt x="920" y="1455" on="1"/>
        <pt x="920" y="0" on="1"/>
      </contour>
      <contour>
        <pt x="502" y="64" on="1"/>
        <pt x="601" y="64" on="0"/>
        <pt x="761" y="166" on="0"/>
        <pt x="824" y="257" on="1"/>
        <pt x="824" y="782" on="1"/>
        <pt x="766" y="867" on="0"/>
        <pt x="627" y="937" on="0"/>
        <pt x="539" y="937" on="1"/>
        <pt x="451" y="937" on="0"/>
        <pt x="319" y="873" on="0"/>
        <pt x="230" y="756" on="0"/>
        <pt x="185" y="593" on="0"/>
        <pt x="185" y="495" on="1"/>
        <pt x="185" y="273" on="0"/>
        <pt x="349" y="64" on="0"/>
      </contour>
    </TTGlyph>
    <TTGlyph name="dagger" xMin="160" yMin="-362" xMax="996" yMax="1445">
      <contour>
        <pt x="160" y="924" on="1"/>
        <pt x="160" y="941" on="0"/>
        <pt x="183" y="969" on="0"/>
        <pt x="206" y="969" on="1"/>
        <pt x="283" y="967" on="0"/>
        <pt x="457" y="952" on="0"/>
        <pt x="540" y="949" on="1"/>
        <pt x="527" y="1432" on="1"/>
        <pt x="550" y="1445" on="0"/>
        <pt x="578" y="1445" on="1"/>
        <pt x="605" y="1445" on="0"/>
        <pt x="628" y="1432" on="1"/>
        <pt x="615" y="949" on="1"/>
        <pt x="697" y="952" on="0"/>
        <pt x="871" y="967" on="0"/>
        <pt x="949" y="969" on="1"/>
        <pt x="972" y="969" on="0"/>
        <pt x="996" y="941" on="0"/>
        <pt x="996" y="924" on="1"/>
        <pt x="996" y="892" on="1"/>
        <pt x="615" y="892" on="1"/>
        <pt x="615" y="397" on="1"/>
        <pt x="628" y="-349" on="1"/>
        <pt x="605" y="-362" on="0"/>
        <pt x="578" y="-362" on="1"/>
        <pt x="550" y="-362" on="0"/>
        <pt x="527" y="-349" on="1"/>
        <pt x="540" y="397" on="1"/>
        <pt x="540" y="892" on="1"/>
        <pt x="160" y="892" on="1"/>
      </contour>
    </TTGlyph>
    <TTGlyph name="daggerdbl" xMin="160" yMin="-362" xMax="996" yMax="1445">
      <contour>
        <pt x="160" y="190" on="1"/>
        <pt x="540" y="190" on="1"/>
        <pt x="540" y="892" on="1"/>
        <pt x="160" y="892" on="1"/>
        <pt x="160" y="924" on="1"/>
        <pt x="160" y="941" on="0"/>
        <pt x="183" y="969" on="0"/>
        <pt x="206" y="969" on="1"/>
        <pt x="283" y="967" on="0"/>
        <pt x="457" y="952" on="0"/>
        <pt x="540" y="949" on="1"/>
        <pt x="527" y="1432" on="1"/>
        <pt x="550" y="1445" on="0"/>
        <pt x="578" y="1445" on="1"/>
        <pt x="605" y="1445" on="0"/>
        <pt x="628" y="1432" on="1"/>
        <pt x="615" y="949" on="1"/>
        <pt x="697" y="952" on="0"/>
        <pt x="871" y="967" on="0"/>
        <pt x="949" y="969" on="1"/>
        <pt x="972" y="969" on="0"/>
        <pt x="996" y="941" on="0"/>
        <pt x="996" y="924" on="1"/>
        <pt x="996" y="892" on="1"/>
        <pt x="615" y="892" on="1"/>
        <pt x="615" y="190" on="1"/>
        <pt x="996" y="190" on="1"/>
        <pt x="996" y="158" on="1"/>
        <pt x="996" y="141" on="0"/>
        <pt x="972" y="114" on="0"/>
        <pt x="949" y="114" on="1"/>
        <pt x="871" y="116" on="0"/>
        <pt x="697" y="131" on="0"/>
        <pt x="615" y="134" on="1"/>
        <pt x="628" y="-349" on="1"/>
        <pt x="605" y="-362" on="0"/>
        <pt x="578" y="-362" on="1"/>
        <pt x="550" y="-362" on="0"/>
        <pt x="527" y="-349" on="1"/>
        <pt x="540" y="134" on="1"/>
        <pt x="457" y="131" on="0"/>
        <pt x="283" y="116" on="0"/>
        <pt x="206" y="114" on="1"/>
        <pt x="183" y="114" on="0"/>
        <pt x="160" y="141" on="0"/>
        <pt x="160" y="158" on="1"/>
      </contour>
    </TTGlyph>
    <TTGlyph name="degree" xMin="91" yMin="836" xMax="693" yMax="1432">
      <contour>
        <pt x="91" y="1134" on="1"/>
        <pt x="91" y="1196" on="0"/>
        <pt x="138" y="1305" on="0"/>
        <pt x="219" y="1386" on="0"/>
        <pt x="329" y="1432" on="0"/>
        <pt x="392" y="1432" on="1"/>
        <pt x="455" y="1432" on="0"/>
        <pt x="565" y="1386" on="0"/>
        <pt x="646" y="1305" on="0"/>
        <pt x="693" y="1196" on="0"/>
        <pt x="693" y="1134" on="1"/>
        <pt x="693" y="1072" on="0"/>
        <pt x="646" y="964" on="0"/>
        <pt x="565" y="883" on="0"/>
        <pt x="455" y="836" on="0"/>
        <pt x="392" y="836" on="1"/>
        <pt x="329" y="836" on="0"/>
        <pt x="219" y="883" on="0"/>
        <pt x="138" y="964" on="0"/>
        <pt x="91" y="1072" on="0"/>
      </contour>
      <contour>
        <pt x="162" y="1134" on="1"/>
        <pt x="162" y="1086" on="0"/>
        <pt x="198" y="1002" on="0"/>
        <pt x="260" y="940" on="0"/>
        <pt x="344" y="904" on="0"/>
        <pt x="392" y="904" on="1"/>
        <pt x="440" y="904" on="0"/>
        <pt x="524" y="940" on="0"/>
        <pt x="585" y="1002" on="0"/>
        <pt x="621" y="1086" on="0"/>
        <pt x="621" y="1134" on="1"/>
        <pt x="621" y="1182" on="0"/>
        <pt x="585" y="1266" on="0"/>
        <pt x="524" y="1329" on="0"/>
        <pt x="440" y="1365" on="0"/>
        <pt x="392" y="1365" on="1"/>
        <pt x="344" y="1365" on="0"/>
        <pt x="260" y="1329" on="0"/>
        <pt x="198" y="1266" on="0"/>
        <pt x="162" y="1182" on="0"/>
      </contour>
    </TTGlyph>
    <TTGlyph name="dieresis" xMin="39" yMin="1204" xMax="546" yMax="1367">
      <contour>
        <pt x="203" y="1284" on="1"/>
        <pt x="203" y="1268" on="0"/>
        <pt x="189" y="1239" on="0"/>
        <pt x="167" y="1217" on="0"/>
        <pt x="136" y="1204" on="0"/>
        <pt x="120" y="1204" on="1"/>
        <pt x="104" y="1204" on="0"/>
        <pt x="75" y="1217" on="0"/>
        <pt x="52" y="1239" on="0"/>
        <pt x="39" y="1268" on="0"/>
        <pt x="39" y="1284" on="1"/>
        <pt x="39" y="1301" on="0"/>
        <pt x="52" y="1331" on="0"/>
        <pt x="75" y="1354" on="0"/>
        <pt x="104" y="1367" on="0"/>
        <pt x="120" y="1367" on="1"/>
        <pt x="136" y="1367" on="0"/>
        <pt x="167" y="1354" on="0"/>
        <pt x="189" y="1331" on="0"/>
        <pt x="203" y="1301" on="0"/>
      </contour>
      <contour>
        <pt x="546" y="1284" on="1"/>
        <pt x="546" y="1268" on="0"/>
        <pt x="532" y="1239" on="0"/>
        <pt x="510" y="1217" on="0"/>
        <pt x="479" y="1204" on="0"/>
        <pt x="463" y="1204" on="1"/>
        <pt x="446" y="1204" on="0"/>
        <pt x="417" y="1217" on="0"/>
        <pt x="394" y="1239" on="0"/>
        <pt x="381" y="1268" on="0"/>
        <pt x="381" y="1284" on="1"/>
        <pt x="381" y="1301" on="0"/>
        <pt x="394" y="1331" on="0"/>
        <pt x="417" y="1354" on="0"/>
        <pt x="446" y="1367" on="0"/>
        <pt x="463" y="1367" on="1"/>
        <pt x="479" y="1367" on="0"/>
        <pt x="510" y="1354" on="0"/>
        <pt x="532" y="1331" on="0"/>
        <pt x="546" y="1301" on="0"/>
      </contour>
    </TTGlyph>
    <TTGlyph name="dieresis.case" xMin="3" yMin="1586" xMax="581" yMax="1747">
      <contour>
        <pt x="165" y="1665" on="1"/>
        <pt x="165" y="1649" on="0"/>
        <pt x="151" y="1620" on="0"/>
        <pt x="129" y="1599" on="0"/>
        <pt x="99" y="1586" on="0"/>
        <pt x="83" y="1586" on="1"/>
        <pt x="67" y="1586" on="0"/>
        <pt x="38" y="1599" on="0"/>
        <pt x="16" y="1620" on="0"/>
        <pt x="3" y="1649" on="0"/>
        <pt x="3" y="1665" on="1"/>
        <pt x="3" y="1681" on="0"/>
        <pt x="16" y="1711" on="0"/>
        <pt x="38" y="1734" on="0"/>
        <pt x="67" y="1747" on="0"/>
        <pt x="83" y="1747" on="1"/>
        <pt x="99" y="1747" on="0"/>
        <pt x="129" y="1734" on="0"/>
        <pt x="151" y="1711" on="0"/>
        <pt x="165" y="1681" on="0"/>
      </contour>
      <contour>
        <pt x="581" y="1665" on="1"/>
        <pt x="581" y="1649" on="0"/>
        <pt x="568" y="1620" on="0"/>
        <pt x="545" y="1599" on="0"/>
        <pt x="516" y="1586" on="0"/>
        <pt x="500" y="1586" on="1"/>
        <pt x="483" y="1586" on="0"/>
        <pt x="454" y="1599" on="0"/>
        <pt x="432" y="1620" on="0"/>
        <pt x="419" y="1649" on="0"/>
        <pt x="419" y="1665" on="1"/>
        <pt x="419" y="1698" on="0"/>
        <pt x="467" y="1747" on="0"/>
        <pt x="500" y="1747" on="1"/>
        <pt x="516" y="1747" on="0"/>
        <pt x="545" y="1734" on="0"/>
        <pt x="568" y="1711" on="0"/>
        <pt x="581" y="1681" on="0"/>
      </contour>
    </TTGlyph>
    <TTGlyph name="divide" xMin="109" yMin="221" xMax="1048" yMax="1119">
      <contour>
        <pt x="109" y="707" on="1"/>
        <pt x="1048" y="707" on="1"/>
        <pt x="1048" y="634" on="1"/>
        <pt x="109" y="634" on="1"/>
      </contour>
      <contour>
        <pt x="486" y="1025" on="1"/>
        <pt x="486" y="1064" on="0"/>
        <pt x="539" y="1119" on="0"/>
        <pt x="578" y="1119" on="1"/>
        <pt x="597" y="1119" on="0"/>
        <pt x="631" y="1104" on="0"/>
        <pt x="656" y="1079" on="0"/>
        <pt x="671" y="1044" on="0"/>
        <pt x="671" y="1025" on="1"/>
        <pt x="671" y="1005" on="0"/>
        <pt x="656" y="972" on="0"/>
        <pt x="631" y="947" on="0"/>
        <pt x="597" y="933" on="0"/>
        <pt x="578" y="933" on="1"/>
        <pt x="539" y="933" on="0"/>
        <pt x="486" y="986" on="0"/>
      </contour>
      <contour>
        <pt x="486" y="313" on="1"/>
        <pt x="486" y="352" on="0"/>
        <pt x="539" y="407" on="0"/>
        <pt x="578" y="407" on="1"/>
        <pt x="597" y="407" on="0"/>
        <pt x="631" y="392" on="0"/>
        <pt x="656" y="367" on="0"/>
        <pt x="671" y="332" on="0"/>
        <pt x="671" y="313" on="1"/>
        <pt x="671" y="293" on="0"/>
        <pt x="656" y="260" on="0"/>
        <pt x="631" y="235" on="0"/>
        <pt x="597" y="221" on="0"/>
        <pt x="578" y="221" on="1"/>
        <pt x="539" y="221" on="0"/>
        <pt x="486" y="274" on="0"/>
      </contour>
    </TTGlyph>
    <TTGlyph name="dollar" xMin="152" yMin="-257" xMax="1034" yMax="1628">
      <contour>
        <pt x="542" y="-15" on="1"/>
        <pt x="414" y="-9" on="0"/>
        <pt x="224" y="89" on="0"/>
        <pt x="152" y="169" on="1"/>
        <pt x="179" y="208" on="1"/>
        <pt x="191" y="223" on="0"/>
        <pt x="207" y="223" on="1"/>
        <pt x="216" y="223" on="0"/>
        <pt x="243" y="201" on="0"/>
        <pt x="281" y="168" on="0"/>
        <pt x="333" y="129" on="0"/>
        <pt x="402" y="94" on="0"/>
        <pt x="490" y="68" on="0"/>
        <pt x="546" y="65" on="1"/>
        <pt x="578" y="701" on="1"/>
        <pt x="510" y="722" on="0"/>
        <pt x="381" y="774" on="0"/>
        <pt x="280" y="855" on="0"/>
        <pt x="218" y="974" on="0"/>
        <pt x="218" y="1064" on="1"/>
        <pt x="218" y="1133" on="0"/>
        <pt x="270" y="1262" on="0"/>
        <pt x="371" y="1363" on="0"/>
        <pt x="519" y="1425" on="0"/>
        <pt x="614" y="1428" on="1"/>
        <pt x="623" y="1596" on="1"/>
        <pt x="624" y="1610" on="0"/>
        <pt x="639" y="1628" on="0"/>
        <pt x="653" y="1628" on="1"/>
        <pt x="689" y="1628" on="1"/>
        <pt x="678" y="1427" on="1"/>
        <pt x="779" y="1420" on="0"/>
        <pt x="931" y="1345" on="0"/>
        <pt x="994" y="1282" on="1"/>
        <pt x="972" y="1248" on="1"/>
        <pt x="962" y="1231" on="0"/>
        <pt x="946" y="1231" on="1"/>
        <pt x="934" y="1231" on="0"/>
        <pt x="895" y="1264" on="0"/>
        <pt x="832" y="1304" on="0"/>
        <pt x="739" y="1341" on="0"/>
        <pt x="674" y="1346" on="1"/>
        <pt x="645" y="774" on="1"/>
        <pt x="692" y="759" on="0"/>
        <pt x="787" y="727" on="0"/>
        <pt x="874" y="687" on="0"/>
        <pt x="948" y="635" on="0"/>
        <pt x="1003" y="564" on="0"/>
        <pt x="1034" y="473" on="0"/>
        <pt x="1034" y="413" on="1"/>
        <pt x="1034" y="327" on="0"/>
        <pt x="976" y="175" on="0"/>
        <pt x="867" y="60" on="0"/>
        <pt x="708" y="-10" on="0"/>
        <pt x="606" y="-15" on="1"/>
        <pt x="595" y="-226" on="1"/>
        <pt x="594" y="-239" on="0"/>
        <pt x="579" y="-257" on="0"/>
        <pt x="566" y="-257" on="1"/>
        <pt x="530" y="-257" on="1"/>
      </contour>
      <contour>
        <pt x="944" y="398" on="1"/>
        <pt x="944" y="464" on="0"/>
        <pt x="894" y="556" on="0"/>
        <pt x="810" y="620" on="0"/>
        <pt x="701" y="663" on="0"/>
        <pt x="641" y="682" on="1"/>
        <pt x="610" y="65" on="1"/>
        <pt x="690" y="70" on="0"/>
        <pt x="815" y="125" on="0"/>
        <pt x="900" y="214" on="0"/>
        <pt x="944" y="331" on="0"/>
      </contour>
      <contour>
        <pt x="307" y="1072" on="1"/>
        <pt x="307" y="1010" on="0"/>
        <pt x="351" y="922" on="0"/>
        <pt x="427" y="859" on="0"/>
        <pt x="526" y="814" on="0"/>
        <pt x="582" y="795" on="1"/>
        <pt x="610" y="1347" on="1"/>
        <pt x="534" y="1343" on="0"/>
        <pt x="421" y="1295" on="0"/>
        <pt x="345" y="1220" on="0"/>
        <pt x="307" y="1124" on="0"/>
      </contour>
    </TTGlyph>
    <TTGlyph name="dotaccent" xMin="204" yMin="1263" xMax="381" yMax="1439">
      <contour>
        <pt x="381" y="1350" on="1"/>
        <pt x="381" y="1332" on="0"/>
        <pt x="366" y="1301" on="0"/>
        <pt x="342" y="1277" on="0"/>
        <pt x="310" y="1263" on="0"/>
        <pt x="292" y="1263" on="1"/>
        <pt x="274" y="1263" on="0"/>
        <pt x="242" y="1277" on="0"/>
        <pt x="218" y="1301" on="0"/>
        <pt x="204" y="1332" on="0"/>
        <pt x="204" y="1350" on="1"/>
        <pt x="204" y="1368" on="0"/>
        <pt x="218" y="1401" on="0"/>
        <pt x="242" y="1425" on="0"/>
        <pt x="274" y="1439" on="0"/>
        <pt x="292" y="1439" on="1"/>
        <pt x="310" y="1439" on="0"/>
        <pt x="342" y="1425" on="0"/>
        <pt x="366" y="1401" on="0"/>
        <pt x="381" y="1368" on="0"/>
      </contour>
    </TTGlyph>
    <TTGlyph name="dotaccent.case" xMin="206" yMin="1592" xMax="379" yMax="1764">
      <contour>
        <pt x="379" y="1677" on="1"/>
        <pt x="379" y="1660" on="0"/>
        <pt x="364" y="1629" on="0"/>
        <pt x="340" y="1606" on="0"/>
        <pt x="308" y="1592" on="0"/>
        <pt x="291" y="1592" on="1"/>
        <pt x="274" y="1592" on="0"/>
        <pt x="243" y="1606" on="0"/>
        <pt x="220" y="1629" on="0"/>
        <pt x="206" y="1660" on="0"/>
        <pt x="206" y="1677" on="1"/>
        <pt x="206" y="1695" on="0"/>
        <pt x="220" y="1726" on="0"/>
        <pt x="243" y="1750" on="0"/>
        <pt x="274" y="1764" on="0"/>
        <pt x="291" y="1764" on="1"/>
        <pt x="308" y="1764" on="0"/>
        <pt x="340" y="1750" on="0"/>
        <pt x="364" y="1726" on="0"/>
        <pt x="379" y="1695" on="0"/>
      </contour>
    </TTGlyph>
    <TTGlyph name="dotlessi" xMin="190" yMin="0" xMax="285" yMax="995">
      <contour>
        <pt x="285" y="995" on="1"/>
        <pt x="285" y="0" on="1"/>
        <pt x="190" y="0" on="1"/>
        <pt x="190" y="995" on="1"/>
      </contour>
    </TTGlyph>
    <TTGlyph name="e" xMin="88" yMin="-13" xMax="928" yMax="1011">
      <contour>
        <pt x="537" y="1011" on="1"/>
        <pt x="621" y="1011" on="0"/>
        <pt x="764" y="953" on="0"/>
        <pt x="869" y="842" on="0"/>
        <pt x="928" y="680" on="0"/>
        <pt x="928" y="575" on="1"/>
        <pt x="928" y="553" on="0"/>
        <pt x="915" y="537" on="0"/>
        <pt x="901" y="537" on="1"/>
        <pt x="182" y="537" on="1"/>
        <pt x="182" y="518" on="1"/>
        <pt x="182" y="406" on="0"/>
        <pt x="234" y="236" on="0"/>
        <pt x="330" y="121" on="0"/>
        <pt x="466" y="63" on="0"/>
        <pt x="550" y="63" on="1"/>
        <pt x="625" y="63" on="0"/>
        <pt x="735" y="96" on="0"/>
        <pt x="810" y="137" on="0"/>
        <pt x="854" y="170" on="0"/>
        <pt x="864" y="170" on="1"/>
        <pt x="877" y="170" on="0"/>
        <pt x="884" y="160" on="1"/>
        <pt x="910" y="128" on="1"/>
        <pt x="886" y="98" on="0"/>
        <pt x="807" y="46" on="0"/>
        <pt x="710" y="9" on="0"/>
        <pt x="599" y="-13" on="0"/>
        <pt x="543" y="-13" on="1"/>
        <pt x="441" y="-13" on="0"/>
        <pt x="273" y="58" on="0"/>
        <pt x="153" y="194" on="0"/>
        <pt x="88" y="391" on="0"/>
        <pt x="88" y="518" on="1"/>
        <pt x="88" y="625" on="0"/>
        <pt x="149" y="806" on="0"/>
        <pt x="264" y="937" on="0"/>
        <pt x="431" y="1011" on="0"/>
      </contour>
      <contour>
        <pt x="538" y="940" on="1"/>
        <pt x="461" y="940" on="0"/>
        <pt x="339" y="892" on="0"/>
        <pt x="250" y="802" on="0"/>
        <pt x="195" y="676" on="0"/>
        <pt x="186" y="598" on="1"/>
        <pt x="842" y="598" on="1"/>
        <pt x="842" y="678" on="0"/>
        <pt x="798" y="805" on="0"/>
        <pt x="718" y="893" on="0"/>
        <pt x="606" y="940" on="0"/>
      </contour>
    </TTGlyph>
    <TTGlyph name="eacute" xMin="88" yMin="-13" xMax="928" yMax="1431">
      <component glyphName="e" x="0" y="0" flags="0x204"/>
      <component glyphName="acute" x="245" y="0" flags="0x4"/>
    </TTGlyph>
    <TTGlyph name="ecircumflex" xMin="88" yMin="-13" xMax="928" yMax="1415">
      <component glyphName="e" x="0" y="0" flags="0x204"/>
      <component glyphName="circumflex" x="245" y="0" flags="0x4"/>
    </TTGlyph>
    <TTGlyph name="edieresis" xMin="88" yMin="-13" xMax="928" yMax="1367">
      <component glyphName="e" x="0" y="0" flags="0x204"/>
      <component glyphName="dieresis" x="245" y="0" flags="0x4"/>
    </TTGlyph>
    <TTGlyph name="egrave" xMin="88" yMin="-13" xMax="928" yMax="1431">
      <component glyphName="e" x="0" y="0" flags="0x204"/>
      <component glyphName="grave" x="245" y="0" flags="0x4"/>
    </TTGlyph>
    <TTGlyph name="eight" xMin="120" yMin="-16" xMax="1040" yMax="1431">
      <contour>
        <pt x="580" y="-16" on="1"/>
        <pt x="478" y="-16" on="0"/>
        <pt x="309" y="38" on="0"/>
        <pt x="188" y="140" on="0"/>
        <pt x="120" y="284" on="0"/>
        <pt x="120" y="374" on="1"/>
        <pt x="120" y="452" on="0"/>
        <pt x="165" y="574" on="0"/>
        <pt x="247" y="664" on="0"/>
        <pt x="360" y="724" on="0"/>
        <pt x="428" y="739" on="1"/>
        <pt x="366" y="757" on="0"/>
        <pt x="270" y="819" on="0"/>
        <pt x="205" y="905" on="0"/>
        <pt x="171" y="1010" on="0"/>
        <pt x="171" y="1070" on="1"/>
        <pt x="171" y="1145" on="0"/>
        <pt x="228" y="1277" on="0"/>
        <pt x="334" y="1375" on="0"/>
        <pt x="485" y="1431" on="0"/>
        <pt x="580" y="1431" on="1"/>
        <pt x="674" y="1431" on="0"/>
        <pt x="825" y="1375" on="0"/>
        <pt x="932" y="1277" on="0"/>
        <pt x="989" y="1145" on="0"/>
        <pt x="989" y="1070" on="1"/>
        <pt x="989" y="1010" on="0"/>
        <pt x="955" y="905" on="0"/>
        <pt x="889" y="819" on="0"/>
        <pt x="793" y="757" on="0"/>
        <pt x="731" y="739" on="1"/>
        <pt x="799" y="724" on="0"/>
        <pt x="912" y="664" on="0"/>
        <pt x="994" y="574" on="0"/>
        <pt x="1040" y="452" on="0"/>
        <pt x="1040" y="374" on="1"/>
        <pt x="1040" y="284" on="0"/>
        <pt x="972" y="140" on="0"/>
        <pt x="851" y="38" on="0"/>
        <pt x="682" y="-16" on="0"/>
      </contour>
      <contour>
        <pt x="580" y="60" on="1"/>
        <pt x="661" y="60" on="0"/>
        <pt x="794" y="105" on="0"/>
        <pt x="890" y="188" on="0"/>
        <pt x="942" y="304" on="0"/>
        <pt x="942" y="375" on="1"/>
        <pt x="942" y="468" on="0"/>
        <pt x="874" y="592" on="0"/>
        <pt x="768" y="666" on="0"/>
        <pt x="640" y="697" on="0"/>
        <pt x="580" y="697" on="1"/>
        <pt x="520" y="697" on="0"/>
        <pt x="392" y="666" on="0"/>
        <pt x="286" y="592" on="0"/>
        <pt x="218" y="468" on="0"/>
        <pt x="218" y="375" on="1"/>
        <pt x="218" y="304" on="0"/>
        <pt x="270" y="188" on="0"/>
        <pt x="365" y="105" on="0"/>
        <pt x="499" y="60" on="0"/>
      </contour>
      <contour>
        <pt x="580" y="774" on="1"/>
        <pt x="661" y="774" on="0"/>
        <pt x="780" y="823" on="0"/>
        <pt x="858" y="906" on="0"/>
        <pt x="895" y="1012" on="0"/>
        <pt x="895" y="1069" on="1"/>
        <pt x="895" y="1130" on="0"/>
        <pt x="853" y="1235" on="0"/>
        <pt x="772" y="1313" on="0"/>
        <pt x="655" y="1357" on="0"/>
        <pt x="580" y="1357" on="1"/>
        <pt x="505" y="1357" on="0"/>
        <pt x="387" y="1313" on="0"/>
        <pt x="306" y="1235" on="0"/>
        <pt x="264" y="1130" on="0"/>
        <pt x="264" y="1069" on="1"/>
        <pt x="264" y="1012" on="0"/>
        <pt x="301" y="906" on="0"/>
        <pt x="379" y="823" on="0"/>
        <pt x="498" y="774" on="0"/>
      </contour>
    </TTGlyph>
    <TTGlyph name="ellipsis" xMin="105" yMin="-15" xMax="1271" yMax="170">
      <contour>
        <pt x="105" y="77" on="1"/>
        <pt x="105" y="96" on="0"/>
        <pt x="119" y="130" on="0"/>
        <pt x="144" y="155" on="0"/>
        <pt x="177" y="170" on="0"/>
        <pt x="197" y="170" on="1"/>
        <pt x="216" y="170" on="0"/>
        <pt x="250" y="155" on="0"/>
        <pt x="275" y="130" on="0"/>
        <pt x="290" y="96" on="0"/>
        <pt x="290" y="77" on="1"/>
        <pt x="290" y="57" on="0"/>
        <pt x="275" y="24" on="0"/>
        <pt x="250" y="-1" on="0"/>
        <pt x="216" y="-15" on="0"/>
        <pt x="197" y="-15" on="1"/>
        <pt x="158" y="-15" on="0"/>
        <pt x="105" y="38" on="0"/>
      </contour>
      <contour>
        <pt x="1086" y="77" on="1"/>
        <pt x="1086" y="96" on="0"/>
        <pt x="1100" y="130" on="0"/>
        <pt x="1125" y="155" on="0"/>
        <pt x="1158" y="170" on="0"/>
        <pt x="1178" y="170" on="1"/>
        <pt x="1197" y="170" on="0"/>
        <pt x="1231" y="155" on="0"/>
        <pt x="1256" y="130" on="0"/>
        <pt x="1271" y="96" on="0"/>
        <pt x="1271" y="77" on="1"/>
        <pt x="1271" y="57" on="0"/>
        <pt x="1256" y="24" on="0"/>
        <pt x="1231" y="-1" on="0"/>
        <pt x="1197" y="-15" on="0"/>
        <pt x="1178" y="-15" on="1"/>
        <pt x="1139" y="-15" on="0"/>
        <pt x="1086" y="38" on="0"/>
      </contour>
      <contour>
        <pt x="595" y="77" on="1"/>
        <pt x="595" y="96" on="0"/>
        <pt x="609" y="130" on="0"/>
        <pt x="634" y="155" on="0"/>
        <pt x="667" y="170" on="0"/>
        <pt x="687" y="170" on="1"/>
        <pt x="706" y="170" on="0"/>
        <pt x="740" y="155" on="0"/>
        <pt x="765" y="130" on="0"/>
        <pt x="780" y="96" on="0"/>
        <pt x="780" y="77" on="1"/>
        <pt x="780" y="57" on="0"/>
        <pt x="765" y="24" on="0"/>
        <pt x="740" y="-1" on="0"/>
        <pt x="706" y="-15" on="0"/>
        <pt x="687" y="-15" on="1"/>
        <pt x="648" y="-15" on="0"/>
        <pt x="595" y="38" on="0"/>
      </contour>
    </TTGlyph>
    <TTGlyph name="emdash" xMin="147" yMin="543" xMax="1444" yMax="614">
      <contour>
        <pt x="147" y="614" on="1"/>
        <pt x="1444" y="614" on="1"/>
        <pt x="1444" y="543" on="1"/>
        <pt x="147" y="543" on="1"/>
      </contour>
    </TTGlyph>
    <TTGlyph name="endash" xMin="147" yMin="543" xMax="934" yMax="614">
      <contour>
        <pt x="147" y="614" on="1"/>
        <pt x="934" y="614" on="1"/>
        <pt x="934" y="543" on="1"/>
        <pt x="147" y="543" on="1"/>
      </contour>
    </TTGlyph>
    <TTGlyph name="eogonek" xMin="88" yMin="-338" xMax="928" yMax="1011">
      <contour>
        <pt x="745" y="-243" on="1"/>
        <pt x="755" y="-243" on="0"/>
        <pt x="758" y="-251" on="1"/>
        <pt x="774" y="-285" on="1"/>
        <pt x="746" y="-309" on="0"/>
        <pt x="662" y="-338" on="0"/>
        <pt x="615" y="-338" on="1"/>
        <pt x="539" y="-338" on="0"/>
        <pt x="445" y="-263" on="0"/>
        <pt x="445" y="-197" on="1"/>
        <pt x="445" y="-169" on="0"/>
        <pt x="464" y="-117" on="0"/>
        <pt x="497" y="-70" on="0"/>
        <pt x="540" y="-29" on="0"/>
        <pt x="563" y="-12" on="1"/>
        <pt x="558" y="-12" on="0"/>
        <pt x="548" y="-13" on="0"/>
        <pt x="543" y="-13" on="1"/>
        <pt x="441" y="-13" on="0"/>
        <pt x="273" y="58" on="0"/>
        <pt x="153" y="194" on="0"/>
        <pt x="88" y="391" on="0"/>
        <pt x="88" y="518" on="1"/>
        <pt x="88" y="625" on="0"/>
        <pt x="149" y="806" on="0"/>
        <pt x="264" y="937" on="0"/>
        <pt x="431" y="1011" on="0"/>
        <pt x="537" y="1011" on="1"/>
        <pt x="621" y="1011" on="0"/>
        <pt x="764" y="953" on="0"/>
        <pt x="869" y="842" on="0"/>
        <pt x="928" y="680" on="0"/>
        <pt x="928" y="575" on="1"/>
        <pt x="928" y="553" on="0"/>
        <pt x="915" y="537" on="0"/>
        <pt x="901" y="537" on="1"/>
        <pt x="182" y="537" on="1"/>
        <pt x="182" y="518" on="1"/>
        <pt x="182" y="406" on="0"/>
        <pt x="234" y="236" on="0"/>
        <pt x="330" y="121" on="0"/>
        <pt x="466" y="63" on="0"/>
        <pt x="550" y="63" on="1"/>
        <pt x="625" y="63" on="0"/>
        <pt x="735" y="96" on="0"/>
        <pt x="810" y="137" on="0"/>
        <pt x="854" y="170" on="0"/>
        <pt x="864" y="170" on="1"/>
        <pt x="877" y="170" on="0"/>
        <pt x="884" y="160" on="1"/>
        <pt x="910" y="128" on="1"/>
        <pt x="891" y="105" on="0"/>
        <pt x="836" y="63" on="0"/>
        <pt x="767" y="29" on="0"/>
        <pt x="687" y="4" on="0"/>
        <pt x="645" y="-3" on="1"/>
        <pt x="625" y="-15" on="0"/>
        <pt x="581" y="-49" on="0"/>
        <pt x="543" y="-93" on="0"/>
        <pt x="519" y="-146" on="0"/>
        <pt x="519" y="-176" on="1"/>
        <pt x="519" y="-224" on="0"/>
        <pt x="583" y="-277" on="0"/>
        <pt x="633" y="-277" on="1"/>
        <pt x="661" y="-277" on="0"/>
        <pt x="699" y="-266" on="0"/>
        <pt x="725" y="-254" on="0"/>
        <pt x="740" y="-243" on="0"/>
      </contour>
      <contour>
        <pt x="538" y="940" on="1"/>
        <pt x="461" y="940" on="0"/>
        <pt x="339" y="892" on="0"/>
        <pt x="250" y="802" on="0"/>
        <pt x="195" y="676" on="0"/>
        <pt x="186" y="598" on="1"/>
        <pt x="842" y="598" on="1"/>
        <pt x="842" y="678" on="0"/>
        <pt x="798" y="805" on="0"/>
        <pt x="718" y="893" on="0"/>
        <pt x="606" y="940" on="0"/>
      </contour>
    </TTGlyph>
    <TTGlyph name="equal" xMin="166" yMin="482" xMax="993" yMax="869">
      <contour>
        <pt x="166" y="556" on="1"/>
        <pt x="993" y="556" on="1"/>
        <pt x="993" y="482" on="1"/>
        <pt x="166" y="482" on="1"/>
      </contour>
      <contour>
        <pt x="166" y="869" on="1"/>
        <pt x="993" y="869" on="1"/>
        <pt x="993" y="795" on="1"/>
        <pt x="166" y="795" on="1"/>
      </contour>
    </TTGlyph>
    <TTGlyph name="eth" xMin="89" yMin="-12" xMax="984" yMax="1405">
      <contour>
        <pt x="454" y="1070" on="1"/>
        <pt x="447" y="1078" on="0"/>
        <pt x="447" y="1088" on="1"/>
        <pt x="447" y="1098" on="0"/>
        <pt x="459" y="1109" on="1"/>
        <pt x="585" y="1218" on="1"/>
        <pt x="525" y="1251" on="0"/>
        <pt x="392" y="1298" on="0"/>
        <pt x="318" y="1313" on="1"/>
        <pt x="308" y="1315" on="0"/>
        <pt x="292" y="1330" on="0"/>
        <pt x="292" y="1344" on="1"/>
        <pt x="292" y="1347" on="0"/>
        <pt x="297" y="1368" on="0"/>
        <pt x="299" y="1372" on="1"/>
        <pt x="305" y="1392" on="1"/>
        <pt x="395" y="1378" on="0"/>
        <pt x="570" y="1318" on="0"/>
        <pt x="648" y="1270" on="1"/>
        <pt x="801" y="1405" on="1"/>
        <pt x="819" y="1376" on="1"/>
        <pt x="824" y="1368" on="0"/>
        <pt x="824" y="1360" on="1"/>
        <pt x="824" y="1349" on="0"/>
        <pt x="811" y="1337" on="1"/>
        <pt x="697" y="1237" on="1"/>
        <pt x="760" y="1190" on="0"/>
        <pt x="865" y="1068" on="0"/>
        <pt x="942" y="910" on="0"/>
        <pt x="984" y="716" on="0"/>
        <pt x="984" y="599" on="1"/>
        <pt x="984" y="461" on="0"/>
        <pt x="927" y="236" on="0"/>
        <pt x="813" y="75" on="0"/>
        <pt x="641" y="-12" on="0"/>
        <pt x="526" y="-12" on="1"/>
        <pt x="435" y="-12" on="0"/>
        <pt x="276" y="53" on="0"/>
        <pt x="157" y="174" on="0"/>
        <pt x="89" y="347" on="0"/>
        <pt x="89" y="455" on="1"/>
        <pt x="89" y="551" on="0"/>
        <pt x="147" y="721" on="0"/>
        <pt x="258" y="848" on="0"/>
        <pt x="420" y="921" on="0"/>
        <pt x="523" y="921" on="1"/>
        <pt x="576" y="921" on="0"/>
        <pt x="683" y="894" on="0"/>
        <pt x="782" y="837" on="0"/>
        <pt x="868" y="749" on="0"/>
        <pt x="900" y="689" on="1"/>
        <pt x="885" y="870" on="0"/>
        <pt x="745" y="1112" on="0"/>
        <pt x="635" y="1187" on="1"/>
        <pt x="471" y="1042" on="1"/>
      </contour>
      <contour>
        <pt x="528" y="63" on="1"/>
        <pt x="616" y="63" on="0"/>
        <pt x="750" y="132" on="0"/>
        <pt x="842" y="261" on="0"/>
        <pt x="892" y="447" on="0"/>
        <pt x="895" y="563" on="1"/>
        <pt x="880" y="614" on="0"/>
        <pt x="821" y="716" on="0"/>
        <pt x="733" y="796" on="0"/>
        <pt x="615" y="846" on="0"/>
        <pt x="539" y="846" on="1"/>
        <pt x="451" y="846" on="0"/>
        <pt x="318" y="786" on="0"/>
        <pt x="229" y="680" on="0"/>
        <pt x="184" y="537" on="0"/>
        <pt x="184" y="455" on="1"/>
        <pt x="184" y="362" on="0"/>
        <pt x="239" y="216" on="0"/>
        <pt x="334" y="116" on="0"/>
        <pt x="459" y="63" on="0"/>
      </contour>
    </TTGlyph>
    <TTGlyph name="exclam" xMin="230" yMin="-15" xMax="415" yMax="1415">
      <contour>
        <pt x="372" y="1415" on="1"/>
        <pt x="372" y="843" on="1"/>
        <pt x="372" y="798" on="0"/>
        <pt x="370" y="718" on="0"/>
        <pt x="367" y="635" on="0"/>
        <pt x="361" y="543" on="0"/>
        <pt x="358" y="487" on="1"/>
        <pt x="293" y="487" on="1"/>
        <pt x="290" y="543" on="0"/>
        <pt x="284" y="635" on="0"/>
        <pt x="281" y="718" on="0"/>
        <pt x="279" y="798" on="0"/>
        <pt x="279" y="843" on="1"/>
        <pt x="279" y="1415" on="1"/>
      </contour>
      <contour>
        <pt x="230" y="77" on="1"/>
        <pt x="230" y="96" on="0"/>
        <pt x="244" y="130" on="0"/>
        <pt x="269" y="155" on="0"/>
        <pt x="302" y="170" on="0"/>
        <pt x="322" y="170" on="1"/>
        <pt x="341" y="170" on="0"/>
        <pt x="375" y="155" on="0"/>
        <pt x="400" y="130" on="0"/>
        <pt x="415" y="96" on="0"/>
        <pt x="415" y="77" on="1"/>
        <pt x="415" y="57" on="0"/>
        <pt x="400" y="24" on="0"/>
        <pt x="375" y="-1" on="0"/>
        <pt x="341" y="-15" on="0"/>
        <pt x="322" y="-15" on="1"/>
        <pt x="283" y="-15" on="0"/>
        <pt x="230" y="38" on="0"/>
      </contour>
    </TTGlyph>
    <TTGlyph name="exclamdown" xMin="230" yMin="-352" xMax="415" yMax="1011">
      <contour>
        <pt x="279" y="-352" on="1"/>
        <pt x="279" y="198" on="1"/>
        <pt x="279" y="243" on="0"/>
        <pt x="281" y="323" on="0"/>
        <pt x="284" y="406" on="0"/>
        <pt x="290" y="498" on="0"/>
        <pt x="293" y="554" on="1"/>
        <pt x="358" y="554" on="1"/>
        <pt x="361" y="498" on="0"/>
        <pt x="367" y="406" on="0"/>
        <pt x="370" y="323" on="0"/>
        <pt x="372" y="243" on="0"/>
        <pt x="372" y="198" on="1"/>
        <pt x="372" y="-352" on="1"/>
      </contour>
      <contour>
        <pt x="230" y="919" on="1"/>
        <pt x="230" y="958" on="0"/>
        <pt x="283" y="1011" on="0"/>
        <pt x="322" y="1011" on="1"/>
        <pt x="341" y="1011" on="0"/>
        <pt x="375" y="997" on="0"/>
        <pt x="400" y="972" on="0"/>
        <pt x="415" y="938" on="0"/>
        <pt x="415" y="919" on="1"/>
        <pt x="415" y="899" on="0"/>
        <pt x="400" y="865" on="0"/>
        <pt x="375" y="840" on="0"/>
        <pt x="341" y="825" on="0"/>
        <pt x="322" y="825" on="1"/>
        <pt x="283" y="825" on="0"/>
        <pt x="230" y="880" on="0"/>
      </contour>
    </TTGlyph>
    <TTGlyph name="f" xMin="30" yMin="0" xMax="622" yMax="1433">
      <contour>
        <pt x="199" y="0" on="1"/>
        <pt x="199" y="891" on="1"/>
        <pt x="59" y="900" on="1"/>
        <pt x="30" y="902" on="0"/>
        <pt x="30" y="925" on="1"/>
        <pt x="30" y="964" on="1"/>
        <pt x="199" y="964" on="1"/>
        <pt x="199" y="1090" on="1"/>
        <pt x="199" y="1175" on="0"/>
        <pt x="243" y="1304" on="0"/>
        <pt x="323" y="1390" on="0"/>
        <pt x="436" y="1433" on="0"/>
        <pt x="504" y="1433" on="1"/>
        <pt x="535" y="1433" on="0"/>
        <pt x="598" y="1422" on="0"/>
        <pt x="622" y="1412" on="1"/>
        <pt x="619" y="1366" on="1"/>
        <pt x="618" y="1352" on="0"/>
        <pt x="600" y="1352" on="1"/>
        <pt x="588" y="1352" on="0"/>
        <pt x="547" y="1358" on="0"/>
        <pt x="517" y="1358" on="1"/>
        <pt x="468" y="1358" on="0"/>
        <pt x="385" y="1329" on="0"/>
        <pt x="325" y="1265" on="0"/>
        <pt x="292" y="1162" on="0"/>
        <pt x="292" y="1087" on="1"/>
        <pt x="292" y="964" on="1"/>
        <pt x="615" y="964" on="1"/>
        <pt x="615" y="893" on="1"/>
        <pt x="294" y="893" on="1"/>
        <pt x="294" y="0" on="1"/>
      </contour>
    </TTGlyph>
    <TTGlyph name="fi" xMin="30" yMin="0" xMax="875" yMax="1446">
      <contour>
        <pt x="199" y="0" on="1"/>
        <pt x="199" y="891" on="1"/>
        <pt x="59" y="900" on="1"/>
        <pt x="30" y="902" on="0"/>
        <pt x="30" y="925" on="1"/>
        <pt x="30" y="964" on="1"/>
        <pt x="199" y="964" on="1"/>
        <pt x="199" y="1049" on="1"/>
        <pt x="199" y="1141" on="0"/>
        <pt x="253" y="1288" on="0"/>
        <pt x="356" y="1391" on="0"/>
        <pt x="504" y="1446" on="0"/>
        <pt x="599" y="1446" on="1"/>
        <pt x="632" y="1446" on="0"/>
        <pt x="703" y="1435" on="0"/>
        <pt x="727" y="1425" on="1"/>
        <pt x="723" y="1377" on="1"/>
        <pt x="722" y="1367" on="0"/>
        <pt x="709" y="1367" on="1"/>
        <pt x="698" y="1367" on="0"/>
        <pt x="655" y="1374" on="0"/>
        <pt x="622" y="1374" on="1"/>
        <pt x="464" y="1374" on="0"/>
        <pt x="292" y="1212" on="0"/>
        <pt x="292" y="1046" on="1"/>
        <pt x="292" y="964" on="1"/>
        <pt x="875" y="964" on="1"/>
        <pt x="875" y="0" on="1"/>
        <pt x="779" y="0" on="1"/>
        <pt x="779" y="893" on="1"/>
        <pt x="294" y="893" on="1"/>
        <pt x="294" y="0" on="1"/>
      </contour>
    </TTGlyph>
    <TTGlyph name="five" xMin="148" yMin="-16" xMax="1004" yMax="1415">
      <contour>
        <pt x="966" y="1374" on="1"/>
        <pt x="966" y="1354" on="0"/>
        <pt x="939" y="1327" on="0"/>
        <pt x="910" y="1327" on="1"/>
        <pt x="398" y="1327" on="1"/>
        <pt x="313" y="855" on="1"/>
        <pt x="380" y="872" on="0"/>
        <pt x="500" y="887" on="0"/>
        <pt x="555" y="887" on="1"/>
        <pt x="665" y="887" on="0"/>
        <pt x="833" y="824" on="0"/>
        <pt x="946" y="711" on="0"/>
        <pt x="1004" y="555" on="0"/>
        <pt x="1004" y="463" on="1"/>
        <pt x="1004" y="351" on="0"/>
        <pt x="926" y="174" on="0"/>
        <pt x="793" y="50" on="0"/>
        <pt x="615" y="-16" on="0"/>
        <pt x="515" y="-16" on="1"/>
        <pt x="456" y="-16" on="0"/>
        <pt x="350" y="5" on="0"/>
        <pt x="256" y="40" on="0"/>
        <pt x="178" y="86" on="0"/>
        <pt x="148" y="110" on="1"/>
        <pt x="176" y="149" on="1"/>
        <pt x="186" y="164" on="0"/>
        <pt x="205" y="164" on="1"/>
        <pt x="218" y="164" on="0"/>
        <pt x="267" y="134" on="0"/>
        <pt x="344" y="98" on="0"/>
        <pt x="449" y="68" on="0"/>
        <pt x="519" y="68" on="1"/>
        <pt x="601" y="68" on="0"/>
        <pt x="743" y="121" on="0"/>
        <pt x="848" y="221" on="0"/>
        <pt x="907" y="368" on="0"/>
        <pt x="907" y="461" on="1"/>
        <pt x="907" y="537" on="0"/>
        <pt x="862" y="665" on="0"/>
        <pt x="771" y="756" on="0"/>
        <pt x="632" y="807" on="0"/>
        <pt x="538" y="807" on="1"/>
        <pt x="481" y="807" on="0"/>
        <pt x="353" y="789" on="0"/>
        <pt x="281" y="769" on="1"/>
        <pt x="219" y="788" on="1"/>
        <pt x="330" y="1415" on="1"/>
        <pt x="966" y="1415" on="1"/>
      </contour>
    </TTGlyph>
    <TTGlyph name="fl" xMin="30" yMin="0" xMax="925" yMax="1440">
      <contour>
        <pt x="199" y="0" on="1"/>
        <pt x="199" y="891" on="1"/>
        <pt x="59" y="900" on="1"/>
        <pt x="30" y="902" on="0"/>
        <pt x="30" y="925" on="1"/>
        <pt x="30" y="964" on="1"/>
        <pt x="199" y="964" on="1"/>
        <pt x="199" y="1029" on="1"/>
        <pt x="199" y="1117" on="0"/>
        <pt x="251" y="1268" on="0"/>
        <pt x="351" y="1378" on="0"/>
        <pt x="500" y="1440" on="0"/>
        <pt x="596" y="1440" on="1"/>
        <pt x="630" y="1440" on="0"/>
        <pt x="703" y="1436" on="0"/>
        <pt x="772" y="1430" on="0"/>
        <pt x="832" y="1426" on="0"/>
        <pt x="853" y="1426" on="1"/>
        <pt x="925" y="1426" on="1"/>
        <pt x="925" y="0" on="1"/>
        <pt x="830" y="0" on="1"/>
        <pt x="830" y="1359" on="1"/>
        <pt x="776" y="1361" on="0"/>
        <pt x="657" y="1369" on="0"/>
        <pt x="609" y="1369" on="1"/>
        <pt x="534" y="1369" on="0"/>
        <pt x="416" y="1322" on="0"/>
        <pt x="335" y="1233" on="0"/>
        <pt x="292" y="1107" on="0"/>
        <pt x="292" y="1029" on="1"/>
        <pt x="292" y="964" on="1"/>
        <pt x="580" y="964" on="1"/>
        <pt x="580" y="893" on="1"/>
        <pt x="294" y="893" on="1"/>
        <pt x="294" y="0" on="1"/>
      </contour>
    </TTGlyph>
    <TTGlyph name="florin" xMin="118" yMin="-360" xMax="997" yMax="1433">
      <contour>
        <pt x="635" y="797" on="1"/>
        <pt x="539" y="13" on="1"/>
        <pt x="527" y="-85" on="0"/>
        <pt x="459" y="-225" on="0"/>
        <pt x="351" y="-317" on="0"/>
        <pt x="206" y="-360" on="0"/>
        <pt x="118" y="-360" on="1"/>
        <pt x="118" y="-312" on="1"/>
        <pt x="118" y="-280" on="0"/>
        <pt x="154" y="-280" on="1"/>
        <pt x="205" y="-279" on="0"/>
        <pt x="301" y="-248" on="0"/>
        <pt x="379" y="-178" on="0"/>
        <pt x="434" y="-66" on="0"/>
        <pt x="444" y="16" on="1"/>
        <pt x="539" y="794" on="1"/>
        <pt x="347" y="804" on="1"/>
        <pt x="321" y="806" on="0"/>
        <pt x="321" y="829" on="1"/>
        <pt x="321" y="868" on="1"/>
        <pt x="548" y="868" on="1"/>
        <pt x="572" y="1059" on="1"/>
        <pt x="595" y="1251" on="0"/>
        <pt x="811" y="1433" on="0"/>
        <pt x="993" y="1433" on="1"/>
        <pt x="993" y="1382" on="1"/>
        <pt x="993" y="1352" on="0"/>
        <pt x="957" y="1352" on="1"/>
        <pt x="904" y="1352" on="0"/>
        <pt x="808" y="1321" on="0"/>
        <pt x="730" y="1251" on="0"/>
        <pt x="675" y="1139" on="0"/>
        <pt x="665" y="1057" on="1"/>
        <pt x="640" y="868" on="1"/>
        <pt x="997" y="868" on="1"/>
        <pt x="997" y="797" on="1"/>
      </contour>
    </TTGlyph>
    <TTGlyph name="four" xMin="63" yMin="0" xMax="1118" yMax="1417">
      <contour>
        <pt x="859" y="482" on="1"/>
        <pt x="1118" y="482" on="1"/>
        <pt x="1118" y="430" on="1"/>
        <pt x="1118" y="419" on="0"/>
        <pt x="1105" y="406" on="0"/>
        <pt x="1091" y="406" on="1"/>
        <pt x="859" y="406" on="1"/>
        <pt x="859" y="0" on="1"/>
        <pt x="773" y="0" on="1"/>
        <pt x="773" y="406" on="1"/>
        <pt x="106" y="406" on="1"/>
        <pt x="91" y="406" on="0"/>
        <pt x="75" y="419" on="0"/>
        <pt x="72" y="430" on="1"/>
        <pt x="63" y="477" on="1"/>
        <pt x="774" y="1417" on="1"/>
        <pt x="859" y="1417" on="1"/>
      </contour>
      <contour>
        <pt x="773" y="1223" on="1"/>
        <pt x="773" y="1240" on="0"/>
        <pt x="775" y="1278" on="0"/>
        <pt x="778" y="1298" on="1"/>
        <pt x="167" y="482" on="1"/>
        <pt x="773" y="482" on="1"/>
      </contour>
    </TTGlyph>
    <TTGlyph name="fraction" xMin="-202" yMin="0" xMax="695" yMax="1415">
      <contour>
        <pt x="-107" y="31" on="1"/>
        <pt x="-118" y="13" on="0"/>
        <pt x="-145" y="0" on="0"/>
        <pt x="-162" y="0" on="1"/>
        <pt x="-202" y="0" on="1"/>
        <pt x="598" y="1380" on="1"/>
        <pt x="608" y="1397" on="0"/>
        <pt x="633" y="1415" on="0"/>
        <pt x="653" y="1415" on="1"/>
        <pt x="695" y="1415" on="1"/>
      </contour>
    </TTGlyph>
    <TTGlyph name="g" xMin="75" yMin="-371" xMax="965" yMax="1012">
      <contour>
        <pt x="490" y="1012" on="1"/>
        <pt x="555" y="1012" on="0"/>
        <pt x="666" y="980" on="0"/>
        <pt x="710" y="951" on="1"/>
        <pt x="965" y="951" on="1"/>
        <pt x="965" y="918" on="1"/>
        <pt x="965" y="893" on="0"/>
        <pt x="937" y="891" on="1"/>
        <pt x="786" y="880" on="1"/>
        <pt x="814" y="842" on="0"/>
        <pt x="844" y="747" on="0"/>
        <pt x="844" y="693" on="1"/>
        <pt x="844" y="621" on="0"/>
        <pt x="792" y="504" on="0"/>
        <pt x="699" y="421" on="0"/>
        <pt x="569" y="375" on="0"/>
        <pt x="490" y="375" on="1"/>
        <pt x="404" y="375" on="0"/>
        <pt x="334" y="401" on="1"/>
        <pt x="292" y="377" on="0"/>
        <pt x="244" y="311" on="0"/>
        <pt x="244" y="280" on="1"/>
        <pt x="244" y="237" on="0"/>
        <pt x="304" y="191" on="0"/>
        <pt x="403" y="170" on="0"/>
        <pt x="530" y="164" on="0"/>
        <pt x="661" y="157" on="0"/>
        <pt x="788" y="139" on="0"/>
        <pt x="887" y="94" on="0"/>
        <pt x="947" y="13" on="0"/>
        <pt x="947" y="-54" on="1"/>
        <pt x="947" y="-116" on="0"/>
        <pt x="885" y="-230" on="0"/>
        <pt x="768" y="-318" on="0"/>
        <pt x="602" y="-371" on="0"/>
        <pt x="499" y="-371" on="1"/>
        <pt x="394" y="-371" on="0"/>
        <pt x="236" y="-328" on="0"/>
        <pt x="129" y="-255" on="0"/>
        <pt x="75" y="-159" on="0"/>
        <pt x="75" y="-105" on="1"/>
        <pt x="75" y="-26" on="0"/>
        <pt x="179" y="88" on="0"/>
        <pt x="270" y="119" on="1"/>
        <pt x="220" y="136" on="0"/>
        <pt x="161" y="200" on="0"/>
        <pt x="161" y="257" on="1"/>
        <pt x="161" y="278" on="0"/>
        <pt x="177" y="324" on="0"/>
        <pt x="209" y="369" on="0"/>
        <pt x="254" y="409" on="0"/>
        <pt x="284" y="425" on="1"/>
        <pt x="213" y="466" on="0"/>
        <pt x="134" y="602" on="0"/>
        <pt x="134" y="693" on="1"/>
        <pt x="134" y="765" on="0"/>
        <pt x="185" y="882" on="0"/>
        <pt x="278" y="966" on="0"/>
        <pt x="410" y="1012" on="0"/>
      </contour>
      <contour>
        <pt x="859" y="-67" on="1"/>
        <pt x="859" y="-20" on="0"/>
        <pt x="810" y="37" on="0"/>
        <pt x="728" y="69" on="0"/>
        <pt x="621" y="82" on="0"/>
        <pt x="504" y="88" on="0"/>
        <pt x="386" y="94" on="0"/>
        <pt x="335" y="103" on="1"/>
        <pt x="297" y="88" on="0"/>
        <pt x="232" y="49" on="0"/>
        <pt x="186" y="0" on="0"/>
        <pt x="160" y="-59" on="0"/>
        <pt x="160" y="-94" on="1"/>
        <pt x="160" y="-138" on="0"/>
        <pt x="205" y="-213" on="0"/>
        <pt x="292" y="-268" on="0"/>
        <pt x="418" y="-300" on="0"/>
        <pt x="500" y="-300" on="1"/>
        <pt x="576" y="-300" on="0"/>
        <pt x="707" y="-266" on="0"/>
        <pt x="804" y="-204" on="0"/>
        <pt x="859" y="-118" on="0"/>
      </contour>
      <contour>
        <pt x="490" y="440" on="1"/>
        <pt x="554" y="440" on="0"/>
        <pt x="654" y="477" on="0"/>
        <pt x="722" y="543" on="0"/>
        <pt x="757" y="635" on="0"/>
        <pt x="757" y="691" on="1"/>
        <pt x="757" y="747" on="0"/>
        <pt x="721" y="840" on="0"/>
        <pt x="652" y="906" on="0"/>
        <pt x="553" y="942" on="0"/>
        <pt x="490" y="942" on="1"/>
        <pt x="427" y="942" on="0"/>
        <pt x="327" y="906" on="0"/>
        <pt x="258" y="840" on="0"/>
        <pt x="222" y="747" on="0"/>
        <pt x="222" y="691" on="1"/>
        <pt x="222" y="635" on="0"/>
        <pt x="258" y="543" on="0"/>
        <pt x="327" y="477" on="0"/>
        <pt x="427" y="440" on="0"/>
      </contour>
    </TTGlyph>
    <TTGlyph name="germandbls" xMin="199" yMin="-16" xMax="1063" yMax="1433">
      <contour>
        <pt x="641" y="1433" on="1"/>
        <pt x="726" y="1433" on="0"/>
        <pt x="858" y="1382" on="0"/>
        <pt x="948" y="1301" on="0"/>
        <pt x="994" y="1201" on="0"/>
        <pt x="994" y="1151" on="1"/>
        <pt x="994" y="1089" on="0"/>
        <pt x="947" y="997" on="0"/>
        <pt x="876" y="926" on="0"/>
        <pt x="794" y="870" on="0"/>
        <pt x="723" y="815" on="0"/>
        <pt x="676" y="757" on="0"/>
        <pt x="676" y="720" on="1"/>
        <pt x="676" y="684" on="0"/>
        <pt x="709" y="635" on="0"/>
        <pt x="764" y="599" on="0"/>
        <pt x="833" y="569" on="0"/>
        <pt x="906" y="536" on="0"/>
        <pt x="975" y="495" on="0"/>
        <pt x="1030" y="435" on="0"/>
        <pt x="1063" y="352" on="0"/>
        <pt x="1063" y="293" on="1"/>
        <pt x="1063" y="225" on="0"/>
        <pt x="1013" y="111" on="0"/>
        <pt x="923" y="29" on="0"/>
        <pt x="797" y="-16" on="0"/>
        <pt x="720" y="-16" on="1"/>
        <pt x="619" y="-16" on="0"/>
        <pt x="474" y="51" on="0"/>
        <pt x="414" y="105" on="1"/>
        <pt x="436" y="139" on="1"/>
        <pt x="441" y="147" on="0"/>
        <pt x="454" y="155" on="0"/>
        <pt x="465" y="155" on="1"/>
        <pt x="478" y="155" on="0"/>
        <pt x="515" y="123" on="0"/>
        <pt x="575" y="86" on="0"/>
        <pt x="664" y="54" on="0"/>
        <pt x="727" y="54" on="1"/>
        <pt x="786" y="54" on="0"/>
        <pt x="878" y="89" on="0"/>
        <pt x="941" y="150" on="0"/>
        <pt x="974" y="232" on="0"/>
        <pt x="974" y="279" on="1"/>
        <pt x="974" y="346" on="0"/>
        <pt x="915" y="427" on="0"/>
        <pt x="827" y="479" on="0"/>
        <pt x="725" y="517" on="0"/>
        <pt x="637" y="566" on="0"/>
        <pt x="578" y="641" on="0"/>
        <pt x="578" y="704" on="1"/>
        <pt x="578" y="753" on="0"/>
        <pt x="626" y="825" on="0"/>
        <pt x="699" y="887" on="0"/>
        <pt x="783" y="945" on="0"/>
        <pt x="856" y="1013" on="0"/>
        <pt x="904" y="1096" on="0"/>
        <pt x="904" y="1152" on="1"/>
        <pt x="904" y="1183" on="0"/>
        <pt x="876" y="1256" on="0"/>
        <pt x="813" y="1319" on="0"/>
        <pt x="711" y="1361" on="0"/>
        <pt x="638" y="1361" on="1"/>
        <pt x="567" y="1361" on="0"/>
        <pt x="442" y="1318" on="0"/>
        <pt x="348" y="1230" on="0"/>
        <pt x="294" y="1093" on="0"/>
        <pt x="294" y="999" on="1"/>
        <pt x="294" y="0" on="1"/>
        <pt x="199" y="0" on="1"/>
        <pt x="199" y="1001" on="1"/>
        <pt x="199" y="1102" on="0"/>
        <pt x="265" y="1263" on="0"/>
        <pt x="382" y="1374" on="0"/>
        <pt x="545" y="1433" on="0"/>
      </contour>
    </TTGlyph>
    <TTGlyph name="grave" xMin="86" yMin="1161" xMax="394" yMax="1431">
      <contour>
        <pt x="178" y="1431" on="1"/>
        <pt x="202" y="1431" on="0"/>
        <pt x="226" y="1417" on="0"/>
        <pt x="237" y="1399" on="1"/>
        <pt x="394" y="1161" on="1"/>
        <pt x="340" y="1161" on="1"/>
        <pt x="328" y="1161" on="0"/>
        <pt x="311" y="1168" on="0"/>
        <pt x="303" y="1178" on="1"/>
        <pt x="86" y="1431" on="1"/>
      </contour>
    </TTGlyph>
    <TTGlyph name="grave.case" xMin="3" yMin="1542" xMax="405" yMax="1770">
      <contour>
        <pt x="116" y="1770" on="1"/>
        <pt x="140" y="1770" on="0"/>
        <pt x="163" y="1761" on="0"/>
        <pt x="177" y="1748" on="1"/>
        <pt x="405" y="1542" on="1"/>
        <pt x="334" y="1542" on="1"/>
        <pt x="322" y="1542" on="0"/>
        <pt x="306" y="1546" on="0"/>
        <pt x="296" y="1554" on="1"/>
        <pt x="3" y="1770" on="1"/>
      </contour>
    </TTGlyph>
    <TTGlyph name="greater" xMin="251" yMin="265" xMax="1001" yMax="1077">
      <contour>
        <pt x="251" y="265" on="1"/>
        <pt x="251" y="330" on="1"/>
        <pt x="251" y="341" on="0"/>
        <pt x="263" y="358" on="0"/>
        <pt x="277" y="365" on="1"/>
        <pt x="831" y="646" on="1"/>
        <pt x="862" y="662" on="0"/>
        <pt x="902" y="671" on="1"/>
        <pt x="882" y="676" on="0"/>
        <pt x="848" y="689" on="0"/>
        <pt x="831" y="697" on="1"/>
        <pt x="277" y="977" on="1"/>
        <pt x="251" y="991" on="0"/>
        <pt x="251" y="1012" on="1"/>
        <pt x="251" y="1077" on="1"/>
        <pt x="1001" y="692" on="1"/>
        <pt x="1001" y="651" on="1"/>
      </contour>
    </TTGlyph>
    <TTGlyph name="greaterequal" xMin="250" yMin="80" xMax="1000" yMax="1103">
      <contour>
        <pt x="1000" y="729" on="1"/>
        <pt x="1000" y="689" on="1"/>
        <pt x="250" y="313" on="1"/>
        <pt x="250" y="376" on="1"/>
        <pt x="250" y="387" on="0"/>
        <pt x="263" y="404" on="0"/>
        <pt x="280" y="412" on="1"/>
        <pt x="830" y="684" on="1"/>
        <pt x="847" y="692" on="0"/>
        <pt x="885" y="704" on="0"/>
        <pt x="906" y="709" on="1"/>
        <pt x="885" y="714" on="0"/>
        <pt x="847" y="725" on="0"/>
        <pt x="830" y="733" on="1"/>
        <pt x="280" y="1004" on="1"/>
        <pt x="263" y="1012" on="0"/>
        <pt x="250" y="1030" on="0"/>
        <pt x="250" y="1041" on="1"/>
        <pt x="250" y="1103" on="1"/>
      </contour>
      <contour>
        <pt x="1000" y="80" on="1"/>
        <pt x="250" y="80" on="1"/>
        <pt x="250" y="153" on="1"/>
        <pt x="1000" y="153" on="1"/>
      </contour>
    </TTGlyph>
    <TTGlyph name="guillemotleft" xMin="155" yMin="134" xMax="697" yMax="904">
      <contour>
        <pt x="155" y="513" on="1"/>
        <pt x="155" y="526" on="1"/>
        <pt x="396" y="904" on="1"/>
        <pt x="426" y="889" on="1"/>
        <pt x="442" y="879" on="0"/>
        <pt x="442" y="864" on="1"/>
        <pt x="442" y="852" on="0"/>
        <pt x="435" y="841" on="1"/>
        <pt x="252" y="548" on="1"/>
        <pt x="239" y="528" on="0"/>
        <pt x="230" y="519" on="1"/>
        <pt x="240" y="511" on="0"/>
        <pt x="252" y="491" on="1"/>
        <pt x="435" y="197" on="1"/>
        <pt x="442" y="186" on="0"/>
        <pt x="442" y="174" on="1"/>
        <pt x="442" y="159" on="0"/>
        <pt x="426" y="149" on="1"/>
        <pt x="396" y="134" on="1"/>
      </contour>
      <contour>
        <pt x="410" y="513" on="1"/>
        <pt x="410" y="526" on="1"/>
        <pt x="651" y="904" on="1"/>
        <pt x="681" y="889" on="1"/>
        <pt x="697" y="879" on="0"/>
        <pt x="697" y="864" on="1"/>
        <pt x="697" y="852" on="0"/>
        <pt x="690" y="841" on="1"/>
        <pt x="507" y="548" on="1"/>
        <pt x="494" y="528" on="0"/>
        <pt x="485" y="519" on="1"/>
        <pt x="495" y="511" on="0"/>
        <pt x="507" y="491" on="1"/>
        <pt x="690" y="197" on="1"/>
        <pt x="697" y="186" on="0"/>
        <pt x="697" y="174" on="1"/>
        <pt x="697" y="159" on="0"/>
        <pt x="681" y="149" on="1"/>
        <pt x="651" y="134" on="1"/>
      </contour>
    </TTGlyph>
    <TTGlyph name="guillemotright" xMin="176" yMin="134" xMax="719" yMax="904">
      <contour>
        <pt x="223" y="134" on="1"/>
        <pt x="193" y="149" on="1"/>
        <pt x="176" y="158" on="0"/>
        <pt x="176" y="175" on="1"/>
        <pt x="176" y="186" on="0"/>
        <pt x="183" y="197" on="1"/>
        <pt x="366" y="491" on="1"/>
        <pt x="372" y="502" on="0"/>
        <pt x="383" y="515" on="0"/>
        <pt x="388" y="519" on="1"/>
        <pt x="383" y="524" on="0"/>
        <pt x="372" y="537" on="0"/>
        <pt x="366" y="548" on="1"/>
        <pt x="183" y="841" on="1"/>
        <pt x="176" y="852" on="0"/>
        <pt x="176" y="864" on="1"/>
        <pt x="176" y="880" on="0"/>
        <pt x="193" y="889" on="1"/>
        <pt x="223" y="904" on="1"/>
        <pt x="464" y="526" on="1"/>
        <pt x="464" y="513" on="1"/>
      </contour>
      <contour>
        <pt x="478" y="134" on="1"/>
        <pt x="448" y="149" on="1"/>
        <pt x="431" y="158" on="0"/>
        <pt x="431" y="175" on="1"/>
        <pt x="431" y="186" on="0"/>
        <pt x="438" y="197" on="1"/>
        <pt x="621" y="491" on="1"/>
        <pt x="627" y="502" on="0"/>
        <pt x="638" y="515" on="0"/>
        <pt x="643" y="519" on="1"/>
        <pt x="638" y="524" on="0"/>
        <pt x="627" y="537" on="0"/>
        <pt x="621" y="548" on="1"/>
        <pt x="438" y="841" on="1"/>
        <pt x="431" y="852" on="0"/>
        <pt x="431" y="864" on="1"/>
        <pt x="431" y="880" on="0"/>
        <pt x="448" y="889" on="1"/>
        <pt x="478" y="904" on="1"/>
        <pt x="719" y="526" on="1"/>
        <pt x="719" y="513" on="1"/>
      </contour>
    </TTGlyph>
    <TTGlyph name="guilsinglleft" xMin="155" yMin="134" xMax="442" yMax="904">
      <contour>
        <pt x="155" y="513" on="1"/>
        <pt x="155" y="526" on="1"/>
        <pt x="396" y="904" on="1"/>
        <pt x="426" y="889" on="1"/>
        <pt x="442" y="879" on="0"/>
        <pt x="442" y="864" on="1"/>
        <pt x="442" y="852" on="0"/>
        <pt x="435" y="841" on="1"/>
        <pt x="252" y="548" on="1"/>
        <pt x="239" y="528" on="0"/>
        <pt x="230" y="519" on="1"/>
        <pt x="240" y="511" on="0"/>
        <pt x="252" y="491" on="1"/>
        <pt x="435" y="197" on="1"/>
        <pt x="442" y="186" on="0"/>
        <pt x="442" y="174" on="1"/>
        <pt x="442" y="159" on="0"/>
        <pt x="426" y="149" on="1"/>
        <pt x="396" y="134" on="1"/>
      </contour>
    </TTGlyph>
    <TTGlyph name="guilsinglright" xMin="176" yMin="134" xMax="464" yMax="904">
      <contour>
        <pt x="223" y="134" on="1"/>
        <pt x="193" y="149" on="1"/>
        <pt x="176" y="158" on="0"/>
        <pt x="176" y="175" on="1"/>
        <pt x="176" y="186" on="0"/>
        <pt x="183" y="197" on="1"/>
        <pt x="366" y="491" on="1"/>
        <pt x="372" y="502" on="0"/>
        <pt x="383" y="515" on="0"/>
        <pt x="388" y="519" on="1"/>
        <pt x="383" y="524" on="0"/>
        <pt x="372" y="537" on="0"/>
        <pt x="366" y="548" on="1"/>
        <pt x="183" y="841" on="1"/>
        <pt x="176" y="852" on="0"/>
        <pt x="176" y="864" on="1"/>
        <pt x="176" y="880" on="0"/>
        <pt x="193" y="889" on="1"/>
        <pt x="223" y="904" on="1"/>
        <pt x="464" y="526" on="1"/>
        <pt x="464" y="513" on="1"/>
      </contour>
    </TTGlyph>
    <TTGlyph name="h" xMin="162" yMin="0" xMax="944" yMax="1455">
      <contour>
        <pt x="162" y="0" on="1"/>
        <pt x="162" y="1455" on="1"/>
        <pt x="257" y="1455" on="1"/>
        <pt x="257" y="825" on="1"/>
        <pt x="326" y="910" on="0"/>
        <pt x="503" y="1011" on="0"/>
        <pt x="613" y="1011" on="1"/>
        <pt x="695" y="1011" on="0"/>
        <pt x="820" y="959" on="0"/>
        <pt x="902" y="861" on="0"/>
        <pt x="944" y="723" on="0"/>
        <pt x="944" y="636" on="1"/>
        <pt x="944" y="0" on="1"/>
        <pt x="849" y="0" on="1"/>
        <pt x="849" y="636" on="1"/>
        <pt x="849" y="776" on="0"/>
        <pt x="721" y="935" on="0"/>
        <pt x="589" y="935" on="1"/>
        <pt x="491" y="935" on="0"/>
        <pt x="323" y="834" on="0"/>
        <pt x="257" y="746" on="1"/>
        <pt x="257" y="0" on="1"/>
      </contour>
    </TTGlyph>
    <TTGlyph name="hungarumlaut" xMin="124" yMin="1161" xMax="673" yMax="1431">
      <contour>
        <pt x="401" y="1431" on="1"/>
        <pt x="203" y="1178" on="1"/>
        <pt x="195" y="1168" on="0"/>
        <pt x="178" y="1161" on="0"/>
        <pt x="166" y="1161" on="1"/>
        <pt x="124" y="1161" on="1"/>
        <pt x="276" y="1399" on="1"/>
        <pt x="287" y="1416" on="0"/>
        <pt x="311" y="1431" on="0"/>
        <pt x="335" y="1431" on="1"/>
      </contour>
      <contour>
        <pt x="673" y="1431" on="1"/>
        <pt x="442" y="1178" on="1"/>
        <pt x="434" y="1168" on="0"/>
        <pt x="417" y="1161" on="0"/>
        <pt x="405" y="1161" on="1"/>
        <pt x="358" y="1161" on="1"/>
        <pt x="540" y="1399" on="1"/>
        <pt x="553" y="1416" on="0"/>
        <pt x="575" y="1431" on="0"/>
        <pt x="599" y="1431" on="1"/>
      </contour>
    </TTGlyph>
    <TTGlyph name="hungarumlaut.case" xMin="106" yMin="1542" xMax="692" yMax="1765">
      <contour>
        <pt x="388" y="1765" on="1"/>
        <pt x="190" y="1559" on="1"/>
        <pt x="182" y="1550" on="0"/>
        <pt x="165" y="1542" on="0"/>
        <pt x="153" y="1542" on="1"/>
        <pt x="106" y="1542" on="1"/>
        <pt x="259" y="1733" on="1"/>
        <pt x="272" y="1749" on="0"/>
        <pt x="299" y="1765" on="0"/>
        <pt x="323" y="1765" on="1"/>
      </contour>
      <contour>
        <pt x="692" y="1765" on="1"/>
        <pt x="462" y="1559" on="1"/>
        <pt x="451" y="1551" on="0"/>
        <pt x="434" y="1542" on="0"/>
        <pt x="422" y="1542" on="1"/>
        <pt x="370" y="1542" on="1"/>
        <pt x="551" y="1733" on="1"/>
        <pt x="566" y="1748" on="0"/>
        <pt x="593" y="1765" on="0"/>
        <pt x="617" y="1765" on="1"/>
      </contour>
    </TTGlyph>
    <TTGlyph name="hyphen" xMin="100" yMin="553" xMax="565" yMax="634">
      <contour>
        <pt x="100" y="634" on="1"/>
        <pt x="565" y="634" on="1"/>
        <pt x="565" y="553" on="1"/>
        <pt x="100" y="553" on="1"/>
      </contour>
    </TTGlyph>
    <TTGlyph name="i" xMin="150" yMin="0" xMax="327" yMax="1427">
      <contour>
        <pt x="285" y="995" on="1"/>
        <pt x="285" y="0" on="1"/>
        <pt x="190" y="0" on="1"/>
        <pt x="190" y="995" on="1"/>
      </contour>
      <contour>
        <pt x="327" y="1338" on="1"/>
        <pt x="327" y="1320" on="0"/>
        <pt x="312" y="1289" on="0"/>
        <pt x="288" y="1265" on="0"/>
        <pt x="256" y="1251" on="0"/>
        <pt x="238" y="1251" on="1"/>
        <pt x="220" y="1251" on="0"/>
        <pt x="188" y="1265" on="0"/>
        <pt x="164" y="1289" on="0"/>
        <pt x="150" y="1320" on="0"/>
        <pt x="150" y="1338" on="1"/>
        <pt x="150" y="1356" on="0"/>
        <pt x="164" y="1389" on="0"/>
        <pt x="188" y="1413" on="0"/>
        <pt x="220" y="1427" on="0"/>
        <pt x="238" y="1427" on="1"/>
        <pt x="256" y="1427" on="0"/>
        <pt x="288" y="1413" on="0"/>
        <pt x="312" y="1389" on="0"/>
        <pt x="327" y="1356" on="0"/>
      </contour>
    </TTGlyph>
    <TTGlyph name="iacute" xMin="155" yMin="0" xMax="465" yMax="1431">
      <component glyphName="dotlessi" x="0" y="0" flags="0x204"/>
      <component glyphName="acute" x="-52" y="0" flags="0x4"/>
    </TTGlyph>
    <TTGlyph name="icircumflex" xMin="-20" yMin="0" xMax="500" yMax="1415">
      <component glyphName="dotlessi" x="0" y="0" flags="0x204"/>
      <component glyphName="circumflex" x="-52" y="0" flags="0x4"/>
    </TTGlyph>
    <TTGlyph name="idieresis" xMin="-13" yMin="0" xMax="494" yMax="1367">
      <component glyphName="dotlessi" x="0" y="0" flags="0x204"/>
      <component glyphName="dieresis" x="-52" y="0" flags="0x4"/>
    </TTGlyph>
    <TTGlyph name="igrave" xMin="34" yMin="0" xMax="342" yMax="1431">
      <component glyphName="dotlessi" x="0" y="0" flags="0x204"/>
      <component glyphName="grave" x="-52" y="0" flags="0x4"/>
    </TTGlyph>
    <TTGlyph name="infinity" xMin="74" yMin="282" xMax="1293" yMax="899">
      <contour>
        <pt x="1006" y="282" on="1"/>
        <pt x="951" y="282" on="0"/>
        <pt x="859" y="322" on="0"/>
        <pt x="781" y="388" on="0"/>
        <pt x="714" y="475" on="0"/>
        <pt x="683" y="522" on="1"/>
        <pt x="652" y="475" on="0"/>
        <pt x="585" y="389" on="0"/>
        <pt x="507" y="322" on="0"/>
        <pt x="416" y="282" on="0"/>
        <pt x="361" y="282" on="1"/>
        <pt x="304" y="282" on="0"/>
        <pt x="200" y="325" on="0"/>
        <pt x="121" y="405" on="0"/>
        <pt x="74" y="520" on="0"/>
        <pt x="74" y="591" on="1"/>
        <pt x="74" y="662" on="0"/>
        <pt x="121" y="776" on="0"/>
        <pt x="200" y="856" on="0"/>
        <pt x="304" y="899" on="0"/>
        <pt x="361" y="899" on="1"/>
        <pt x="416" y="899" on="0"/>
        <pt x="507" y="859" on="0"/>
        <pt x="585" y="792" on="0"/>
        <pt x="652" y="705" on="0"/>
        <pt x="683" y="659" on="1"/>
        <pt x="714" y="705" on="0"/>
        <pt x="781" y="792" on="0"/>
        <pt x="859" y="859" on="0"/>
        <pt x="951" y="899" on="0"/>
        <pt x="1006" y="899" on="1"/>
        <pt x="1063" y="899" on="0"/>
        <pt x="1167" y="856" on="0"/>
        <pt x="1246" y="776" on="0"/>
        <pt x="1293" y="662" on="0"/>
        <pt x="1293" y="591" on="1"/>
        <pt x="1293" y="520" on="0"/>
        <pt x="1246" y="405" on="0"/>
        <pt x="1167" y="325" on="0"/>
        <pt x="1063" y="282" on="0"/>
      </contour>
      <contour>
        <pt x="365" y="360" on="1"/>
        <pt x="409" y="360" on="0"/>
        <pt x="484" y="398" on="0"/>
        <pt x="550" y="462" on="0"/>
        <pt x="609" y="545" on="0"/>
        <pt x="639" y="590" on="1"/>
        <pt x="609" y="635" on="0"/>
        <pt x="550" y="719" on="0"/>
        <pt x="484" y="783" on="0"/>
        <pt x="409" y="821" on="0"/>
        <pt x="365" y="821" on="1"/>
        <pt x="321" y="821" on="0"/>
        <pt x="244" y="790" on="0"/>
        <pt x="186" y="732" on="0"/>
        <pt x="153" y="646" on="0"/>
        <pt x="153" y="591" on="1"/>
        <pt x="153" y="535" on="0"/>
        <pt x="186" y="449" on="0"/>
        <pt x="244" y="391" on="0"/>
        <pt x="321" y="360" on="0"/>
      </contour>
      <contour>
        <pt x="1003" y="360" on="1"/>
        <pt x="1046" y="360" on="0"/>
        <pt x="1123" y="391" on="0"/>
        <pt x="1180" y="449" on="0"/>
        <pt x="1213" y="535" on="0"/>
        <pt x="1213" y="591" on="1"/>
        <pt x="1213" y="646" on="0"/>
        <pt x="1180" y="732" on="0"/>
        <pt x="1123" y="790" on="0"/>
        <pt x="1046" y="821" on="0"/>
        <pt x="1003" y="821" on="1"/>
        <pt x="958" y="821" on="0"/>
        <pt x="883" y="783" on="0"/>
        <pt x="817" y="719" on="0"/>
        <pt x="758" y="635" on="0"/>
        <pt x="728" y="590" on="1"/>
        <pt x="758" y="545" on="0"/>
        <pt x="817" y="462" on="0"/>
        <pt x="883" y="398" on="0"/>
        <pt x="958" y="360" on="0"/>
      </contour>
    </TTGlyph>
    <TTGlyph name="integral" xMin="-127" yMin="-359" xMax="843" yMax="1431">
      <contour>
        <pt x="392" y="1086" on="1"/>
        <pt x="402" y="1173" on="0"/>
        <pt x="460" y="1303" on="0"/>
        <pt x="546" y="1388" on="0"/>
        <pt x="657" y="1431" on="0"/>
        <pt x="721" y="1431" on="1"/>
        <pt x="760" y="1431" on="0"/>
        <pt x="817" y="1420" on="0"/>
        <pt x="843" y="1407" on="1"/>
        <pt x="838" y="1364" on="1"/>
        <pt x="835" y="1354" on="0"/>
        <pt x="822" y="1349" on="0"/>
        <pt x="808" y="1349" on="1"/>
        <pt x="797" y="1349" on="0"/>
        <pt x="767" y="1350" on="0"/>
        <pt x="745" y="1350" on="1"/>
        <pt x="693" y="1350" on="0"/>
        <pt x="605" y="1318" on="0"/>
        <pt x="538" y="1250" on="0"/>
        <pt x="493" y="1147" on="0"/>
        <pt x="484" y="1075" on="1"/>
        <pt x="352" y="13" on="1"/>
        <pt x="340" y="-86" on="0"/>
        <pt x="277" y="-227" on="0"/>
        <pt x="184" y="-317" on="0"/>
        <pt x="64" y="-359" on="0"/>
        <pt x="-5" y="-359" on="1"/>
        <pt x="-38" y="-359" on="0"/>
        <pt x="-103" y="-350" on="0"/>
        <pt x="-127" y="-336" on="1"/>
        <pt x="-120" y="-297" on="1"/>
        <pt x="-117" y="-288" on="0"/>
        <pt x="-107" y="-282" on="0"/>
        <pt x="-97" y="-282" on="1"/>
        <pt x="-86" y="-282" on="0"/>
        <pt x="-52" y="-286" on="0"/>
        <pt x="-24" y="-286" on="1"/>
        <pt x="36" y="-286" on="0"/>
        <pt x="132" y="-254" on="0"/>
        <pt x="203" y="-183" on="0"/>
        <pt x="250" y="-70" on="0"/>
        <pt x="260" y="11" on="1"/>
      </contour>
    </TTGlyph>
    <TTGlyph name="j" xMin="-50" yMin="-369" xMax="327" yMax="1427">
      <contour>
        <pt x="285" y="995" on="1"/>
        <pt x="285" y="-127" on="1"/>
        <pt x="285" y="-179" on="0"/>
        <pt x="255" y="-267" on="0"/>
        <pt x="196" y="-332" on="0"/>
        <pt x="107" y="-369" on="0"/>
        <pt x="47" y="-369" on="1"/>
        <pt x="18" y="-369" on="0"/>
        <pt x="-28" y="-359" on="0"/>
        <pt x="-50" y="-348" on="1"/>
        <pt x="-45" y="-300" on="1"/>
        <pt x="-44" y="-288" on="0"/>
        <pt x="-31" y="-288" on="1"/>
        <pt x="-23" y="-288" on="0"/>
        <pt x="6" y="-296" on="0"/>
        <pt x="31" y="-296" on="1"/>
        <pt x="112" y="-296" on="0"/>
        <pt x="190" y="-208" on="0"/>
        <pt x="190" y="-127" on="1"/>
        <pt x="190" y="995" on="1"/>
      </contour>
      <contour>
        <pt x="327" y="1338" on="1"/>
        <pt x="327" y="1320" on="0"/>
        <pt x="312" y="1289" on="0"/>
        <pt x="288" y="1265" on="0"/>
        <pt x="256" y="1251" on="0"/>
        <pt x="238" y="1251" on="1"/>
        <pt x="220" y="1251" on="0"/>
        <pt x="188" y="1265" on="0"/>
        <pt x="164" y="1289" on="0"/>
        <pt x="150" y="1320" on="0"/>
        <pt x="150" y="1338" on="1"/>
        <pt x="150" y="1356" on="0"/>
        <pt x="164" y="1389" on="0"/>
        <pt x="188" y="1413" on="0"/>
        <pt x="220" y="1427" on="0"/>
        <pt x="238" y="1427" on="1"/>
        <pt x="256" y="1427" on="0"/>
        <pt x="288" y="1413" on="0"/>
        <pt x="312" y="1389" on="0"/>
        <pt x="327" y="1356" on="0"/>
      </contour>
    </TTGlyph>
    <TTGlyph name="k" xMin="172" yMin="0" xMax="936" yMax="1455">
      <contour>
        <pt x="268" y="1455" on="1"/>
        <pt x="268" y="568" on="1"/>
        <pt x="314" y="568" on="1"/>
        <pt x="328" y="568" on="0"/>
        <pt x="353" y="576" on="0"/>
        <pt x="368" y="591" on="1"/>
        <pt x="767" y="970" on="1"/>
        <pt x="778" y="981" on="0"/>
        <pt x="801" y="995" on="0"/>
        <pt x="819" y="995" on="1"/>
        <pt x="903" y="995" on="1"/>
        <pt x="464" y="578" on="1"/>
        <pt x="454" y="568" on="0"/>
        <pt x="436" y="551" on="0"/>
        <pt x="425" y="545" on="1"/>
        <pt x="441" y="537" on="0"/>
        <pt x="463" y="515" on="0"/>
        <pt x="475" y="502" on="1"/>
        <pt x="936" y="0" on="1"/>
        <pt x="853" y="0" on="1"/>
        <pt x="839" y="0" on="0"/>
        <pt x="817" y="11" on="0"/>
        <pt x="806" y="23" on="1"/>
        <pt x="388" y="471" on="1"/>
        <pt x="371" y="489" on="0"/>
        <pt x="343" y="502" on="0"/>
        <pt x="313" y="502" on="1"/>
        <pt x="268" y="502" on="1"/>
        <pt x="268" y="0" on="1"/>
        <pt x="172" y="0" on="1"/>
        <pt x="172" y="1455" on="1"/>
      </contour>
    </TTGlyph>
    <TTGlyph name="l" xMin="190" yMin="0" xMax="285" yMax="1455">
      <contour>
        <pt x="285" y="1455" on="1"/>
        <pt x="285" y="0" on="1"/>
        <pt x="190" y="0" on="1"/>
        <pt x="190" y="1455" on="1"/>
      </contour>
    </TTGlyph>
    <TTGlyph name="less" xMin="160" yMin="265" xMax="910" yMax="1077">
      <contour>
        <pt x="160" y="692" on="1"/>
        <pt x="910" y="1077" on="1"/>
        <pt x="910" y="1012" on="1"/>
        <pt x="910" y="1001" on="0"/>
        <pt x="898" y="985" on="0"/>
        <pt x="883" y="977" on="1"/>
        <pt x="330" y="697" on="1"/>
        <pt x="297" y="680" on="0"/>
        <pt x="258" y="671" on="1"/>
        <pt x="300" y="662" on="0"/>
        <pt x="330" y="646" on="1"/>
        <pt x="883" y="365" on="1"/>
        <pt x="898" y="357" on="0"/>
        <pt x="910" y="341" on="0"/>
        <pt x="910" y="330" on="1"/>
        <pt x="910" y="265" on="1"/>
        <pt x="160" y="651" on="1"/>
      </contour>
    </TTGlyph>
    <TTGlyph name="lessequal" xMin="160" yMin="80" xMax="910" yMax="1103">
      <contour>
        <pt x="160" y="729" on="1"/>
        <pt x="910" y="1103" on="1"/>
        <pt x="910" y="1041" on="1"/>
        <pt x="910" y="1030" on="0"/>
        <pt x="897" y="1012" on="0"/>
        <pt x="880" y="1004" on="1"/>
        <pt x="330" y="733" on="1"/>
        <pt x="313" y="725" on="0"/>
        <pt x="274" y="714" on="0"/>
        <pt x="253" y="709" on="1"/>
        <pt x="274" y="704" on="0"/>
        <pt x="313" y="692" on="0"/>
        <pt x="330" y="684" on="1"/>
        <pt x="879" y="412" on="1"/>
        <pt x="896" y="403" on="0"/>
        <pt x="910" y="387" on="0"/>
        <pt x="910" y="376" on="1"/>
        <pt x="910" y="313" on="1"/>
        <pt x="160" y="689" on="1"/>
      </contour>
      <contour>
        <pt x="160" y="153" on="1"/>
        <pt x="910" y="153" on="1"/>
        <pt x="910" y="80" on="1"/>
        <pt x="160" y="80" on="1"/>
      </contour>
    </TTGlyph>
    <TTGlyph name="logicalnot" xMin="164" yMin="339" xMax="993" yMax="707">
      <contour>
        <pt x="164" y="707" on="1"/>
        <pt x="993" y="707" on="1"/>
        <pt x="993" y="339" on="1"/>
        <pt x="911" y="339" on="1"/>
        <pt x="911" y="634" on="1"/>
        <pt x="164" y="634" on="1"/>
      </contour>
    </TTGlyph>
    <TTGlyph name="lozenge" xMin="145" yMin="-154" xMax="1015" yMax="1510">
      <contour>
        <pt x="145" y="678" on="1"/>
        <pt x="547" y="1510" on="1"/>
        <pt x="613" y="1510" on="1"/>
        <pt x="1015" y="678" on="1"/>
        <pt x="613" y="-154" on="1"/>
        <pt x="547" y="-154" on="1"/>
      </contour>
      <contour>
        <pt x="227" y="678" on="1"/>
        <pt x="559" y="-7" on="1"/>
        <pt x="567" y="-22" on="0"/>
        <pt x="576" y="-51" on="0"/>
        <pt x="579" y="-65" on="1"/>
        <pt x="583" y="-51" on="0"/>
        <pt x="592" y="-23" on="0"/>
        <pt x="600" y="-7" on="1"/>
        <pt x="934" y="678" on="1"/>
        <pt x="600" y="1363" on="1"/>
        <pt x="592" y="1379" on="0"/>
        <pt x="583" y="1407" on="0"/>
        <pt x="579" y="1421" on="1"/>
        <pt x="575" y="1407" on="0"/>
        <pt x="565" y="1379" on="0"/>
        <pt x="559" y="1363" on="1"/>
      </contour>
    </TTGlyph>
    <TTGlyph name="lslash" xMin="57" yMin="0" xMax="543" yMax="1455">
      <contour>
        <pt x="347" y="1455" on="1"/>
        <pt x="347" y="862" on="1"/>
        <pt x="543" y="951" on="1"/>
        <pt x="543" y="901" on="1"/>
        <pt x="543" y="890" on="0"/>
        <pt x="535" y="875" on="0"/>
        <pt x="524" y="870" on="1"/>
        <pt x="347" y="786" on="1"/>
        <pt x="347" y="0" on="1"/>
        <pt x="252" y="0" on="1"/>
        <pt x="252" y="750" on="1"/>
        <pt x="57" y="660" on="1"/>
        <pt x="57" y="712" on="1"/>
        <pt x="57" y="733" on="0"/>
        <pt x="75" y="741" on="1"/>
        <pt x="252" y="825" on="1"/>
        <pt x="252" y="1455" on="1"/>
      </contour>
    </TTGlyph>
    <TTGlyph name="m" xMin="162" yMin="0" xMax="1454" yMax="1011">
      <contour>
        <pt x="162" y="0" on="1"/>
        <pt x="162" y="995" on="1"/>
        <pt x="214" y="995" on="1"/>
        <pt x="240" y="995" on="0"/>
        <pt x="244" y="970" on="1"/>
        <pt x="253" y="826" on="1"/>
        <pt x="282" y="867" on="0"/>
        <pt x="348" y="935" on="0"/>
        <pt x="423" y="984" on="0"/>
        <pt x="508" y="1011" on="0"/>
        <pt x="555" y="1011" on="1"/>
        <pt x="664" y="1011" on="0"/>
        <pt x="794" y="884" on="0"/>
        <pt x="817" y="771" on="1"/>
        <pt x="835" y="833" on="0"/>
        <pt x="900" y="923" on="0"/>
        <pt x="984" y="982" on="0"/>
        <pt x="1083" y="1011" on="0"/>
        <pt x="1135" y="1011" on="1"/>
        <pt x="1209" y="1011" on="0"/>
        <pt x="1327" y="962" on="0"/>
        <pt x="1410" y="866" on="0"/>
        <pt x="1454" y="726" on="0"/>
        <pt x="1454" y="636" on="1"/>
        <pt x="1454" y="0" on="1"/>
        <pt x="1358" y="0" on="1"/>
        <pt x="1358" y="636" on="1"/>
        <pt x="1358" y="782" on="0"/>
        <pt x="1232" y="935" on="0"/>
        <pt x="1115" y="935" on="1"/>
        <pt x="1063" y="935" on="0"/>
        <pt x="968" y="897" on="0"/>
        <pt x="895" y="822" on="0"/>
        <pt x="852" y="710" on="0"/>
        <pt x="852" y="636" on="1"/>
        <pt x="852" y="0" on="1"/>
        <pt x="757" y="0" on="1"/>
        <pt x="757" y="636" on="1"/>
        <pt x="757" y="781" on="0"/>
        <pt x="641" y="935" on="0"/>
        <pt x="530" y="935" on="1"/>
        <pt x="449" y="935" on="0"/>
        <pt x="311" y="838" on="0"/>
        <pt x="257" y="752" on="1"/>
        <pt x="257" y="0" on="1"/>
      </contour>
    </TTGlyph>
    <TTGlyph name="macron" xMin="20" yMin="1252" xMax="565" yMax="1317">
      <contour>
        <pt x="20" y="1317" on="1"/>
        <pt x="565" y="1317" on="1"/>
        <pt x="565" y="1252" on="1"/>
        <pt x="20" y="1252" on="1"/>
      </contour>
    </TTGlyph>
    <TTGlyph name="macron.case" xMin="85" yMin="1589" xMax="500" yMax="1649">
      <contour>
        <pt x="85" y="1649" on="1"/>
        <pt x="500" y="1649" on="1"/>
        <pt x="500" y="1589" on="1"/>
        <pt x="85" y="1589" on="1"/>
      </contour>
    </TTGlyph>
    <TTGlyph name="minus" xMin="164" yMin="634" xMax="993" yMax="707">
      <contour>
        <pt x="164" y="707" on="1"/>
        <pt x="993" y="707" on="1"/>
        <pt x="993" y="634" on="1"/>
        <pt x="164" y="634" on="1"/>
      </contour>
    </TTGlyph>
    <TTGlyph name="mu" xMin="137" yMin="-352" xMax="920" yMax="995">
      <contour>
        <pt x="233" y="995" on="1"/>
        <pt x="233" y="359" on="1"/>
        <pt x="233" y="219" on="0"/>
        <pt x="361" y="60" on="0"/>
        <pt x="492" y="60" on="1"/>
        <pt x="589" y="60" on="0"/>
        <pt x="757" y="159" on="0"/>
        <pt x="824" y="247" on="1"/>
        <pt x="824" y="995" on="1"/>
        <pt x="920" y="995" on="1"/>
        <pt x="920" y="0" on="1"/>
        <pt x="867" y="0" on="1"/>
        <pt x="839" y="0" on="0"/>
        <pt x="838" y="26" on="1"/>
        <pt x="829" y="174" on="1"/>
        <pt x="759" y="86" on="0"/>
        <pt x="589" y="-6" on="0"/>
        <pt x="487" y="-6" on="1"/>
        <pt x="389" y="-6" on="0"/>
        <pt x="257" y="71" on="0"/>
        <pt x="220" y="143" on="1"/>
        <pt x="225" y="100" on="0"/>
        <pt x="228" y="12" on="0"/>
        <pt x="228" y="-24" on="1"/>
        <pt x="228" y="-352" on="1"/>
        <pt x="180" y="-352" on="1"/>
        <pt x="160" y="-352" on="0"/>
        <pt x="137" y="-330" on="0"/>
        <pt x="137" y="-310" on="1"/>
        <pt x="137" y="995" on="1"/>
      </contour>
    </TTGlyph>
    <TTGlyph name="multiply" xMin="153" yMin="244" xMax="1003" yMax="1092">
      <contour>
        <pt x="998" y="1036" on="1"/>
        <pt x="631" y="670" on="1"/>
        <pt x="1003" y="298" on="1"/>
        <pt x="952" y="246" on="1"/>
        <pt x="579" y="618" on="1"/>
        <pt x="205" y="244" on="1"/>
        <pt x="153" y="296" on="1"/>
        <pt x="526" y="670" on="1"/>
        <pt x="158" y="1038" on="1"/>
        <pt x="211" y="1092" on="1"/>
        <pt x="579" y="723" on="1"/>
        <pt x="945" y="1090" on="1"/>
      </contour>
    </TTGlyph>
    <TTGlyph name="n" xMin="162" yMin="0" xMax="944" yMax="1011">
      <contour>
        <pt x="162" y="0" on="1"/>
        <pt x="162" y="995" on="1"/>
        <pt x="214" y="995" on="1"/>
        <pt x="240" y="995" on="0"/>
        <pt x="244" y="970" on="1"/>
        <pt x="253" y="820" on="1"/>
        <pt x="321" y="906" on="0"/>
        <pt x="502" y="1011" on="0"/>
        <pt x="613" y="1011" on="1"/>
        <pt x="695" y="1011" on="0"/>
        <pt x="820" y="959" on="0"/>
        <pt x="902" y="861" on="0"/>
        <pt x="944" y="723" on="0"/>
        <pt x="944" y="636" on="1"/>
        <pt x="944" y="0" on="1"/>
        <pt x="849" y="0" on="1"/>
        <pt x="849" y="636" on="1"/>
        <pt x="849" y="776" on="0"/>
        <pt x="721" y="935" on="0"/>
        <pt x="589" y="935" on="1"/>
        <pt x="491" y="935" on="0"/>
        <pt x="323" y="834" on="0"/>
        <pt x="257" y="746" on="1"/>
        <pt x="257" y="0" on="1"/>
      </contour>
    </TTGlyph>
    <TTGlyph name="nacute" xMin="162" yMin="0" xMax="944" yMax="1431">
      <component glyphName="n" x="0" y="0" flags="0x204"/>
      <component glyphName="acute" x="259" y="0" flags="0x4"/>
    </TTGlyph>
</ttFont>
